<?xml version="1.0" encoding="UTF-8" standalone="no" ?>
<!DOCTYPE svg PUBLIC "-//W3C//DTD SVG 1.1//EN" "http://www.w3.org/Graphics/SVG/1.1/DTD/svg11.dtd">
<svg xmlns="http://www.w3.org/2000/svg" xmlns:xlink="http://www.w3.org/1999/xlink" version="1.1" width="640" height="480" viewBox="0 0 640 480" xml:space="preserve">
<desc>Created with Fabric.js 3.6.6</desc>
<defs>
</defs>
<g transform="matrix(1 0 0 1 351.5 180.76)"  >
<path style="stroke: rgb(0,0,0); stroke-width: 25; stroke-dasharray: none; stroke-linecap: round; stroke-dashoffset: 0; stroke-linejoin: round; stroke-miterlimit: 10; fill: none; fill-rule: nonzero; opacity: 1;"  transform=" translate(-351.5, -180.76)" d="M 197.5 278.775 Q 197.5 278.75 197 278.25 Q 196.5 277.75 196.5 276.75 Q 196.5 275.75 196 274.75 Q 195.5 273.75 195 272.75 Q 194.5 271.75 194.5 270.75 Q 194.5 269.75 194.5 267.75 Q 194.5 265.75 194.5 263.75 Q 194.5 261.75 194.5 259.25 Q 194.5 256.75 194.5 253.75 Q 194.5 250.75 194.5 248.25 Q 194.5 245.75 194.5 242.75 Q 194.5 239.75 194.5 236.25 Q 194.5 232.75 195.5 227.25 Q 196.5 221.75 196.5 220.25 Q 196.5 218.75 197.5 212.25 Q 198.5 205.75 199 202.25 Q 199.5 198.75 200.5 195.25 Q 201.5 191.75 201.5 189.25 Q 201.5 186.75 202 184.75 Q 202.5 182.75 203 180.75 Q 203.5 178.75 203.5 177.25 Q 203.5 175.75 204.5 173.75 Q 205.5 171.75 206 168.75 Q 206.5 165.75 207 163.75 Q 207.5 161.75 208 159.25 Q 208.5 156.75 210 154.25 Q 211.5 151.75 212 150.25 Q 212.5 148.75 214 144.75 Q 215.5 140.75 216.5 139.25 Q 217.5 137.75 218.5 136.75 Q 219.5 135.75 221 133.25 Q 222.5 130.75 223.5 129.75 Q 224.5 128.75 225.5 127.25 Q 226.5 125.75 227.5 125.25 Q 228.5 124.75 229.5 123.75 Q 230.5 122.75 232.5 121.25 Q 234.5 119.75 235 119.25 Q 235.5 118.75 237.5 117.75 Q 239.5 116.75 241 115.75 Q 242.5 114.75 244 113.25 Q 245.5 111.75 250 109.75 Q 254.5 107.75 257.5 106.75 Q 260.5 105.75 263 104.75 Q 265.5 103.75 268.5 103.25 Q 271.5 102.75 274 101.25 Q 276.5 99.75 280 98.75 Q 283.5 97.75 285.5 97.25 Q 287.5 96.75 289.5 95.75 Q 291.5 94.75 293.5 94.25 Q 295.5 93.75 298 93.25 Q 300.5 92.75 302.5 92.25 Q 304.5 91.75 306.5 91.25 Q 308.5 90.75 314 89.75 Q 319.5 88.75 323 87.75 Q 326.5 86.75 330 86.25 Q 333.5 85.75 336.5 85.25 Q 339.5 84.75 342 84.75 Q 344.5 84.75 347 84.25 Q 349.5 83.75 351 83.75 Q 352.5 83.75 355.5 83.75 Q 358.5 83.75 362.5 83.25 Q 366.5 82.75 369.5 82.75 Q 372.5 82.75 377.5 82.75 Q 382.5 82.75 389 82.75 Q 395.5 82.75 400 83.25 Q 404.5 83.75 407.5 84.25 Q 410.5 84.75 413.5 85.75 Q 416.5 86.75 418.5 87.75 Q 420.5 88.75 422.5 89.75 Q 424.5 90.75 426.5 91.25 Q 428.5 91.75 431.5 92.75 Q 434.5 93.75 436.5 95.25 Q 438.5 96.75 440 97.75 Q 441.5 98.75 442.5 99.75 Q 443.5 100.75 445.5 102.75 Q 447.5 104.75 449.5 106.25 Q 451.5 107.75 452 108.25 Q 452.5 108.75 453 109.25 Q 453.5 109.75 454 110.25 Q 454.5 110.75 455.5 112.25 Q 456.5 113.75 457 114.75 Q 457.5 115.75 459 117.25 Q 460.5 118.75 461.5 119.75 Q 462.5 120.75 464 123.25 Q 465.5 125.75 466.5 128.75 Q 467.5 131.75 469 134.75 Q 470.5 137.75 472 140.75 Q 473.5 143.75 475 147.25 Q 476.5 150.75 478.5 154.75 Q 480.5 158.75 481 160.25 Q 481.5 161.75 483 163.75 Q 484.5 165.75 485 167.25 Q 485.5 168.75 486 170.25 Q 486.5 171.75 487 173.25 Q 487.5 174.75 488 176.75 Q 488.5 178.75 489.5 180.75 Q 490.5 182.75 491 184.75 Q 491.5 186.75 492 188.75 Q 492.5 190.75 493.5 192.75 Q 494.5 194.75 494.5 195.75 Q 494.5 196.75 496 202.25 Q 497.5 207.75 498.5 212.25 Q 499.5 216.75 500 219.75 Q 500.5 222.75 501 224.25 Q 501.5 225.75 502.5 230.25 Q 503.5 234.75 504 236.25 Q 504.5 237.75 505 239.25 Q 505.5 240.75 505.5 241.75 Q 505.5 242.75 506 242.75 Q 506.5 242.75 506.5 244.25 Q 506.5 245.75 506.5 246.25 Q 506.5 246.75 507 247.25 Q 507.5 247.75 507.5 248.25 Q 507.5 248.75 507.5 249.75 Q 507.5 250.75 507.5 251.75 Q 507.5 252.75 507.5 253.25 Q 507.5 253.75 508 254.75 Q 508.5 255.75 508.5 256.75 Q 508.5 257.75 508.5 259.25 Q 508.5 260.75 508.5 261.25 L 508.5 261.775" stroke-linecap="round" />
</g>
<g transform="matrix(1 0 0 1 353 330.75)"  >
<path style="stroke: rgb(0,0,0); stroke-width: 25; stroke-dasharray: none; stroke-linecap: round; stroke-dashoffset: 0; stroke-linejoin: round; stroke-miterlimit: 10; fill: none; fill-rule: nonzero; opacity: 1;"  transform=" translate(-353, -330.75)" d="M 177.475 284.75 Q 177.5 284.75 178 284.75 Q 178.5 284.75 179 284.75 Q 179.5 284.75 180 285.25 Q 180.5 285.75 182 286.75 Q 183.5 287.75 185.5 288.75 Q 187.5 289.75 189.5 290.75 Q 191.5 291.75 195.5 293.25 Q 199.5 294.75 201 295.25 Q 202.5 295.75 205 296.75 Q 207.5 297.75 209.5 298.25 Q 211.5 298.75 213.5 298.75 Q 215.5 298.75 218 299.25 Q 220.5 299.75 222.5 299.75 Q 224.5 299.75 227.5 300.25 Q 230.5 300.75 233 300.75 Q 235.5 300.75 242 301.25 Q 248.5 301.75 253 301.75 Q 257.5 301.75 260 301.75 Q 262.5 301.75 269.5 301.75 Q 276.5 301.75 281.5 301.75 Q 286.5 301.75 290.5 301.75 Q 294.5 301.75 300 301.75 Q 305.5 301.75 310 301.75 Q 314.5 301.75 317 301.75 Q 319.5 301.75 328 301.75 Q 336.5 301.75 342.5 301.75 Q 348.5 301.75 353.5 301.75 Q 358.5 301.75 366 301.75 Q 373.5 301.75 376.5 301.75 Q 379.5 301.75 385.5 301.75 Q 391.5 301.75 400.5 301.75 Q 409.5 301.75 414.5 301.25 Q 419.5 300.75 425 299.75 Q 430.5 298.75 435.5 298.25 Q 440.5 297.75 446 297.25 Q 451.5 296.75 456 295.75 Q 460.5 294.75 464.5 294.25 Q 468.5 293.75 470.5 292.75 Q 472.5 291.75 474.5 291.25 Q 476.5 290.75 481 288.75 Q 485.5 286.75 487 286.25 Q 488.5 285.75 491.5 285.25 Q 494.5 284.75 497.5 283.25 Q 500.5 281.75 504 280.25 Q 507.5 278.75 509.5 277.75 Q 511.5 276.75 513 275.25 Q 514.5 273.75 517 272.25 Q 519.5 270.75 521 269.75 Q 522.5 268.75 524 267.75 Q 525.5 266.75 526 265.25 Q 526.5 263.75 527.5 263.25 Q 528.5 262.75 529 262.25 Q 529.5 261.75 530 261.25 Q 530.5 260.75 531 260.75 Q 531.5 260.75 531.5 261.25 Q 531.5 261.75 531.5 262.25 Q 531.5 262.75 532 263.75 Q 532.5 264.75 533 265.25 Q 533.5 265.75 534 267.25 Q 534.5 268.75 535 269.75 Q 535.5 270.75 536 271.75 Q 536.5 272.75 537 273.75 Q 537.5 274.75 538 275.75 Q 538.5 276.75 539 277.75 Q 539.5 278.75 540 279.75 Q 540.5 280.75 541 282.25 Q 541.5 283.75 541.5 284.75 Q 541.5 285.75 542 287.25 Q 542.5 288.75 542.5 290.25 Q 542.5 291.75 543 293.75 Q 543.5 295.75 543.5 296.25 Q 543.5 296.75 544 298.75 Q 544.5 300.75 544.5 301.75 Q 544.5 302.75 544.5 303.75 Q 544.5 304.75 544.5 306.75 Q 544.5 308.75 545 310.25 Q 545.5 311.75 545.5 313.25 Q 545.5 314.75 545.5 315.25 Q 545.5 315.75 545.5 316.75 Q 545.5 317.75 545.5 318.75 Q 545.5 319.75 545.5 320.75 Q 545.5 321.75 545.5 322.25 Q 545.5 322.75 545.5 324.25 Q 545.5 325.75 545.5 326.25 Q 545.5 326.75 545.5 327.75 Q 545.5 328.75 545.5 329.75 Q 545.5 330.75 545.5 331.25 Q 545.5 331.75 545 332.75 Q 544.5 333.75 544 336.25 Q 543.5 338.75 543 340.25 Q 542.5 341.75 542.5 342.25 Q 542.5 342.75 542 344.25 Q 541.5 345.75 541.5 346.75 Q 541.5 347.75 541.5 348.75 Q 541.5 349.75 541 349.75 Q 540.5 349.75 540.5 350.25 Q 540.5 350.75 540.5 351.25 Q 540.5 351.75 540.5 352.25 Q 540.5 352.75 540.5 353.25 Q 540.5 353.75 540.5 354.25 Q 540.5 354.75 540.5 355.75 Q 540.5 356.75 540.5 357.75 Q 540.5 358.75 540.5 359.75 Q 540.5 360.75 540.5 361.75 Q 540.5 362.75 540.5 363.25 Q 540.5 363.75 540.5 364.25 Q 540.5 364.75 540 364.75 Q 539.5 364.75 538.5 366.25 Q 537.5 367.75 536.5 368.75 Q 535.5 369.75 535 370.25 Q 534.5 370.75 533 372.25 Q 531.5 373.75 530.5 374.25 Q 529.5 374.75 528.5 375.25 Q 527.5 375.75 526.5 376.25 Q 525.5 376.75 524.5 377.25 Q 523.5 377.75 522 378.75 Q 520.5 379.75 519 380.25 Q 517.5 380.75 514.5 382.25 Q 511.5 383.75 509.5 384.25 Q 507.5 384.75 505.5 385.25 Q 503.5 385.75 500.5 386.75 Q 497.5 387.75 496.5 387.75 Q 495.5 387.75 493.5 388.25 Q 491.5 388.75 489.5 389.25 Q 487.5 389.75 484.5 390.25 Q 481.5 390.75 479.5 391.25 Q 477.5 391.75 475 391.75 Q 472.5 391.75 469.5 392.75 Q 466.5 393.75 463.5 394.25 Q 460.5 394.75 457.5 394.75 Q 454.5 394.75 451.5 395.25 Q 448.5 395.75 444.5 395.75 Q 440.5 395.75 438 396.25 Q 435.5 396.75 432.5 397.25 Q 429.5 397.75 426.5 397.75 Q 423.5 397.75 420 397.75 Q 416.5 397.75 414 398.25 Q 411.5 398.75 408.5 398.75 Q 405.5 398.75 402.5 399.25 Q 399.5 399.75 396.5 399.75 Q 393.5 399.75 390.5 400.25 Q 387.5 400.75 384 400.75 Q 380.5 400.75 375.5 400.75 Q 370.5 400.75 368 400.75 Q 365.5 400.75 362.5 400.75 Q 359.5 400.75 357.5 400.75 Q 355.5 400.75 353 400.75 Q 350.5 400.75 348.5 400.75 Q 346.5 400.75 344 400.75 Q 341.5 400.75 339 400.75 Q 336.5 400.75 334 400.75 Q 331.5 400.75 328.5 400.75 Q 325.5 400.75 322.5 400.75 Q 319.5 400.75 316.5 400.75 Q 313.5 400.75 310.5 400.75 Q 307.5 400.75 302.5 400.75 Q 297.5 400.75 294 400.75 Q 290.5 400.75 286.5 400.75 Q 282.5 400.75 279.5 400.75 Q 276.5 400.75 273.5 400.75 Q 270.5 400.75 266.5 400.75 Q 262.5 400.75 260.5 400.25 Q 258.5 399.75 252.5 398.75 Q 246.5 397.75 243 397.25 Q 239.5 396.75 236.5 396.75 Q 233.5 396.75 230.5 396.25 Q 227.5 395.75 225.5 395.75 Q 223.5 395.75 221.5 395.25 Q 219.5 394.75 217.5 394.25 Q 215.5 393.75 214 393.25 Q 212.5 392.75 212 392.75 Q 211.5 392.75 209.5 391.75 Q 207.5 390.75 205.5 389.75 Q 203.5 388.75 201.5 387.75 Q 199.5 386.75 198 386.25 Q 196.5 385.75 195.5 385.25 Q 194.5 384.75 191.5 382.75 Q 188.5 380.75 188 380.25 Q 187.5 379.75 186.5 379.25 Q 185.5 378.75 184.5 378.25 Q 183.5 377.75 182 376.75 Q 180.5 375.75 180 374.75 Q 179.5 373.75 178.5 373.25 Q 177.5 372.75 176.5 371.75 Q 175.5 370.75 175 370.25 Q 174.5 369.75 174 369.75 Q 173.5 369.75 173 368.25 Q 172.5 366.75 171.5 365.75 Q 170.5 364.75 170 363.75 Q 169.5 362.75 168.5 362.25 Q 167.5 361.75 167 360.75 Q 166.5 359.75 166 359.25 Q 165.5 358.75 165.5 358.25 Q 165.5 357.75 165 356.75 Q 164.5 355.75 164 355.25 Q 163.5 354.75 163.5 354.25 Q 163.5 353.75 163.5 353.25 Q 163.5 352.75 163 352.25 Q 162.5 351.75 162.5 350.75 Q 162.5 349.75 162 348.25 Q 161.5 346.75 161.5 346.25 Q 161.5 345.75 161 345.25 Q 160.5 344.75 160.5 344.25 Q 160.5 343.75 160.5 342.75 Q 160.5 341.75 160.5 340.75 Q 160.5 339.75 160.5 338.25 Q 160.5 336.75 160.5 334.25 Q 160.5 331.75 160.5 329.75 Q 160.5 327.75 160.5 326.75 Q 160.5 325.75 160.5 324.25 Q 160.5 322.75 160.5 321.75 Q 160.5 320.75 160.5 320.25 Q 160.5 319.75 160.5 318.25 Q 160.5 316.75 161 315.75 Q 161.5 314.75 161.5 314.25 Q 161.5 313.75 162 312.25 Q 162.5 310.75 162.5 309.75 Q 162.5 308.75 163 308.25 Q 163.5 307.75 163.5 307.25 Q 163.5 306.75 163.5 306.25 Q 163.5 305.75 164 305.25 Q 164.5 304.75 165 303.75 Q 165.5 302.75 165.5 302.25 Q 165.5 301.75 165.5 301.25 Q 165.5 300.75 165.5 300.25 Q 165.5 299.75 165.5 299.25 Q 165.5 298.75 165.5 298.25 Q 165.5 297.75 165.5 297.25 Q 165.5 296.75 165.5 296.25 Q 165.5 295.75 166 295.75 Q 166.5 295.75 166.5 295.25 L 166.5 294.725" stroke-linecap="round" />
</g>
<g transform="matrix(1 0 0 1 386.5 143.25)"  >
<path style="stroke: rgb(0,0,0); stroke-width: 25; stroke-dasharray: none; stroke-linecap: round; stroke-dashoffset: 0; stroke-linejoin: round; stroke-miterlimit: 10; fill: none; fill-rule: nonzero; opacity: 1;"  transform=" translate(-386.5, -143.25)" d="M 358.475 94.725 Q 358.5 94.75 359 94.75 Q 359.5 94.75 360 95.25 Q 360.5 95.75 362.5 97.25 Q 364.5 98.75 367.5 100.75 Q 370.5 102.75 374 105.25 Q 377.5 107.75 379.5 110.25 Q 381.5 112.75 384 115.75 Q 386.5 118.75 388.5 122.25 Q 390.5 125.75 392.5 128.75 Q 394.5 131.75 397 137.75 Q 399.5 143.75 401 146.25 Q 402.5 148.75 403.5 151.75 Q 404.5 154.75 405 156.75 Q 405.5 158.75 407 160.75 Q 408.5 162.75 408.5 163.25 Q 408.5 163.75 409 165.25 Q 409.5 166.75 410 168.25 Q 410.5 169.75 410.5 171.75 Q 410.5 173.75 411 176.25 Q 411.5 178.75 412 181.75 Q 412.5 184.75 413.5 188.25 L 414.525 191.775" stroke-linecap="round" />
</g>
<g transform="matrix(1 0 0 1 312.01 144.76)"  >
<path style="stroke: rgb(0,0,0); stroke-width: 25; stroke-dasharray: none; stroke-linecap: round; stroke-dashoffset: 0; stroke-linejoin: round; stroke-miterlimit: 10; fill: none; fill-rule: nonzero; opacity: 1;"  transform=" translate(-312.01, -144.76)" d="M 350.525 101.75 Q 350.5 101.75 348.5 101.75 Q 346.5 101.75 346 101.75 Q 345.5 101.75 343 102.75 Q 340.5 103.75 338 105.75 Q 335.5 107.75 333 109.75 Q 330.5 111.75 327.5 114.75 Q 324.5 117.75 322 121.25 Q 319.5 124.75 317 127.25 Q 314.5 129.75 312.5 132.75 Q 310.5 135.75 307.5 139.25 Q 304.5 142.75 302 145.25 Q 299.5 147.75 297 151.25 Q 294.5 154.75 291.5 158.25 Q 288.5 161.75 286.5 164.25 Q 284.5 166.75 282.5 170.25 Q 280.5 173.75 279.5 174.75 Q 278.5 175.75 277 178.25 Q 275.5 180.75 275.5 181.25 Q 275.5 181.75 275 182.25 Q 274.5 182.75 274.5 183.25 Q 274.5 183.75 274.5 184.25 Q 274.5 184.75 274 185.25 Q 273.5 185.75 273.5 186.25 Q 273.5 186.75 273.5 187.25 L 273.5 187.775" stroke-linecap="round" />
</g>
<g transform="matrix(1 0 0 1 221 353.25)"  >
<path style="stroke: rgb(0,0,0); stroke-width: 25; stroke-dasharray: none; stroke-linecap: round; stroke-dashoffset: 0; stroke-linejoin: round; stroke-miterlimit: 10; fill: none; fill-rule: nonzero; opacity: 1;"  transform=" translate(-221, -353.25)" d="M 221.5 331.725 Q 221.5 331.75 221.5 332.25 Q 221.5 332.75 221.5 333.25 Q 221.5 333.75 221.5 334.75 Q 221.5 335.75 221.5 337.25 Q 221.5 338.75 221.5 340.75 Q 221.5 342.75 221.5 345.25 Q 221.5 347.75 221 352.25 Q 220.5 356.75 220.5 359.25 Q 220.5 361.75 220.5 363.75 Q 220.5 365.75 220.5 366.75 Q 220.5 367.75 220.5 368.75 Q 220.5 369.75 220.5 370.75 Q 220.5 371.75 220.5 373.25 L 220.5 374.775" stroke-linecap="round" />
</g>
<g transform="matrix(1 0 0 1 280.5 357.25)"  >
<path style="stroke: rgb(0,0,0); stroke-width: 25; stroke-dasharray: none; stroke-linecap: round; stroke-dashoffset: 0; stroke-linejoin: round; stroke-miterlimit: 10; fill: none; fill-rule: nonzero; opacity: 1;"  transform=" translate(-280.5, -357.25)" d="M 275.5 335.725 Q 275.5 335.75 275.5 337.75 Q 275.5 339.75 275.5 341.75 Q 275.5 343.75 276 347.75 Q 276.5 351.75 278 355.25 Q 279.5 358.75 280 361.75 Q 280.5 364.75 281.5 367.25 Q 282.5 369.75 283 371.25 Q 283.5 372.75 284 375.25 Q 284.5 377.75 285 377.75 Q 285.5 377.75 285.5 378.25 L 285.5 378.775" stroke-linecap="round" />
</g>
<g transform="matrix(1 0 0 1 374.5 363.75)"  >
<path style="stroke: rgb(0,0,0); stroke-width: 25; stroke-dasharray: none; stroke-linecap: round; stroke-dashoffset: 0; stroke-linejoin: round; stroke-miterlimit: 10; fill: none; fill-rule: nonzero; opacity: 1;"  transform=" translate(-374.5, -363.75)" d="M 374.5 342.725 Q 374.5 342.75 374.5 343.25 Q 374.5 343.75 374.5 344.75 Q 374.5 345.75 374.5 347.75 Q 374.5 349.75 374.5 353.25 Q 374.5 356.75 374.5 359.75 Q 374.5 362.75 374.5 368.25 Q 374.5 373.75 374.5 375.75 Q 374.5 377.75 374.5 379.75 Q 374.5 381.75 374.5 382.25 Q 374.5 382.75 374.5 383.25 Q 374.5 383.75 374.5 384.25 L 374.5 384.775" stroke-linecap="round" />
</g>
<g transform="matrix(1 0 0 1 452.5 354.25)"  >
<path style="stroke: rgb(0,0,0); stroke-width: 25; stroke-dasharray: none; stroke-linecap: round; stroke-dashoffset: 0; stroke-linejoin: round; stroke-miterlimit: 10; fill: none; fill-rule: nonzero; opacity: 1;"  transform=" translate(-452.5, -354.25)" d="M 452.5 333.725 Q 452.5 333.75 452.5 334.75 Q 452.5 335.75 452.5 339.75 Q 452.5 343.75 452.5 347.75 Q 452.5 351.75 452.5 355.75 Q 452.5 359.75 452.5 363.75 Q 452.5 367.75 452.5 371.25 L 452.5 374.775" stroke-linecap="round" />
</g>
<g transform="matrix(1 0 0 1 513.99 354.25)"  >
<path style="stroke: rgb(0,0,0); stroke-width: 25; stroke-dasharray: none; stroke-linecap: round; stroke-dashoffset: 0; stroke-linejoin: round; stroke-miterlimit: 10; fill: none; fill-rule: nonzero; opacity: 1;"  transform=" translate(-513.99, -354.25)" d="M 505.475 326.725 Q 505.5 326.75 506 328.25 Q 506.5 329.75 507.5 332.25 Q 508.5 334.75 510 338.25 Q 511.5 341.75 513.5 348.75 Q 515.5 355.75 518 362.25 Q 520.5 368.75 521.5 372.75 Q 522.5 376.75 522.5 379.25 L 522.5 381.775" stroke-linecap="round" />
</g>
</svg>