<svg width="800" height="600" xmlns="http://www.w3.org/2000/svg">
 <g id="Layer_1">
  <title>Layer 1</title>
  <path d="m313,168.5c0,-1 -1,-1 -1,-3c0,-4 0,-7 0,-11c0,-6 -0.94553,-9.09023 0,-14c1.01837,-5.28799 2.87781,-8.00749 3,-9c0.50378,-4.09222 2.41589,-7.76108 4,-11c1.38934,-2.84072 3,-7 5,-10c2,-3 4.37134,-4.74674 7,-9c1.17557,-1.90211 3.06805,-5.91946 9,-11c4.42865,-3.79301 10.16119,-7.74639 15,-11c4.14923,-2.78995 7,-5 11,-7c2,-1 6,-3 10,-4c4,-1 9,-2 16,-2c5,0 12.04495,-0.7331 18,0c8.18442,1.00755 15.68567,2.70273 24,6c9.70499,3.84878 18.93695,5.19622 28,8c6.9549,2.1516 12,4 17,6c0,0 1.4588,0.69344 2,2c0.76538,1.84776 2.94003,3.37535 6,9c3.0224,5.55563 3.13901,11.266 6,19c3.10318,8.3887 5.53375,14.0966 7,20c2.28683,9.20709 4.49347,11.87856 5,15c0.32037,1.97418 0.5405,4.0535 1,6c0.51373,2.17625 1.4588,1.69344 2,3c0.38269,0.92387 0,1 0,2c0,1 0,2 0,5l0,2l1,3l0,2" id="svg_1" stroke-width="20" stroke="#000" fill="none"/>
  <path stroke="#000" d="m302.9622,173.5c0,0 0,1 0,3c0,3 0,6 0,12c0,9 -0.4098,17.02045 0,23c0.41546,6.06204 0.25731,11.08025 0.82809,14c0.42542,2.17625 0.82809,4 0.82809,5c0,2 -0.25385,3.4588 0.82809,4c0.76507,0.38269 1.56652,1.19576 7.45283,5c4.89772,3.16531 11.63926,4.51059 20.70231,6c9.17379,1.50761 16.55821,5.04506 24.84277,6c9.1052,1.04955 15.7028,2.49937 24.01468,3c6.61653,0.39851 18.21803,0 25.67087,0c7.45283,0 17.8378,3.30991 51.34173,-5c20.27899,-5.02975 34.76634,-11.06792 38.09225,-12c11.54952,-3.23676 16.07497,-3.96855 19.04613,-6c2.03819,-1.39357 1.65618,-2 3.31237,-3c1.65618,-1 2.74098,-0.33749 4.96855,-2c0.9962,-0.7435 1.71921,-1.61731 2.48428,-2c1.08197,-0.5412 2.16075,-2.7975 3.31237,-8c1.51214,-6.83122 1.45856,-12.04468 2.48428,-18c0.69527,-4.03671 0.82809,-11 0.82809,-14c0,-1 0,-2 0,-2c0,-1 -0.41091,-1.90779 -0.82809,-6c-0.4047,-3.97003 -0.82809,-7 -0.82809,-8c0,-1 0,-1 0,-1c0,-1 0.58554,-1.29289 0,-2c-0.58554,-0.70711 -0.82809,-1 -0.82809,-2c0,-1 0,-1 -0.82809,-1c-0.82809,0 -1.65618,0 -4.14046,0c-1.65618,0 -4.22906,0.08099 -7.45283,1c-3.60425,1.02748 -7.6312,1.11894 -12.42139,3c-3.52182,1.38298 -7.47108,1.83705 -14.07757,3c-4.9844,0.87743 -9.78439,2.99245 -16.56185,4c-4.93133,0.73309 -9.96243,-0.24481 -17.38994,1c-4.98928,0.83618 -11.59329,1 -17.38994,1c-6.62474,0 -12.42139,0 -17.38994,0c-7.45283,0 -18.06532,0.99245 -24.84277,2c-5.75321,0.85529 -14.07757,1 -19.87422,1c-4.96855,0 -10.7652,0 -14.90566,0c-5.79665,0 -11.59329,0 -15.73376,0c-4.96855,0 -10.7652,0 -14.90566,0c-3.31237,0 -7.47146,0.36655 -9.93711,0c-3.38874,-0.50377 -4.20693,-0.31075 -6.62474,-1c-1.80213,-0.51375 -2.33834,-1.48625 -4.14046,-2c-2.41781,-0.68925 -2.5473,0.38269 -3.31237,0c-1.08194,-0.5412 -1.65618,-1 -1.65618,-1c-0.82809,0 -0.82809,-1 -0.82809,-1c0,0 -0.82809,-1 -1.65618,-1l-0.82809,-1l0,0" id="svg_2" stroke-width="20" fill="none"/>
 </g>
</svg>