<svg width="800" height="600" xmlns="http://www.w3.org/2000/svg">
 <g id="Layer_1">
  <title>Layer 1</title>
  <path transform="rotate(-5.7596 358.82 199.22)" stroke="#000" d="m174.84553,253.50607c0.95413,0 1.31926,-0.07277 0.95413,-0.95608c-0.51637,-1.24916 -1.63565,-3.66591 -2.86238,-10.51685c-2.19701,-12.26979 -0.95413,-16.25331 -0.95413,-23.90193c0,-13.38508 -0.65216,-25.88739 0.95413,-37.28701c1.36037,-9.65436 5.72475,-18.16547 8.58713,-23.90193c3.8165,-7.64862 8.7244,-16.16396 12.40363,-21.98978c2.97506,-4.7108 8.58713,-9.56077 15.26601,-16.25331c4.77063,-4.78039 10.97876,-8.62433 17.17426,-12.429c6.35369,-3.90183 11.53293,-6.49552 16.22013,-8.6047c7.78503,-3.50314 15.06014,-7.31835 22.89901,-9.56077c9.35641,-2.67653 17.17426,-3.82431 29.57789,-5.73646c12.40363,-1.91215 21.94488,-2.86823 32.44026,-2.86823c10.49538,0 20.99076,0 30.53201,0c9.54125,0 18.12838,0 23.85313,0c16.22013,0 26.71196,0.02336 39.11914,1.91215c19.07709,2.90417 28.62376,5.73646 39.11914,9.56077c10.49538,3.82431 18.33121,6.37819 22.89901,9.56077c5.01597,3.49487 8.53961,7.68709 12.40363,12.429c4.71315,5.78398 9.60758,13.34755 13.35775,20.07762c5.82835,10.45955 8.24086,18.95958 10.49538,28.68232c2.62705,11.32938 5.79609,21.61382 9.54125,33.46271c2.65605,8.40318 6.56765,17.89999 8.58713,25.81409c1.67135,6.54975 4.74442,12.09198 5.72475,16.25331c0.43845,1.86101 0.87551,2.28203 1.90825,4.78039c1.0954,2.6499 0.95413,6.69254 0.95413,10.51685c0,2.86823 0,2.86823 0,3.82431c0,0 -0.16515,0.81527 -0.95413,1.91215c-1.24746,1.73432 -3.04395,4.66712 -4.77063,7.64862c-1.07083,1.84904 -4.38348,5.98607 -5.72475,7.64862c-3.84084,4.76078 -11.85342,8.05806 -17.17426,12.429c-2.08697,1.71442 -4.58212,4.23819 -10.49538,6.69254c-5.57509,2.31398 -12.4858,3.55664 -19.08251,5.73646c-7.74196,2.55825 -15.97985,6.5983 -24.80726,8.6047c-7.50186,1.70511 -15.19181,3.24039 -23.85313,4.78039c-14.21646,2.52771 -21.9547,3.39106 -31.48614,3.82431c-10.52784,0.47853 -20.00096,2.38961 -29.57789,2.86823c-9.5294,0.47626 -19.08251,0 -26.71551,0c-9.54125,0 -22.89901,0 -32.44026,0c-9.54125,0 -20.03663,0 -31.48614,0c-11.4495,0 -21.02978,0.9463 -32.44026,0c-11.5679,-0.95935 -20.89249,-3.3833 -29.57789,-4.78039c-9.46764,-1.52293 -15.403,-1.32175 -24.80726,-3.82431c-2.91613,-0.776 -6.79155,-1.31499 -13.35775,-2.86823c-2.93649,-0.69462 -4.77063,-1.91215 -6.67888,-3.82431c-0.95413,-0.95608 -1.16804,-1.81925 -1.90825,-3.82431c-1.36487,-3.69716 -1.90825,-10.51685 -2.86238,-15.29724c-0.95413,-4.78039 -0.95413,-8.6047 -0.95413,-10.51685c0,-0.95608 0.68137,-2.11453 2.86238,-4.78039c0.85546,-1.04562 1.90825,-1.91215 2.86238,-3.82431c0.95413,-1.91215 0.95413,-3.82431 0.95413,-4.78039l0,-0.95608l0,0l0,-0.95608" id="svg_11" stroke-width="20" fill="none"/>
  <path stroke="#000" d="m194,301.54878c3.13412,0.80488 7.31294,0.80488 9.40235,1.60976c10.44706,4.02439 18.41852,7.69694 26.11765,11.26829c10.00645,4.64163 22.98353,10.46341 34.47529,16.09756c11.49176,5.63415 21.67809,11.53654 31.34118,16.90244c3.05575,1.69686 16.14579,8.02726 22.98353,10.46341c6.90319,2.45946 14.45997,5.15254 21.93882,7.2439c10.25261,2.86701 23.25322,5.72299 35.52,8.85366c12.89224,3.2903 26.42515,6.33397 36.56471,8.85366c12.01377,2.98543 23.98488,6.84085 33.43059,7.2439c8.34483,0.35609 18.73992,1.20594 25.07294,1.60976c8.32914,0.5311 15.67059,0.80488 20.89412,0.80488c5.22353,0 11.49176,0 18.80471,0c5.22353,0 11.49176,0 20.89412,0c3.13412,0 7.55257,-1.07207 11.49176,-2.41463c6.88949,-2.34804 10.13627,-5.28282 15.67059,-7.2439c6.00279,-2.1271 10.64632,-2.75441 14.62588,-4.02439c5.62792,-1.79602 10.67973,-6.21688 14.62588,-8.85366c3.34843,-2.23739 7.17904,-4.90134 9.40235,-7.2439c3.94844,-4.1602 5.65349,-5.95934 9.40235,-9.65854c3.63696,-3.58877 7.8879,-6.15021 10.44706,-9.65854c2.75625,-3.77859 6.02651,-8.5421 8.35765,-12.87805c1.64836,-3.06599 2.07022,-4.59747 3.13412,-8.85366c0.59268,-2.37106 2.08941,-7.2439 3.13412,-11.26829c1.04471,-4.02439 1.57471,-8.06836 2.08941,-12.07317c0.5249,-4.08413 1.94129,-8.85771 2.08941,-10.46341c0.52369,-5.67703 2.08941,-7.2439 2.08941,-8.04878c0,-2.41463 0,-3.21951 0,-4.02439c0,-1.60976 0,-2.41463 -1.04471,-4.02439c-2.08941,-3.21951 -7.46629,-7.93871 -9.40235,-9.65854c-3.42246,-3.04025 -4.90235,-4.97898 -6.26824,-6.43902c-2.59162,-2.77023 -6.50091,-4.60712 -10.44706,-7.2439c-3.34843,-2.23739 -5.22353,-3.21951 -7.31294,-4.82927c-1.04471,-0.80488 -4.50268,-1.8814 -7.31294,-3.21951c-1.25678,-0.59843 -2.52702,-0.33713 -4.17882,-1.60976c-1.6518,-1.27263 -2.76588,-2.3925 -7.31294,-3.21951c-1.01678,-0.18493 -2.81383,-1.17416 -4.17882,-1.60976c-1.93038,-0.61604 -2.94997,-1.19626 -5.22353,-1.60976c-1.01678,-0.18493 -1.04471,-0.80488 -2.08941,-0.80488c-1.04471,0 -1.35071,-0.23575 -2.08941,-0.80488c-2.21617,-1.70739 -7.24414,-0.92101 -9.40235,-1.60976c-3.05218,-0.97402 -4.17882,-0.80488 -5.22353,-1.60976c0,0 0,0 -1.04471,0l0,0" id="svg_13" stroke-width="20" fill="none"/>
  <path d="m346,108.5c0,0 0,0 2,0c1,0 2,-1 3,-1c1,0 3,0 5,0c3,0 6,0 8,0c2,0 7,0 9,0c2,0 3,0 4,0c2,0 4,2 8,3c4,1 8.41208,0.96855 12,3c1.23065,0.69678 5,2 7,3c2,1 3.1731,1.85273 4,3c1.30746,1.814 3.31021,3.71899 6,7c2.28589,2.78833 5.19028,4.88152 7,8c1.12234,1.93399 4.14429,6.93414 5,9c1.21014,2.92157 3.19028,7.88152 5,11c2.24469,3.868 3,9 5,12c2,3 4,8 5,10c2,4 4.11588,7.96384 5,11c1.15277,3.95868 2.95517,5.54915 4,9c0.86935,2.87128 0.5405,6.0535 1,8c0.51373,2.17625 0.31073,3.08025 1,6c0.51373,2.17625 0.33749,3.31001 2,6c0.7435,1.203 1,2 2,4c0,0 0.4588,0.69344 1,2c0.38269,0.92387 0.48627,1.82375 1,4c0.22977,0.97325 0.4588,1.69344 1,3c0.38269,0.92387 0,1 1,2c0,0 0,1 1,2l0,0l0,0l0,1" id="svg_17" stroke-width="20" stroke="#000" fill="none"/>
  <path d="m305,127.5c-1,1 -1.07611,0.61731 -2,1c-1.30655,0.5412 -1.02676,1.77025 -2,2c-2.17624,0.51375 -2.69254,2.186 -4,4c-2.48071,3.4418 -4.33749,5.31001 -6,8c-1.487,2.40601 -4,4 -4,4c-1,4 -2.54135,5.70267 -4,9c-1.66803,3.77065 -2.69254,9.186 -4,11c-1.65381,2.29454 -3.48627,3.82375 -4,6c-0.4595,1.9465 -2.34314,6.87605 -4,12c-1.26855,3.92311 -2.14429,7.93414 -3,10c-1.21014,2.92157 -1,4 -1,5c0,2 -1,8 -1,14c0,7 0,11 0,14c0,2 0,6 0,8c0,5 0,10 0,18c0,5 0,9 0,11c0,2 0,3 0,5c0,1 0,2 0,2c0,1 0,1 0,2c0,1 0,2 0,2c1,1 1,1 1,1l0,0" id="svg_18" stroke-width="20" stroke="#000" fill="none"/>
 </g>
</svg>