<?xml version="1.0" encoding="UTF-8" standalone="no" ?>
<!DOCTYPE svg PUBLIC "-//W3C//DTD SVG 1.1//EN" "http://www.w3.org/Graphics/SVG/1.1/DTD/svg11.dtd">
<svg xmlns="http://www.w3.org/2000/svg" xmlns:xlink="http://www.w3.org/1999/xlink" version="1.1" width="640" height="480" viewBox="0 0 640 480" xml:space="preserve">
<desc>Created with Fabric.js 3.6.6</desc>
<defs>
</defs>
<g transform="matrix(1 0 0 1 301.5 172.26)"  >
<path style="stroke: rgb(0,0,0); stroke-width: 25; stroke-dasharray: none; stroke-linecap: round; stroke-dashoffset: 0; stroke-linejoin: round; stroke-miterlimit: 10; fill: none; fill-rule: nonzero; opacity: 1;"  transform=" translate(-301.5, -172.26)" d="M 99 266.775 Q 99 266.75 98.5 265.25 Q 98 263.75 98 261.25 Q 98 258.75 98 256.75 Q 98 254.75 98 252.75 Q 98 250.75 98 247.25 Q 98 243.75 98 241.25 Q 98 238.75 98 235.25 Q 98 231.75 98 228.25 Q 98 224.75 98 220.75 Q 98 216.75 99 212.25 Q 100 207.75 100.5 205.25 Q 101 202.75 102 198.75 Q 103 194.75 104 191.25 Q 105 187.75 105.5 184.75 Q 106 181.75 107 178.25 Q 108 174.75 109.5 171.25 Q 111 167.75 112 164.25 Q 113 160.75 115 156.75 Q 117 152.75 118.5 149.75 Q 120 146.75 122 143.75 Q 124 140.75 126 137.75 Q 128 134.75 130 131.75 Q 132 128.75 135.5 124.75 Q 139 120.75 141 118.25 Q 143 115.75 145.5 113.75 Q 148 111.75 151 109.25 Q 154 106.75 157 104.25 Q 160 101.75 162.5 99.75 Q 165 97.75 167.5 96.25 Q 170 94.75 174 92.25 Q 178 89.75 181 88.25 Q 184 86.75 187.5 84.75 Q 191 82.75 194.5 81.25 Q 198 79.75 201 78.75 Q 204 77.75 206.5 77.25 Q 209 76.75 215 75.25 Q 221 73.75 225 72.25 Q 229 70.75 232 70.25 Q 235 69.75 240 68.75 Q 245 67.75 248.5 67.25 Q 252 66.75 256.5 66.25 Q 261 65.75 265 65.75 Q 269 65.75 272.5 65.75 Q 276 65.75 279 65.75 Q 282 65.75 285 65.75 Q 288 65.75 292 65.75 Q 296 65.75 303 65.75 Q 310 65.75 315.5 65.75 Q 321 65.75 325.5 66.25 Q 330 66.75 334.5 67.75 Q 339 68.75 342 69.25 Q 345 69.75 348 70.75 Q 351 71.75 354.5 72.75 Q 358 73.75 360 74.75 Q 362 75.75 364 76.75 Q 366 77.75 369 79.75 Q 372 81.75 374 83.25 Q 376 84.75 379.5 87.25 Q 383 89.75 390 93.75 Q 397 97.75 403 101.25 Q 409 104.75 414.5 107.75 Q 420 110.75 426 113.75 Q 432 116.75 437 119.25 Q 442 121.75 446 124.25 Q 450 126.75 452.5 128.75 Q 455 130.75 457 132.25 Q 459 133.75 460.5 134.75 Q 462 135.75 464 137.25 Q 466 138.75 467.5 140.25 Q 469 141.75 469.5 142.75 Q 470 143.75 473 146.25 Q 476 148.75 477.5 151.25 Q 479 153.75 480.5 155.75 Q 482 157.75 483.5 160.75 Q 485 163.75 486 167.25 Q 487 170.75 488.5 173.75 Q 490 176.75 491 180.75 Q 492 184.75 493.5 188.75 Q 495 192.75 496.5 196.75 Q 498 200.75 498.5 204.25 Q 499 207.75 499.5 211.25 Q 500 214.75 501 218.25 Q 502 221.75 502.5 226.75 Q 503 231.75 503.5 235.25 Q 504 238.75 504 241.25 Q 504 243.75 504 246.25 Q 504 248.75 504 251.25 Q 504 253.75 504.5 257.75 Q 505 261.75 505 264.25 Q 505 266.75 505 269.75 Q 505 272.75 505 274.25 Q 505 275.75 505 277.25 L 505 278.775" stroke-linecap="round" />
</g>
<g transform="matrix(0.98 0 0 0.82 206.22 324.79)"  >
<path style="stroke: rgb(0,0,0); stroke-width: 25; stroke-dasharray: none; stroke-linecap: round; stroke-dashoffset: 0; stroke-linejoin: round; stroke-miterlimit: 10; fill: none; fill-rule: nonzero; opacity: 1;"  transform=" translate(-209.5, -330.74)" d="M 101.975 285.725 Q 102 285.75 102.5 286.75 Q 103 287.75 103.5 288.75 Q 104 289.75 105 290.75 Q 106 291.75 107.5 294.25 Q 109 296.75 109.5 298.25 Q 110 299.75 111.5 302.25 Q 113 304.75 114 307.25 Q 115 309.75 116.5 311.75 Q 118 313.75 119 315.75 Q 120 317.75 122.5 320.75 Q 125 323.75 127 326.75 Q 129 329.75 131 331.75 Q 133 333.75 134.5 335.25 Q 136 336.75 140 340.25 Q 144 343.75 146 345.25 Q 148 346.75 150 348.75 Q 152 350.75 155.5 352.25 Q 159 353.75 161.5 355.25 Q 164 356.75 167 358.75 Q 170 360.75 173.5 362.25 Q 177 363.75 180.5 365.25 Q 184 366.75 191.5 368.75 Q 199 370.75 204 371.75 Q 209 372.75 214.5 374.25 Q 220 375.75 225 375.75 Q 230 375.75 235 375.75 Q 240 375.75 245 375.75 Q 250 375.75 255 375.75 Q 260 375.75 265 375.75 Q 270 375.75 274 375.25 Q 278 374.75 283 374.25 Q 288 373.75 291.5 373.25 Q 295 372.75 298 371.75 Q 301 370.75 303 369.75 Q 305 368.75 308 368.25 Q 311 367.75 312.5 366.75 Q 314 365.75 314.5 365.75 Q 315 365.75 316 365.25 L 317.025 364.725" stroke-linecap="round" />
</g>
<g transform="matrix(1 0 0 1 459.49 344.25)"  >
<path style="stroke: rgb(0,0,0); stroke-width: 25; stroke-dasharray: none; stroke-linecap: round; stroke-dashoffset: 0; stroke-linejoin: round; stroke-miterlimit: 10; fill: none; fill-rule: nonzero; opacity: 1;"  transform=" translate(-459.49, -344.25)" d="M 298.975 359.725 Q 299 359.75 299.5 359.75 Q 300 359.75 301.5 360.75 Q 303 361.75 304 362.75 Q 305 363.75 307 365.25 Q 309 366.75 311 367.75 Q 313 368.75 314.5 369.75 Q 316 370.75 317.5 372.25 Q 319 373.75 320.5 374.75 Q 322 375.75 324 376.75 Q 326 377.75 328 379.25 Q 330 380.75 332.5 382.25 Q 335 383.75 338 385.25 Q 341 386.75 344.5 388.25 Q 348 389.75 350.5 391.25 Q 353 392.75 356 393.75 Q 359 394.75 362 396.75 Q 365 398.75 368 399.75 Q 371 400.75 373.5 402.25 Q 376 403.75 379 405.25 Q 382 406.75 384.5 407.75 Q 387 408.75 389.5 409.25 Q 392 409.75 395 411.25 Q 398 412.75 400 413.75 Q 402 414.75 405 415.75 Q 408 416.75 411.5 417.75 Q 415 418.75 416 419.25 Q 417 419.75 421 420.25 Q 425 420.75 426.5 421.25 Q 428 421.75 430.5 422.25 Q 433 422.75 435.5 423.25 Q 438 423.75 440 423.75 Q 442 423.75 444 423.75 Q 446 423.75 449.5 423.75 Q 453 423.75 456.5 423.75 Q 460 423.75 463 423.75 Q 466 423.75 470.5 423.75 Q 475 423.75 478 423.75 Q 481 423.75 485 423.75 Q 489 423.75 494 422.75 Q 499 421.75 502.5 420.75 Q 506 419.75 509.5 418.75 Q 513 417.75 516 416.75 Q 519 415.75 522.5 414.25 Q 526 412.75 529.5 410.75 Q 533 408.75 536 407.25 Q 539 405.75 542.5 403.75 Q 546 401.75 549.5 400.25 Q 553 398.75 554 398.25 Q 555 397.75 562 392.75 Q 569 387.75 572 385.25 Q 575 382.75 578.5 380.25 Q 582 377.75 585.5 374.75 Q 589 371.75 592.5 369.25 Q 596 366.75 599 363.75 Q 602 360.75 604 358.75 Q 606 356.75 608 354.25 Q 610 351.75 611 350.75 Q 612 349.75 614.5 346.25 Q 617 342.75 617.5 340.75 Q 618 338.75 618.5 336.75 Q 619 334.75 619 333.75 Q 619 332.75 619.5 331.25 Q 620 329.75 620 327.75 Q 620 325.75 620 322.75 Q 620 319.75 620 317.75 Q 620 315.75 620 313.75 Q 620 311.75 620 308.75 Q 620 305.75 619.5 304.75 Q 619 303.75 618 301.75 Q 617 299.75 615.5 297.75 Q 614 295.75 612.5 293.25 Q 611 290.75 611 290.25 Q 611 289.75 610 288.75 Q 609 287.75 608.5 287.25 Q 608 286.75 607.5 286.25 Q 607 285.75 606 285.25 Q 605 284.75 603 284.25 Q 601 283.75 600 283.75 Q 599 283.75 598.5 283.25 Q 598 282.75 597 282.25 Q 596 281.75 595.5 281.25 Q 595 280.75 593 280.25 Q 591 279.75 588.5 279.25 Q 586 278.75 584 277.75 Q 582 276.75 578.5 275.75 Q 575 274.75 573.5 274.25 Q 572 273.75 571.5 273.75 Q 571 273.75 570.5 273.75 Q 570 273.75 568 273.25 Q 566 272.75 564.5 271.75 Q 563 270.75 561.5 270.75 Q 560 270.75 558.5 270.25 Q 557 269.75 555 269.25 Q 553 268.75 552.5 268.25 Q 552 267.75 549 267.25 Q 546 266.75 544 266.25 Q 542 265.75 541 265.75 Q 540 265.75 539.5 265.75 Q 539 265.75 538 265.75 Q 537 265.75 536.5 265.25 Q 536 264.75 535 264.75 Q 534 264.75 533.5 264.75 Q 533 264.75 532 264.75 Q 531 264.75 530.5 264.75 Q 530 264.75 529.5 264.75 L 528.975 264.75" stroke-linecap="round" />
</g>
<g transform="matrix(1 0 0 1 403 317.25)"  >
<path style="stroke: rgb(0,0,0); stroke-width: 25; stroke-dasharray: none; stroke-linecap: round; stroke-dashoffset: 0; stroke-linejoin: round; stroke-miterlimit: 10; fill: none; fill-rule: nonzero; opacity: 1;"  transform=" translate(-403, -317.25)" d="M 509.025 276.75 Q 509 276.75 508 277.75 Q 507 278.75 506.5 278.75 Q 506 278.75 504 279.75 Q 502 280.75 500.5 282.25 Q 499 283.75 496 285.75 Q 493 287.75 491.5 288.75 Q 490 289.75 486.5 291.75 Q 483 293.75 481 294.25 Q 479 294.75 477 296.25 Q 475 297.75 472 299.25 Q 469 300.75 467 302.25 Q 465 303.75 459.5 306.75 Q 454 309.75 450.5 311.25 Q 447 312.75 443.5 314.75 Q 440 316.75 438 317.75 Q 436 318.75 428 321.75 Q 420 324.75 416 326.25 Q 412 327.75 408 329.25 Q 404 330.75 400 331.75 Q 396 332.75 392.5 334.75 Q 389 336.75 385 337.75 Q 381 338.75 377 339.75 Q 373 340.75 370 341.25 Q 367 341.75 363 343.25 Q 359 344.75 356 345.75 Q 353 346.75 350.5 347.25 Q 348 347.75 343 349.25 Q 338 350.75 335 351.25 Q 332 351.75 329 352.75 Q 326 353.75 323.5 354.25 Q 321 354.75 318.5 355.25 Q 316 355.75 313.5 355.75 Q 311 355.75 309.5 356.25 Q 308 356.75 307 356.75 Q 306 356.75 304.5 356.75 Q 303 356.75 302.5 357.25 Q 302 357.75 300.5 357.75 Q 299 357.75 298.5 357.75 Q 298 357.75 297.5 357.75 L 296.975 357.75" stroke-linecap="round" />
</g>
<g transform="matrix(1.01 0 0 1.01 246.22 217.97)"  >
<path style="stroke: rgb(0,0,0); stroke-width: 25; stroke-dasharray: none; stroke-linecap: round; stroke-dashoffset: 0; stroke-linejoin: round; stroke-miterlimit: 10; fill: none; fill-rule: nonzero; opacity: 1;"  transform=" translate(-246.99, -217.26)" d="M 164.975 143.75 Q 165 143.75 165.5 143.75 Q 166 143.75 167 143.75 Q 168 143.75 172 143.25 Q 176 142.75 182 142.75 Q 188 142.75 194 142.75 Q 200 142.75 206.5 143.75 Q 213 144.75 219.5 146.75 Q 226 148.75 231 150.25 Q 236 151.75 241.5 153.75 Q 247 155.75 251 158.75 Q 255 161.75 259 164.25 Q 263 166.75 266 169.25 Q 269 171.75 271.5 173.75 Q 274 175.75 277.5 178.25 Q 281 180.75 284 184.25 Q 287 187.75 290 190.25 Q 293 192.75 296 195.75 Q 299 198.75 302 201.25 Q 305 203.75 306 205.25 Q 307 206.75 308 208.25 Q 309 209.75 310 211.25 Q 311 212.75 312.5 215.25 Q 314 217.75 315 219.75 Q 316 221.75 316.5 222.75 Q 317 223.75 318 226.25 Q 319 228.75 320 230.25 Q 321 231.75 321.5 233.75 Q 322 235.75 322.5 238.25 Q 323 240.75 323.5 243.25 Q 324 245.75 324 248.75 Q 324 251.75 324.5 254.75 Q 325 257.75 325.5 260.75 Q 326 263.75 326 266.75 Q 326 269.75 326 273.25 Q 326 276.75 326.5 278.75 Q 327 280.75 327.5 282.75 Q 328 284.75 328 285.75 Q 328 286.75 328 287.25 Q 328 287.75 328.5 288.25 Q 329 288.75 329 289.25 Q 329 289.75 329 290.75 L 329 291.775" stroke-linecap="round" />
</g>
<g transform="matrix(1 0 0 0.89 376.5 165.99)"  >
<path style="stroke: rgb(0,0,0); stroke-width: 25; stroke-dasharray: none; stroke-linecap: round; stroke-dashoffset: 0; stroke-linejoin: round; stroke-miterlimit: 10; fill: none; fill-rule: nonzero; opacity: 1;"  transform=" translate(-376.5, -170.25)" d="M 309.975 196.775 Q 310 196.75 310.5 195.75 Q 311 194.75 312 193.75 Q 313 192.75 314.5 191.25 Q 316 189.75 320 187.25 Q 324 184.75 327 182.75 Q 330 180.75 333.5 178.25 Q 337 175.75 340.5 173.75 Q 344 171.75 348.5 169.75 Q 353 167.75 357.5 166.25 Q 362 164.75 366 162.25 Q 370 159.75 374.5 157.75 Q 379 155.75 384 153.75 Q 389 151.75 394 150.25 Q 399 148.75 403 147.75 Q 407 146.75 411.5 145.75 Q 416 144.75 419 144.75 Q 422 144.75 426 144.75 Q 430 144.75 432.5 144.75 Q 435 144.75 437 144.75 Q 439 144.75 439.5 144.75 Q 440 144.75 440.5 144.75 Q 441 144.75 441.5 144.75 Q 442 144.75 442.5 144.25 L 443.025 143.725" stroke-linecap="round" />
</g>
</svg>