<svg width="500" height="500" xmlns="http://www.w3.org/2000/svg">
 <g id="Layer_1">
  <title>Layer 1</title>
  <path transform="rotate(-2 250.196 252.719)" stroke-width="20" d="m-14.06565,227.50222c0,0 -0.38269,-1.07611 0,-2c0.5412,-1.30655 1.48625,-0.82376 2,-3c0.22975,-0.97324 -0.30745,-2.186 1,-4c0.8269,-1.14728 2.07341,-4.93164 3,-6c3.27602,-3.77728 3.38055,-5.76303 7,-12c1.12234,-1.93399 2.07193,-7.95328 4,-11c3.1181,-4.92722 6.56349,-9.7025 9,-15c2.64276,-5.74594 5.90965,-10.30806 8,-14c2.03145,-3.58792 4.19028,-9.88152 6,-13c3.36703,-5.80199 3.30806,-10.72548 7,-17c2.15157,-3.65662 4.8819,-8.07278 8,-13c1.92807,-3.04672 5.16797,-9.92033 7,-14c2.20607,-4.91257 4.85651,-11.05171 6,-14c3.56139,-9.1824 5.38055,-11.76305 9,-18c1.12234,-1.934 2,-3 2,-4c0,-1 1,-1 1,-2c0,0 1,-1 1,-1c0,0 0.07613,-0.61732 1,-1c1.30656,-0.5412 2.82443,-1.09789 4,-3c0.52573,-0.85065 1,-1 2,-2c0,0 1.82375,-2.48626 4,-3c0.97325,-0.22975 3.07843,-0.78985 6,-2c2.06586,-0.85571 5.797,-2.2565 7,-3c2.69,-1.66251 4.93414,-2.14429 7,-3c2.92157,-1.21015 3.94342,-1.14773 9,-3c2.96933,-1.08769 7.133,-1.5695 11,-3c4.19434,-1.55159 7.80566,-3.44841 12,-5c3.867,-1.4305 7,-2 10,-3c3,-1 6.97736,-2.09544 11,-3c4.97479,-1.11866 10.03873,-2.51945 13,-3c3.12143,-0.50654 5.88153,-2.19028 9,-4c1.93399,-1.12234 4.66891,-2.62022 8,-4c4.71088,-1.95131 10.93414,-4.14429 13,-5c2.92157,-1.21015 6.82443,-1.09789 8,-3c0.52573,-0.85065 1,-1 1,-1c1,-1 0.29291,-0.70711 1,0c0.70709,0.70711 1,0 2,1c0,0 0.29291,0.29289 1,1c0.70709,0.70711 2,0 2,1c0,0 1,1 2,2c1,1 5.48691,2.08052 8,4c2.86536,2.18855 4.89246,5.11366 7,7c4.77115,4.27038 6.13202,4.75532 10,7c3.11847,1.80972 8.39099,4.76951 12,7c2.69,1.66251 4.71201,2.98163 10,4c1.9639,0.37821 5.0535,0.5405 7,1c2.17624,0.51374 7.87857,1.49346 11,2c3.94836,0.64073 10,0 14,0c4,0 11.03748,0.61092 16,0c4.09222,-0.50378 9.22836,-1.85195 12,-3c3.91968,-1.62359 7.05664,-5.91753 10,-8c4.0817,-2.88786 6.20682,-4.81266 8,-7c2.28589,-2.78832 4.69254,-6.186 6,-8c0.8269,-1.14727 1.29291,-2.29289 2,-3c0.70709,-0.70711 1,-1 1,-1c0,0 0,-1 1,-1c0,0 0.07611,-0.38268 1,0c1.30658,0.5412 2,1 5,2c3,1 7.86829,3.28859 12,5c5.84314,2.4203 10.94299,5.11835 15,7c6.90887,3.20432 15.39783,5.06474 21,8c4.42889,2.32053 10.81403,6.54893 16,8c5.85779,1.63903 10.21515,2.36079 17,5c4.16791,1.62125 6,2 9,3c0,0 4,1 4,1c2,1 4,1 4,1c2,1 1.69342,1.4588 3,2c0.92389,0.38268 1,0 2,0c0,0 1.07611,0.61732 2,1c1.30658,0.5412 2,1 3,1c0,0 -0.38269,0.07612 0,1c0.5412,1.30656 2.34619,2.70546 4,5c1.30743,1.814 1.28857,4.86829 3,9c1.21014,2.92157 2.27429,5.88496 3,8c1.65485,4.82303 3.91229,10.03067 5,13c1.85229,5.05659 3.44843,8.80565 5,13c1.43048,3.867 3,8 4,12c1,4 1.22803,5.2771 3,9c2.14886,4.51469 4,9 5,13c1,4 3.11584,8.96384 4,12c1.15277,3.95868 1.69122,9.07179 3,14c0.81165,3.05634 2.54047,9.0535 3,11c0.51373,2.17625 2,4 2,6c0,1 1.48627,2.82375 2,5c0.45953,1.9465 1.28857,3.86829 3,8c1.21014,2.92157 3.05945,6.6976 4,12c5.94073,33.49191 -5.37201,36.3851 -9,39c-2.29456,1.65381 -6.65082,5.67914 -12,8c-6.67859,2.89764 -17.12701,6.67862 -20,8c-5.29749,2.43649 -7.88153,5.19028 -11,7c-1.93402,1.12234 -6.177,2.34518 -11,4c-4.2301,1.45139 -7,3 -9,4c-2,1 -2.37537,1.94003 -8,5c-5.5556,3.0224 -11.80566,5.44839 -16,7c-3.867,1.43048 -7.69342,3.4588 -9,4c-0.92389,0.38269 -0.52814,-0.11832 -1,-1c-1.70129,-3.17892 -6.21814,-4.84921 -11,-12c-5.2442,-7.8421 -8.76379,-14.14557 -15,-24c-5.78418,-9.1402 -11,-18 -17,-28c-3,-5 -5.19031,-8.88153 -7,-12c-1.12231,-1.93399 -2.95514,-4.54916 -4,-8c-0.57959,-1.91418 -2.23773,-6.93097 -3,-10c-1.46625,-5.9034 -3,-9 -3,-11c0,-1 -2,-2 -2,-2c0,1 0.16498,3.00682 0,5c-0.50171,6.06204 -1.5253,11.08443 -3,18c-1.51831,7.12003 -3,18 -3,24c0,7 0,13 -1,20c-1,7 -1.49829,12.93796 -2,19c-0.49487,5.97955 -0.65131,13.0087 -1,20c-0.50061,10.03738 -2,29 -2,42c0,15 -0.49963,25.97119 -1,39c-0.46051,11.99115 0,25 0,35c0,14 0,25 0,39c0,7 0,12 0,13c0,1 0,2 0,4c0,1 0.48056,2.03876 0,5c-0.50653,3.12146 -1.9725,7.64752 -3,12c-0.91901,3.89301 0,7 0,7c0,1 -1,2 -1,2c-1,0 -2,1 -4,1c-3,0 -8,1 -13,1c-12,0 -20,0 -30,0c-9,0 -21,0 -33,0c-13,0 -27.04727,0.49237 -40,-1c-13.0665,-1.50549 -23.16827,-4.48755 -33,-8c-12.24222,-4.3736 -20.14053,-7.56122 -27,-10c-7.17575,-2.55121 -14.1113,-5.64502 -21,-8c-5.09564,-1.742 -9.17697,-3.34515 -14,-5c-4.23007,-1.45135 -6,-3 -7,-3c-1,0 -3,-1 -4,-1c-1,0 -2,-1 -3,-1c-1,0 -2,0 -4,0c-1,0 -1,-1 -2,-1c-1,0 -1,0 -2,0c0,0 -1,0 -4,-1c-3,-1 -4.82375,-1.48627 -7,-2c-0.97325,-0.22977 -4.15224,-0.23462 -6,-1c-1.30656,-0.5412 -1,-1 -1,-1c0,0 0,-1 0,-1c-1,-1 -1.29561,-5.01459 -1,-8c0.50244,-5.07422 3.89117,-10.82605 6,-24c1.74586,-10.90649 2.53207,-22.10507 5,-32c2.52655,-10.12997 5,-19 8,-30c3,-11 5.08093,-20.9856 7,-32c2.08817,-11.98499 3.55682,-25.06165 6,-41c1.69403,-11.05127 4.85956,-21.01672 6,-30c0.89053,-7.01477 3.29849,-14.08649 5,-25c1.42026,-9.1095 4,-19 6,-28c2,-9 2.03891,-20.07747 3,-26c0.50653,-3.12144 1,-5 1,-6c0,0 0,-1 0,-1c0,-1 0.4588,-1.69344 1,-3c0.38269,-0.92387 0,-4 1,-6c0,0 0,0 -1,1c0,0 0,0 -1,1c0,0 -1.1731,0.85274 -2,2c-1.30746,1.814 -4.52222,4.38074 -7,7c-3.43607,3.63226 -7.1731,5.85274 -8,7c-1.30746,1.814 -2,3 -3,4c-4,4 -6.43967,7.43625 -12,14c-4.57056,5.39537 -7,8 -10,11c-1,1 -2.10341,1.90634 -3,3c-2.28587,2.78833 -5.69238,6.41092 -9,11c-1.30745,1.814 -4.86325,6.14682 -7,8c-3.77727,3.276 -9,8 -11,10c-3,3 -7,8 -11,12c-4,4 -6,7 -7,8c-1,1 -2.34619,1.70547 -4,4c-1.30745,1.814 -2,2 -2,2c0,0 0,0 -1,0c0,0 0,0 -1,0c0,0 -1.07613,-0.61731 -2,-1c-2.61313,-1.0824 -4.18536,-3.82285 -8,-8c-5.26675,-5.76727 -6.69255,-9.186 -8,-11c-2.48071,-3.4418 -2.87766,-4.06601 -4,-6c-1.80972,-3.11847 -3.69255,-7.186 -5,-9c-0.8269,-1.14728 -2,-3 -2,-3c-1,-1 -2,-2 -2,-2c-1,-1 -1,-2 -2,-2c0,0 0,-1 -1,-1c0,0 0,0 0,0c-1,-1 -1,-1 -2,-1c0,0 0,0 0,-1c0,0 -1,0 -1,0c0,0 -1,-1 -1,-1c0,0 -1,-1 -1,-1l-1,0" id="svg_3" stroke="#f700ff" fill="none"/>
  <path stroke-width="20" d="m185.0061,133.50222c0,0 1,0 1,2c0,1 0,1 0,4c0,1 0,2 0,4c0,2 0,5 0,8c0,1 0,2 0,3c0,1 -1,1 -1,2c0,1 0,3 0,4c0,1 0,2 0,3c0,2 0,3 0,4c0,1 0,2 0,4c0,1 0,2 0,4c0,1 0,2 0,3l0,0" id="svg_4" stroke="#f700ff" fill="none"/>
  <path d="m272.0061,133.50222c1,1 1,1 1,2c0,1 1,2 1,4c0,3 0,6 0,7c0,2 0.4588,3.69344 1,5c1.53073,3.69551 0,8 0,10c0,2 -0.41422,4.58578 1,6c0.70709,0.70711 1,1 1,1c0,0 0,1 0,3c0,1 0,2 0,3c0,0 0,0 0,1c0,0 0,1 0,1c0,0 0,0 0,1l0,0" id="svg_5" stroke-width="20" stroke="#f700ff" fill="none"/>
  <path d="m149.0061,272.50222c0,0 0.4588,0.69345 1,2c0.38269,0.92389 1,3 2,5c1,2 2.51929,3.5582 5,7c1.30746,1.814 3.51929,5.5582 6,9c1.30746,1.814 7.31,7.33749 10,9c1.203,0.7435 3.81265,3.20682 6,5c2.78833,2.28589 5.88531,3.12967 7,4c4.59598,3.58844 7.01291,3.83981 8,4c3.12143,0.50653 4.97925,2.09586 14,4c4.98907,1.05313 10.05164,1.35928 14,2c3.12143,0.50653 6,1 7,1c1,0 2,0 4,0c0,0 4.22836,0.14804 7,-1c2.61313,-1.0824 4.93414,-4.14429 7,-5c2.92157,-1.21014 5.06601,-3.87766 7,-5c3.11847,-1.80972 8,-6 11,-8c3,-2 5,-4 7,-6c2,-2 4,-4 5,-5c1,-1 1.69254,-2.186 3,-4c0.8269,-1.14728 2,-2 3,-3c0,0 0.29291,-2.29291 1,-3c0.70709,-0.70709 1,-1 1,-1c1,-1 1,-3 1,-3l1,-1" id="svg_6" stroke-width="20" stroke="#f700ff" fill="none"/>
 </g>

</svg>