<svg width="800" height="600" xmlns="http://www.w3.org/2000/svg">
 <g id="Layer_1">
  <title>Layer 1</title>
  <path stroke-width="20" d="m286,261.5c0,1 -0.48874,2.02997 0,6c0.50378,4.09222 3,11 3,22c0,11 1,23 1,39c0,20 0,34 0,49c0,13 0,26 0,40c0,13 0,25 0,37c0,11 0,23 0,35c0,11 0,21 0,28c0,7 0,12 0,16c0,6 1,10 1,13c0,3 0,4 0,6c0,1 0,2 0,2c1,0 2.00751,0.12219 3,0c4.09222,-0.50378 11,-1 16,-1c10,0 20.98416,0.16534 41,2c11.99133,1.09912 24.95007,3.41907 40,5c12.96707,1.36212 24,1 37,1c11,0 23.96597,0.49951 35,1c9.98972,0.45313 20,0 29,0c12,0 20,0 26,0c5,0 6.15222,-0.76538 8,0c1.30658,0.5412 2,1 4,1c3,0 7.58582,2.41418 9,1c0.70709,-0.70709 -1,-7 -1,-10c0,-2 0,-7 0,-13c0,-9 0.66559,-19.01105 0,-39c-0.50031,-15.02496 -2.49969,-27.97504 -3,-43c-0.39935,-11.99335 0,-26 -1,-40c-1,-14 -1.9549,-27.00385 -3,-39c-0.95862,-11.00369 -1.49939,-19.96262 -2,-30c-0.59778,-11.98511 -0.49829,-17.93796 -1,-24c-0.3299,-3.98636 0,-10 0,-18c0,-3 0,-7 0,-33c0,-4 0,-7 0,-10c0,-2 0,-2 0,-3c0,-1 0,-3 0,-6c0,-4 0,-5 0,-6c0,0 0,1 0,2c0,3 0.34314,5.87604 2,11c2.53711,7.84622 5.37317,14.86984 8,23c3.50543,10.84952 7.88177,21.0271 10,30c2.84186,12.03842 6.04578,20.98599 10,34c3.03522,9.98938 6.34686,16.92987 8,26c1.26788,6.95648 3.98694,11.75711 5,18c0.8009,4.93542 3.41479,11.90759 5,20c2.71857,13.87839 1.7085,17.39902 6,29c0.77582,2.09717 2.17963,12.97668 3,20c1.28143,10.97076 2.49921,17.95847 3,27c0.33179,5.99081 0,11 0,15c0,5 0,10 0,13c0,2 0,3 0,4c0,1 -0.70709,1.70709 0,1c1.41418,-1.41418 4.05798,-0.16779 10,-1c7.20972,-1.00977 14.96259,-2.49939 25,-3c8.98883,-0.4483 18,0 26,0c4,0 5,0 6,0c0,0 0,-1 0,-1c0,-1 0,-2 0,-3c0,-6 0.42535,-10.01511 0,-16c-0.50128,-7.05328 -2.51276,-17.06079 -4,-27c-1.50916,-10.08575 -3,-22 -3,-34c0,-14 -1,-20 -1,-37c0,-12 -0.66199,-22.00952 -1,-28c-3.00476,-53.25385 -8.7326,-64.06363 -11,-73c-1.79041,-7.05652 -5.38348,-14.37411 -8,-22c-2.2948,-6.68832 -4.63892,-12.7424 -8,-22c-2.48444,-6.84306 -6.40619,-16.78304 -10,-24c-3.39478,-6.81729 -8,-20 -11,-26c-2,-4 -6,-11 -7,-14c-1,-3 -3.48627,-4.82375 -4,-7c-1.14874,-4.86624 -2,-7 -2,-8c0,0 -1.16052,1.37852 -7,0c-2.17627,-0.51375 -11.76471,-3.57811 -21,-7c-9.78992,-3.6274 -15.97168,-4.09151 -32,-9c-9.98267,-3.0571 -17.90326,-6.38042 -29,-9c-4.96262,-1.17151 -11,-3 -15,-4c-4,-1 -6,-1 -8,-1c-1,0 -2,0 -3,0c0,0 0,0 -1,0c-1,0 -3,0 -4,0c0,0 -0.4588,0.30656 -1,-1c-0.38269,-0.92387 -1.32144,-2.80901 -3,-6c-2.50705,-4.76599 -3.82462,-11.06134 -6,-17c-1.85226,-5.05659 -4.49295,-10.23401 -7,-15c-1.67856,-3.19099 -2,-5 -2,-6c0,0 -0.4588,0.30656 -1,-1c-0.76538,-1.84776 0,-2 0,-3c0,-1 0,-1 0,-1c0,-1 0,-1 -1,-1c-1,0 -7.01703,0.4124 -12,0c-6.06204,-0.50171 -14.84341,-3.66457 -22,-5c-10.85794,-2.02611 -17.00504,-0.85822 -19,-1c-7.05328,-0.50126 -15,-2 -19,-2c-4,0 -8,0 -11,0c-2,0 -2,0 -2,0c-1,1 -2.48663,2.72743 -4,6c-3.05569,6.60777 -3.43268,11.05413 -4,14c-1.01837,5.28799 -3.11588,9.96384 -4,13c-1.15277,3.95868 -0.51944,6.03873 -1,9c-0.50653,3.12144 -1.41589,3.76108 -3,7c-1.38934,2.84073 -1.85196,7.22836 -3,10c-0.5412,1.30656 -1,1 -1,1c0,1 0,1 0,1c0,0 -1.01291,0.83981 -2,1c-3.12143,0.50655 -7.03873,3.51945 -10,4c-3.12143,0.50655 -6.82376,2.48625 -9,3c-1.9465,0.4595 -5.85272,2.1731 -7,3c-3.62799,2.6149 -6.72696,3.74106 -14,6c-4.86957,1.51244 -11.10699,2.08099 -15,3c-4.35251,1.02748 -8.15225,2.23463 -10,3c-1.30655,0.5412 -2.07611,0.61731 -3,1c-1.30655,0.5412 -1.87857,1.49345 -5,2c-1.97418,0.32036 -1.71201,1.98163 -7,3c-0.98196,0.1891 -1,0 -1,0c-1,0 -2,0 -3,1c0,0 -0.69344,0.4588 -2,1c-0.92387,0.38269 -2,0 -3,1c0,0 -1,0 -1,0c-1,0 -1.29289,0.29289 -2,1c-0.70711,0.70711 -3,0 -3,0c-1,0 -3.39012,2.78078 -10,15c-5.31949,9.83377 -9.85075,21.08455 -15,30c-5.83257,10.09857 -10.49446,18.73976 -14,26c-4.68304,9.69891 -9.18271,21.91122 -13,30c-4.20335,8.90683 -8.17941,18.91867 -14,32c-3.09602,6.95807 -4.3754,16.1181 -6,23c-1.45308,6.15536 -3.867,11.03442 -6,19c-1.8831,7.03235 -4.05446,13.97855 -6,19c-3.08676,7.96692 -6.19623,17.93695 -9,27c-2.1516,6.9549 -3.79393,14.08743 -6,19c-3.66408,8.15933 -6.88928,15.03806 -9,21c-2.85141,8.05417 -6,15 -8,21c-2,6 -2.85195,9.22836 -4,12c-0.5412,1.30655 -1.5405,3.0535 -2,5c-0.51374,2.17624 -1.83982,7.01291 -2,8c-0.50654,3.12143 -1.23463,5.15225 -2,7c-0.5412,1.30655 -0.31074,2.08026 -1,5c-0.51374,2.17624 -1.4588,2.69345 -2,4c-0.38268,0.92389 0,2 0,4c0,0 0,0 0,1c0,0 -0.70711,0.29291 0,1c0.70711,0.70709 2.22273,0.724 6,4c4.27349,3.70636 10.74184,9.32715 17,14c8.66713,6.47156 15.02875,10.24915 25,17c3.70323,2.5072 8.59399,5.513 11,7c2.68999,1.66254 7.07843,2.78986 10,4c2.06586,0.85571 3.69344,3.5412 5,3c0.92387,-0.38269 -1,-1 -1,-6c0,-8 0,-15 0,-24c0,-6 -0.54558,-14.02985 0,-19c1.00601,-9.16449 7,-26 9,-40c2,-14 5.52274,-26.08936 8,-38c2.51875,-12.11017 6,-26 10,-40c2,-7 3.36079,-16.21512 6,-23c3.24251,-8.33585 8.17946,-18.46591 13,-26c3.45099,-5.39359 7.68564,-14.22192 12,-20c4.67282,-6.25818 8.14388,-12.90656 12,-19c3.1181,-4.92722 5.31021,-7.71899 8,-11c2.28589,-2.78833 6.513,-8.59399 8,-11c1.66251,-2.69 5.11215,-5.9183 8,-10c2.08246,-2.94336 3.77023,-4.02676 4,-5c0.51373,-2.17624 2,-3 2,-4l0,0" id="svg_1" stroke="#000" fill="none"/>
  <path stroke-width="20" d="m396,279.5c0,0 0,-1 0,-1c0,-2 0,-6 0,-12c0,-4 0,-7 0,-14c0,-4 0,-7 0,-12c0,-3 0,-5 0,-6c0,-4 0.49347,-8.87856 1,-12c0.16019,-0.98709 1,-4 1,-7c0,-2 1.49347,-6.87856 2,-10c0.32037,-1.97418 0.73209,-10.04353 2,-17c1.65314,-9.07013 3.67007,-15.01363 4,-19c0.50171,-6.06204 1,-7 1,-9c0,-2 0,-3 0,-4c0,-1 0,-2 0,-3c0,-1 -0.34619,-1.70546 -2,-4c-1.30746,-1.814 -2.23462,-5.15224 -3,-7c-0.5412,-1.30656 -2.48627,-3.82375 -3,-6c-0.4595,-1.9465 -1.4588,-3.69344 -2,-5c-0.76538,-1.84776 0,-3 0,-4c0,0 0,-1 0,-3c0,-1 0,-2 0,-4c0,-2 0,-2 0,-4c0,-1 0,-3 0,-4c0,0 0,-2 0,-2c0,-1 0,-1 0,-1c0,-1 0,-1 1,-2c0,0 0,-1 0,-2c0,0 0,0 0,-1c0,-1 1,-2 1,-3c0,0 0,0 0,-1c0,0 0,-1 0,-1c0,0 0,-1 0,-2c0,0 0,0 0,-1l0,0l0,0" id="svg_2" stroke="#000" fill="none"/>
 </g>
</svg>