<?xml version="1.0" encoding="UTF-8" standalone="no" ?>
<!DOCTYPE svg PUBLIC "-//W3C//DTD SVG 1.1//EN" "http://www.w3.org/Graphics/SVG/1.1/DTD/svg11.dtd">
<svg xmlns="http://www.w3.org/2000/svg" xmlns:xlink="http://www.w3.org/1999/xlink" version="1.1" width="640" height="480" viewBox="0 0 640 480" xml:space="preserve">
<desc>Created with Fabric.js 3.6.6</desc>
<defs>
</defs>
<g transform="matrix(1 0 0 1 322.5 243.25)"  >
<path style="stroke: rgb(0,0,0); stroke-width: 25; stroke-dasharray: none; stroke-linecap: round; stroke-dashoffset: 0; stroke-linejoin: round; stroke-miterlimit: 10; fill: none; fill-rule: nonzero; opacity: 1;"  transform=" translate(-322.5, -243.25)" d="M 171.475 108.775 Q 171.5 108.75 172 108.25 Q 172.5 107.75 174 107.25 Q 175.5 106.75 176 106.25 Q 176.5 105.75 179 105.75 Q 181.5 105.75 183 105.25 Q 184.5 104.75 185.5 104.25 Q 186.5 103.75 189 103.25 Q 191.5 102.75 193.5 102.25 Q 195.5 101.75 196.5 101.25 Q 197.5 100.75 199 99.75 Q 200.5 98.75 201.5 98.75 Q 202.5 98.75 203 98.75 Q 203.5 98.75 205 97.75 Q 206.5 96.75 207.5 96.75 Q 208.5 96.75 209.5 95.75 Q 210.5 94.75 212 94.25 Q 213.5 93.75 215.5 92.75 Q 217.5 91.75 219.5 91.75 Q 221.5 91.75 222.5 91.25 Q 223.5 90.75 224.5 90.25 Q 225.5 89.75 226 89.75 Q 226.5 89.75 228.5 89.25 Q 230.5 88.75 231 88.75 Q 231.5 88.75 233.5 88.75 Q 235.5 88.75 237.5 88.75 Q 239.5 88.75 241.5 88.75 Q 243.5 88.75 244 88.75 Q 244.5 88.75 245 88.75 Q 245.5 88.75 246 88.75 Q 246.5 88.75 247 88.25 Q 247.5 87.75 248 87.75 Q 248.5 87.75 250 87.75 Q 251.5 87.75 252.5 87.75 Q 253.5 87.75 254 87.75 Q 254.5 87.75 255 87.25 Q 255.5 86.75 255.5 86.25 Q 255.5 85.75 255.5 85.25 Q 255.5 84.75 255 82.75 Q 254.5 80.75 254 78.75 Q 253.5 76.75 253 73.25 Q 252.5 69.75 251 66.25 Q 249.5 62.75 249 59.75 Q 248.5 56.75 248.5 55.25 Q 248.5 53.75 248 51.25 Q 247.5 48.75 247.5 47.25 Q 247.5 45.75 247 44.75 Q 246.5 43.75 246.5 42.75 Q 246.5 41.75 246.5 41.25 Q 246.5 40.75 246.5 39.75 Q 246.5 38.75 246.5 37.25 Q 246.5 35.75 246.5 34.75 Q 246.5 33.75 246.5 31.75 Q 246.5 29.75 247 28.75 Q 247.5 27.75 247.5 27.25 Q 247.5 26.75 248.5 26.75 Q 249.5 26.75 250 26.75 Q 250.5 26.75 251 26.75 Q 251.5 26.75 252.5 26.75 Q 253.5 26.75 254 26.75 Q 254.5 26.75 255 26.75 Q 255.5 26.75 257 26.75 Q 258.5 26.75 260 26.75 Q 261.5 26.75 262.5 26.75 Q 263.5 26.75 266 26.75 Q 268.5 26.75 270.5 26.75 Q 272.5 26.75 275 26.75 Q 277.5 26.75 280 27.25 Q 282.5 27.75 285.5 27.75 Q 288.5 27.75 292 28.25 Q 295.5 28.75 298 28.75 Q 300.5 28.75 304 28.75 Q 307.5 28.75 310.5 29.25 Q 313.5 29.75 316.5 29.75 Q 319.5 29.75 323.5 30.25 Q 327.5 30.75 329.5 30.75 Q 331.5 30.75 333 31.25 Q 334.5 31.75 336 31.75 Q 337.5 31.75 339 31.75 Q 340.5 31.75 342.5 31.75 Q 344.5 31.75 346.5 31.75 Q 348.5 31.75 352.5 31.75 Q 356.5 31.75 359 31.75 Q 361.5 31.75 363 31.75 Q 364.5 31.75 367 31.75 Q 369.5 31.75 371 31.25 Q 372.5 30.75 373.5 30.25 Q 374.5 29.75 376 29.25 Q 377.5 28.75 379 27.75 Q 380.5 26.75 381 26.75 Q 381.5 26.75 382 26.75 Q 382.5 26.75 383.5 26.75 Q 384.5 26.75 385.5 26.25 Q 386.5 25.75 387.5 25.75 Q 388.5 25.75 389 25.75 Q 389.5 25.75 390 25.75 Q 390.5 25.75 390.5 26.25 Q 390.5 26.75 390.5 27.75 Q 390.5 28.75 390.5 29.25 Q 390.5 29.75 391 30.25 Q 391.5 30.75 391.5 31.25 Q 391.5 31.75 391.5 32.75 Q 391.5 33.75 391.5 34.25 Q 391.5 34.75 391.5 36.25 Q 391.5 37.75 391.5 38.75 Q 391.5 39.75 391.5 41.25 Q 391.5 42.75 391.5 44.25 Q 391.5 45.75 391.5 47.25 Q 391.5 48.75 391.5 49.75 Q 391.5 50.75 391.5 52.25 Q 391.5 53.75 391.5 55.75 Q 391.5 57.75 391.5 58.75 Q 391.5 59.75 391.5 62.25 Q 391.5 64.75 391.5 66.75 Q 391.5 68.75 391.5 71.25 Q 391.5 73.75 391.5 74.75 Q 391.5 75.75 391.5 77.75 Q 391.5 79.75 392 79.75 Q 392.5 79.75 392.5 80.25 Q 392.5 80.75 392.5 81.25 Q 392.5 81.75 392.5 82.25 Q 392.5 82.75 392.5 83.25 Q 392.5 83.75 392.5 84.25 Q 392.5 84.75 392.5 85.75 Q 392.5 86.75 392.5 87.25 Q 392.5 87.75 392.5 88.25 Q 392.5 88.75 393 88.75 Q 393.5 88.75 394 88.75 Q 394.5 88.75 395 88.75 Q 395.5 88.75 396 88.75 Q 396.5 88.75 398 88.75 Q 399.5 88.75 401 88.75 Q 402.5 88.75 404 88.75 Q 405.5 88.75 407.5 88.75 Q 409.5 88.75 412.5 88.75 Q 415.5 88.75 418 88.75 Q 420.5 88.75 424.5 88.75 Q 428.5 88.75 431 88.75 Q 433.5 88.75 436.5 88.75 Q 439.5 88.75 441.5 88.75 Q 443.5 88.75 446.5 88.75 Q 449.5 88.75 452.5 88.75 Q 455.5 88.75 457 88.75 Q 458.5 88.75 461.5 88.75 Q 464.5 88.75 467.5 88.75 Q 470.5 88.75 471.5 88.75 Q 472.5 88.75 475.5 89.25 Q 478.5 89.75 480 90.25 Q 481.5 90.75 482 90.75 Q 482.5 90.75 483 90.75 Q 483.5 90.75 484 90.75 Q 484.5 90.75 485 91.25 Q 485.5 91.75 486 91.75 Q 486.5 91.75 487.5 92.75 Q 488.5 93.75 490.5 96.25 Q 492.5 98.75 495 101.75 Q 497.5 104.75 499.5 107.75 Q 501.5 110.75 504 113.75 Q 506.5 116.75 508.5 119.75 Q 510.5 122.75 512 125.25 Q 513.5 127.75 515.5 130.25 Q 517.5 132.75 518.5 134.75 Q 519.5 136.75 521 139.25 Q 522.5 141.75 524 144.25 Q 525.5 146.75 526.5 148.25 Q 527.5 149.75 528.5 151.75 Q 529.5 153.75 530.5 156.75 Q 531.5 159.75 534 162.75 Q 536.5 165.75 538.5 169.75 Q 540.5 173.75 542.5 178.25 Q 544.5 182.75 546.5 186.75 Q 548.5 190.75 550 194.25 Q 551.5 197.75 553.5 201.75 Q 555.5 205.75 558 210.25 Q 560.5 214.75 561.5 217.75 Q 562.5 220.75 564.5 225.25 Q 566.5 229.75 567 231.75 Q 567.5 233.75 568 236.25 Q 568.5 238.75 569 241.25 Q 569.5 243.75 570.5 246.25 Q 571.5 248.75 572 250.75 Q 572.5 252.75 573 255.25 Q 573.5 257.75 574 260.75 Q 574.5 263.75 575.5 267.25 Q 576.5 270.75 577.5 274.25 Q 578.5 277.75 579 280.25 Q 579.5 282.75 580.5 286.25 Q 581.5 289.75 582.5 292.75 Q 583.5 295.75 584.5 299.75 Q 585.5 303.75 586 304.75 Q 586.5 305.75 587.5 308.25 Q 588.5 310.75 588.5 311.75 Q 588.5 312.75 589 315.25 Q 589.5 317.75 589.5 319.75 Q 589.5 321.75 590 324.75 Q 590.5 327.75 591 329.25 Q 591.5 330.75 592 332.75 Q 592.5 334.75 592.5 335.75 Q 592.5 336.75 592.5 337.25 Q 592.5 337.75 593 339.25 Q 593.5 340.75 593.5 341.75 Q 593.5 342.75 593.5 344.25 Q 593.5 345.75 593.5 346.25 Q 593.5 346.75 593.5 347.25 Q 593.5 347.75 594 348.75 Q 594.5 349.75 594.5 350.25 Q 594.5 350.75 594.5 351.25 Q 594.5 351.75 594 352.25 Q 593.5 352.75 593 353.25 Q 592.5 353.75 590.5 354.25 Q 588.5 354.75 586.5 355.75 Q 584.5 356.75 582.5 357.25 Q 580.5 357.75 579 358.25 Q 577.5 358.75 575 359.75 Q 572.5 360.75 571 360.75 Q 569.5 360.75 568 361.25 Q 566.5 361.75 564.5 362.25 Q 562.5 362.75 560.5 363.75 Q 558.5 364.75 557.5 364.75 Q 556.5 364.75 554.5 365.75 Q 552.5 366.75 551.5 366.75 Q 550.5 366.75 546.5 368.25 Q 542.5 369.75 540 370.75 Q 537.5 371.75 537 371.75 Q 536.5 371.75 528 376.25 Q 519.5 380.75 518.5 381.25 Q 517.5 381.75 517 382.25 Q 516.5 382.75 516 382.75 Q 515.5 382.75 515 383.25 Q 514.5 383.75 514 384.25 Q 513.5 384.75 513 384.75 Q 512.5 384.75 512 384.25 Q 511.5 383.75 511.5 383.25 Q 511.5 382.75 507 377.75 Q 502.5 372.75 499 369.75 Q 495.5 366.75 493.5 363.75 Q 491.5 360.75 489 357.75 Q 486.5 354.75 485 352.25 Q 483.5 349.75 482 347.25 Q 480.5 344.75 478.5 340.75 Q 476.5 336.75 475.5 334.75 Q 474.5 332.75 471.5 327.25 Q 468.5 321.75 467.5 319.25 Q 466.5 316.75 465.5 314.25 Q 464.5 311.75 463 308.75 Q 461.5 305.75 461 305.25 Q 460.5 304.75 459 302.25 Q 457.5 299.75 455.5 296.25 Q 453.5 292.75 452.5 290.75 Q 451.5 288.75 450.5 286.75 Q 449.5 284.75 449 283.25 Q 448.5 281.75 448 281.25 Q 447.5 280.75 447 277.75 Q 446.5 274.75 445.5 273.25 Q 444.5 271.75 444 269.75 Q 443.5 267.75 443 266.75 Q 442.5 265.75 441.5 263.75 Q 440.5 261.75 440 259.75 Q 439.5 257.75 439 255.75 Q 438.5 253.75 437.5 251.75 Q 436.5 249.75 436.5 248.25 Q 436.5 246.75 436 245.75 Q 435.5 244.75 435.5 244.25 Q 435.5 243.75 435.5 242.25 Q 435.5 240.75 435 238.75 Q 434.5 236.75 434.5 236.25 Q 434.5 235.75 434.5 236.25 Q 434.5 236.75 434.5 237.75 Q 434.5 238.75 435 239.75 Q 435.5 240.75 435.5 241.25 Q 435.5 241.75 435.5 242.75 Q 435.5 243.75 435.5 245.25 Q 435.5 246.75 437 252.25 Q 438.5 257.75 438.5 261.25 Q 438.5 264.75 439 269.75 Q 439.5 274.75 440 279.75 Q 440.5 284.75 441 287.75 Q 441.5 290.75 441.5 295.25 Q 441.5 299.75 441.5 303.25 Q 441.5 306.75 441.5 310.25 Q 441.5 313.75 441.5 318.25 Q 441.5 322.75 441.5 326.25 Q 441.5 329.75 441.5 333.75 Q 441.5 337.75 441.5 343.75 Q 441.5 349.75 441.5 352.75 Q 441.5 355.75 441.5 359.75 Q 441.5 363.75 441.5 368.75 Q 441.5 373.75 441.5 378.25 Q 441.5 382.75 441.5 388.25 Q 441.5 393.75 441.5 397.75 Q 441.5 401.75 441.5 405.75 Q 441.5 409.75 441.5 413.75 Q 441.5 417.75 441.5 420.25 Q 441.5 422.75 441.5 424.75 Q 441.5 426.75 441.5 431.25 Q 441.5 435.75 441.5 436.75 Q 441.5 437.75 441.5 441.25 Q 441.5 444.75 441.5 448.75 Q 441.5 452.75 441.5 454.75 Q 441.5 456.75 441.5 457.75 Q 441.5 458.75 441.5 459.25 Q 441.5 459.75 441.5 460.25 Q 441.5 460.75 441 460.75 Q 440.5 460.75 439 460.75 Q 437.5 460.75 434 460.75 Q 430.5 460.75 427 460.75 Q 423.5 460.75 420.5 460.75 Q 417.5 460.75 413.5 460.75 Q 409.5 460.75 408 460.75 Q 406.5 460.75 403.5 460.75 Q 400.5 460.75 398 460.75 Q 395.5 460.75 392 460.75 Q 388.5 460.75 386 460.75 Q 383.5 460.75 380 460.75 Q 376.5 460.75 373.5 460.75 Q 370.5 460.75 367 460.75 Q 363.5 460.75 360 460.75 Q 356.5 460.75 353 460.75 Q 349.5 460.75 346 460.75 Q 342.5 460.75 338.5 460.75 Q 334.5 460.75 330.5 460.75 Q 326.5 460.75 322 460.75 Q 317.5 460.75 312 460.75 Q 306.5 460.75 300.5 460.75 Q 294.5 460.75 290 460.75 Q 285.5 460.75 281.5 460.75 Q 277.5 460.75 273.5 460.75 Q 269.5 460.75 265.5 460.25 Q 261.5 459.75 259 459.25 Q 256.5 458.75 252.5 457.75 Q 248.5 456.75 245.5 456.25 Q 242.5 455.75 239.5 455.75 Q 236.5 455.75 234 455.25 Q 231.5 454.75 229 454.75 Q 226.5 454.75 223 453.75 Q 219.5 452.75 218 452.75 Q 216.5 452.75 214.5 452.75 Q 212.5 452.75 212 452.75 Q 211.5 452.75 211 452.75 Q 210.5 452.75 210 452.75 Q 209.5 452.75 209 452.75 Q 208.5 452.75 208 452.75 Q 207.5 452.75 207.5 452.25 Q 207.5 451.75 207 451.75 Q 206.5 451.75 205 451.75 Q 203.5 451.75 203 451.75 Q 202.5 451.75 202 451.75 Q 201.5 451.75 201.5 451.25 Q 201.5 450.75 201 450.75 Q 200.5 450.75 200.5 450.25 Q 200.5 449.75 200 446.25 Q 199.5 442.75 199 439.75 Q 198.5 436.75 198 433.75 Q 197.5 430.75 197 428.75 Q 196.5 426.75 196.5 423.75 Q 196.5 420.75 196 416.75 Q 195.5 412.75 195.5 408.75 Q 195.5 404.75 195.5 399.75 Q 195.5 394.75 195.5 391.25 Q 195.5 387.75 195.5 384.75 Q 195.5 381.75 195.5 378.25 Q 195.5 374.75 196 371.25 Q 196.5 367.75 197.5 363.75 Q 198.5 359.75 198.5 355.75 Q 198.5 351.75 198.5 346.25 Q 198.5 340.75 198.5 336.75 Q 198.5 332.75 198.5 328.75 Q 198.5 324.75 198.5 320.75 Q 198.5 316.75 198.5 313.25 Q 198.5 309.75 198.5 307.75 Q 198.5 305.75 198.5 303.75 Q 198.5 301.75 198.5 298.25 Q 198.5 294.75 198.5 292.75 Q 198.5 290.75 198.5 287.75 Q 198.5 284.75 199 282.25 Q 199.5 279.75 200 276.75 Q 200.5 273.75 201 269.75 Q 201.5 265.75 202 263.75 Q 202.5 261.75 203 260.75 Q 203.5 259.75 205 256.25 Q 206.5 252.75 207 250.25 Q 207.5 247.75 208.5 245.25 Q 209.5 242.75 210 240.75 Q 210.5 238.75 211 237.75 Q 211.5 236.75 211.5 234.25 Q 211.5 231.75 212 229.25 Q 212.5 226.75 213 224.75 Q 213.5 222.75 213.5 222.25 Q 213.5 221.75 213.5 221.25 Q 213.5 220.75 213.5 219.75 Q 213.5 218.75 214 218.25 Q 214.5 217.75 214.5 217.25 Q 214.5 216.75 214.5 216.25 Q 214.5 215.75 214.5 215.25 Q 214.5 214.75 214.5 215.25 Q 214.5 215.75 214.5 216.25 Q 214.5 216.75 214.5 217.25 Q 214.5 217.75 214 218.25 Q 213.5 218.75 213 220.25 Q 212.5 221.75 211.5 222.75 Q 210.5 223.75 210 224.25 Q 209.5 224.75 207.5 228.25 Q 205.5 231.75 203.5 234.25 Q 201.5 236.75 199.5 239.25 Q 197.5 241.75 195 244.75 Q 192.5 247.75 190 251.25 Q 187.5 254.75 185.5 256.75 Q 183.5 258.75 181.5 261.25 Q 179.5 263.75 177.5 266.25 Q 175.5 268.75 173.5 270.75 Q 171.5 272.75 169.5 274.25 Q 167.5 275.75 165.5 278.25 Q 163.5 280.75 162.5 282.25 Q 161.5 283.75 159.5 286.25 Q 157.5 288.75 155.5 291.25 Q 153.5 293.75 153 294.75 Q 152.5 295.75 149.5 300.75 Q 146.5 305.75 145 307.75 Q 143.5 309.75 141.5 313.25 Q 139.5 316.75 138.5 319.25 Q 137.5 321.75 136 323.75 Q 134.5 325.75 133.5 328.25 Q 132.5 330.75 131 333.25 Q 129.5 335.75 128.5 338.25 Q 127.5 340.75 126 342.75 Q 124.5 344.75 123.5 347.25 Q 122.5 349.75 121.5 352.25 Q 120.5 354.75 119 358.25 Q 117.5 361.75 116.5 363.75 Q 115.5 365.75 114.5 367.25 Q 113.5 368.75 113 369.75 Q 112.5 370.75 112 371.75 Q 111.5 372.75 111 374.25 Q 110.5 375.75 109.5 376.75 Q 108.5 377.75 108 378.75 Q 107.5 379.75 107 380.75 Q 106.5 381.75 106 382.25 Q 105.5 382.75 105.5 383.25 Q 105.5 383.75 105 384.75 Q 104.5 385.75 104 385.75 Q 103.5 385.75 103.5 386.25 Q 103.5 386.75 103 386.75 Q 102.5 386.75 102 386.75 Q 101.5 386.75 100.5 386.75 Q 99.5 386.75 98.5 386.25 Q 97.5 385.75 96.5 385.25 Q 95.5 384.75 95 384.25 Q 94.5 383.75 93.5 383.25 Q 92.5 382.75 92 382.25 Q 91.5 381.75 91 381.75 Q 90.5 381.75 90 380.75 Q 89.5 379.75 88.5 378.75 Q 87.5 377.75 87 377.25 Q 86.5 376.75 85 374.75 Q 83.5 372.75 82.5 371.25 Q 81.5 369.75 80 368.75 Q 78.5 367.75 78 366.75 Q 77.5 365.75 77 365.25 Q 76.5 364.75 75.5 363.75 Q 74.5 362.75 73 362.25 Q 71.5 361.75 71 360.75 Q 70.5 359.75 70 359.25 Q 69.5 358.75 68.5 358.25 Q 67.5 357.75 67.5 357.25 Q 67.5 356.75 67 356.75 Q 66.5 356.75 65 355.75 Q 63.5 354.75 63 354.25 Q 62.5 353.75 61.5 353.25 Q 60.5 352.75 60 352.75 Q 59.5 352.75 59 352.25 Q 58.5 351.75 57.5 351.25 Q 56.5 350.75 56 350.25 Q 55.5 349.75 55 349.25 Q 54.5 348.75 54 348.75 Q 53.5 348.75 53 348.75 Q 52.5 348.75 52 348.25 Q 51.5 347.75 51 347.75 Q 50.5 347.75 50.5 347.25 Q 50.5 346.75 50.5 345.75 Q 50.5 344.75 50.5 343.75 Q 50.5 342.75 51 341.75 Q 51.5 340.75 52 338.75 Q 52.5 336.75 53 334.25 Q 53.5 331.75 54.5 329.25 Q 55.5 326.75 56 324.75 Q 56.5 322.75 58 319.25 Q 59.5 315.75 61 312.75 Q 62.5 309.75 63.5 307.75 Q 64.5 305.75 66 302.25 Q 67.5 298.75 68.5 296.75 Q 69.5 294.75 71 292.25 Q 72.5 289.75 73.5 288.25 Q 74.5 286.75 75.5 284.75 Q 76.5 282.75 78 280.25 Q 79.5 277.75 80.5 275.25 Q 81.5 272.75 81.5 271.75 Q 81.5 270.75 83 266.75 Q 84.5 262.75 86 260.25 Q 87.5 257.75 88.5 255.75 Q 89.5 253.75 91 250.25 Q 92.5 246.75 93.5 245.25 Q 94.5 243.75 96.5 240.75 Q 98.5 237.75 100 235.25 Q 101.5 232.75 102.5 231.25 Q 103.5 229.75 105.5 226.25 Q 107.5 222.75 110 219.75 Q 112.5 216.75 114.5 213.75 Q 116.5 210.75 118 207.75 Q 119.5 204.75 121.5 202.25 Q 123.5 199.75 125 197.25 Q 126.5 194.75 128 191.75 Q 129.5 188.75 131 186.75 Q 132.5 184.75 134 182.25 Q 135.5 179.75 138 175.75 Q 140.5 171.75 141 170.75 Q 141.5 169.75 142.5 167.75 Q 143.5 165.75 145 163.25 Q 146.5 160.75 147 159.75 Q 147.5 158.75 148 158.25 Q 148.5 157.75 148.5 156.75 Q 148.5 155.75 149.5 154.25 Q 150.5 152.75 151 151.25 Q 151.5 149.75 152 147.75 Q 152.5 145.75 153 144.75 Q 153.5 143.75 153.5 142.75 Q 153.5 141.75 154 141.25 Q 154.5 140.75 155 139.75 Q 155.5 138.75 155.5 138.25 Q 155.5 137.75 156 136.75 Q 156.5 135.75 157 134.75 Q 157.5 133.75 158 133.25 Q 158.5 132.75 158.5 131.75 Q 158.5 130.75 159 130.25 Q 159.5 129.75 159.5 128.75 Q 159.5 127.75 160 127.25 Q 160.5 126.75 161 125.75 Q 161.5 124.75 162 124.25 Q 162.5 123.75 163 123.25 Q 163.5 122.75 163.5 122.25 Q 163.5 121.75 164 121.25 Q 164.5 120.75 165 120.25 Q 165.5 119.75 165.5 119.25 L 165.5 118.725" stroke-linecap="round" />
</g>
<g transform="matrix(1 0 0 1 329.5 117.75)"  >
<path style="stroke: rgb(0,0,0); stroke-width: 25; stroke-dasharray: none; stroke-linecap: round; stroke-dashoffset: 0; stroke-linejoin: round; stroke-miterlimit: 10; fill: none; fill-rule: nonzero; opacity: 1;"  transform=" translate(-329.5, -117.75)" d="M 328.5 43.725 Q 328.5 43.75 328.5 45.25 Q 328.5 46.75 328.5 49.25 Q 328.5 51.75 328.5 55.75 Q 328.5 59.75 328.5 64.75 Q 328.5 69.75 328.5 74.25 Q 328.5 78.75 328.5 82.75 Q 328.5 86.75 328.5 90.75 Q 328.5 94.75 329 98.25 Q 329.5 101.75 330 104.75 Q 330.5 107.75 330.5 110.75 Q 330.5 113.75 331 116.25 Q 331.5 118.75 331.5 122.25 Q 331.5 125.75 331.5 127.75 Q 331.5 129.75 331.5 132.25 Q 331.5 134.75 331.5 136.75 Q 331.5 138.75 331.5 141.25 Q 331.5 143.75 331.5 146.25 Q 331.5 148.75 332 150.25 Q 332.5 151.75 332.5 153.25 Q 332.5 154.75 332.5 155.75 Q 332.5 156.75 332.5 157.75 Q 332.5 158.75 332.5 159.75 Q 332.5 160.75 332.5 162.25 Q 332.5 163.75 332.5 164.25 Q 332.5 164.75 332.5 165.75 Q 332.5 166.75 332.5 167.75 Q 332.5 168.75 332.5 169.25 Q 332.5 169.75 332.5 170.25 Q 332.5 170.75 332 171.75 Q 331.5 172.75 331.5 173.25 Q 331.5 173.75 331.5 174.25 Q 331.5 174.75 331 176.25 Q 330.5 177.75 330 178.75 Q 329.5 179.75 329.5 180.25 Q 329.5 180.75 329.5 181.75 Q 329.5 182.75 329 183.25 Q 328.5 183.75 328.5 184.25 Q 328.5 184.75 328 185.25 Q 327.5 185.75 327.5 186.25 Q 327.5 186.75 327.5 187.25 Q 327.5 187.75 327.5 188.25 Q 327.5 188.75 327 189.25 Q 326.5 189.75 326.5 190.25 Q 326.5 190.75 326.5 191.25 L 326.5 191.775" stroke-linecap="round" />
</g>
</svg>