<?xml version="1.0" encoding="UTF-8" standalone="no" ?>
<!DOCTYPE svg PUBLIC "-//W3C//DTD SVG 1.1//EN" "http://www.w3.org/Graphics/SVG/1.1/DTD/svg11.dtd">
<svg xmlns="http://www.w3.org/2000/svg" xmlns:xlink="http://www.w3.org/1999/xlink" version="1.1" width="640" height="480" viewBox="0 0 640 480" xml:space="preserve">
<desc>Created with Fabric.js 3.6.6</desc>
<defs>
</defs>
<g transform="matrix(1 0 0 1 344.5 234.25)"  >
<path style="stroke: rgb(0,0,0); stroke-width: 25; stroke-dasharray: none; stroke-linecap: round; stroke-dashoffset: 0; stroke-linejoin: round; stroke-miterlimit: 10; fill: none; fill-rule: nonzero; opacity: 1;"  transform=" translate(-344.5, -234.25)" d="M 215.5 38.725 Q 215.5 38.75 215.5 39.25 Q 215.5 39.75 215.5 40.25 Q 215.5 40.75 215.5 41.25 Q 215.5 41.75 215.5 42.25 Q 215.5 42.75 215.5 43.25 Q 215.5 43.75 215.5 44.75 Q 215.5 45.75 215 46.75 Q 214.5 47.75 214.5 49.25 Q 214.5 50.75 214.5 51.75 Q 214.5 52.75 214 54.75 Q 213.5 56.75 213.5 58.75 Q 213.5 60.75 213.5 62.25 Q 213.5 63.75 212.5 66.25 Q 211.5 68.75 211.5 70.75 Q 211.5 72.75 210 76.25 Q 208.5 79.75 208 81.25 Q 207.5 82.75 206.5 87.25 Q 205.5 91.75 205 94.25 Q 204.5 96.75 204 98.75 Q 203.5 100.75 203 103.25 Q 202.5 105.75 202 107.25 Q 201.5 108.75 201 111.25 Q 200.5 113.75 200.5 116.25 Q 200.5 118.75 200.5 120.75 Q 200.5 122.75 200 125.75 Q 199.5 128.75 199 132.75 Q 198.5 136.75 198.5 138.75 Q 198.5 140.75 198.5 143.25 Q 198.5 145.75 198.5 149.75 Q 198.5 153.75 198.5 155.25 Q 198.5 156.75 198 163.25 Q 197.5 169.75 197.5 174.25 Q 197.5 178.75 197.5 182.75 Q 197.5 186.75 197.5 190.75 Q 197.5 194.75 197.5 198.75 Q 197.5 202.75 197.5 206.75 Q 197.5 210.75 197.5 216.75 Q 197.5 222.75 197.5 227.75 Q 197.5 232.75 197.5 237.75 Q 197.5 242.75 197.5 247.75 Q 197.5 252.75 197.5 257.25 Q 197.5 261.75 197.5 267.75 Q 197.5 273.75 197.5 278.75 Q 197.5 283.75 197.5 289.25 Q 197.5 294.75 197.5 299.75 Q 197.5 304.75 197.5 310.75 Q 197.5 316.75 197.5 322.25 Q 197.5 327.75 197.5 331.75 Q 197.5 335.75 197.5 340.75 Q 197.5 345.75 197.5 350.25 Q 197.5 354.75 197.5 356.25 Q 197.5 357.75 197.5 365.75 Q 197.5 373.75 197.5 378.75 Q 197.5 383.75 197.5 386.25 Q 197.5 388.75 198 391.75 Q 198.5 394.75 198.5 395.75 Q 198.5 396.75 199 398.75 Q 199.5 400.75 200 402.25 Q 200.5 403.75 200.5 405.25 Q 200.5 406.75 200.5 407.25 Q 200.5 407.75 201 409.75 Q 201.5 411.75 201.5 412.75 Q 201.5 413.75 202 414.25 Q 202.5 414.75 202.5 416.25 Q 202.5 417.75 203 418.25 Q 203.5 418.75 203.5 421.25 Q 203.5 423.75 204 424.75 Q 204.5 425.75 204.5 426.25 Q 204.5 426.75 204.5 427.75 Q 204.5 428.75 205 429.25 Q 205.5 429.75 205.5 430.25 Q 205.5 430.75 205.5 431.25 Q 205.5 431.75 205.5 432.25 Q 205.5 432.75 206 433.25 Q 206.5 433.75 206.5 434.25 Q 206.5 434.75 207 434.75 Q 207.5 434.75 207.5 435.25 Q 207.5 435.75 207.5 436.75 Q 207.5 437.75 207.5 438.25 Q 207.5 438.75 208 439.75 Q 208.5 440.75 209 442.25 Q 209.5 443.75 209.5 444.25 Q 209.5 444.75 209.5 445.25 Q 209.5 445.75 210 445.75 Q 210.5 445.75 210.5 446.25 Q 210.5 446.75 210.5 447.25 Q 210.5 447.75 210.5 448.25 Q 210.5 448.75 211 448.75 Q 211.5 448.75 211.5 449.25 Q 211.5 449.75 211.5 450.25 Q 211.5 450.75 212 450.75 Q 212.5 450.75 212.5 451.25 Q 212.5 451.75 213 452.25 Q 213.5 452.75 214 452.75 Q 214.5 452.75 215 452.75 Q 215.5 452.75 216 452.75 Q 216.5 452.75 217 452.75 Q 217.5 452.75 218.5 452.75 Q 219.5 452.75 221 452.75 Q 222.5 452.75 225 452.75 Q 227.5 452.75 229.5 452.75 Q 231.5 452.75 233.5 452.75 Q 235.5 452.75 239 452.75 Q 242.5 452.75 243.5 452.75 Q 244.5 452.75 246.5 452.75 Q 248.5 452.75 249.5 452.75 Q 250.5 452.75 251 452.75 Q 251.5 452.75 253.5 452.75 Q 255.5 452.75 256.5 452.75 Q 257.5 452.75 258.5 452.25 Q 259.5 451.75 260 451.75 Q 260.5 451.75 261 451.75 Q 261.5 451.75 262 451.75 Q 262.5 451.75 263 451.75 Q 263.5 451.75 264 451.75 Q 264.5 451.75 265 451.75 Q 265.5 451.75 267 451.75 Q 268.5 451.75 269.5 451.75 Q 270.5 451.75 271 451.75 Q 271.5 451.75 272.5 451.75 Q 273.5 451.75 273.5 451.25 Q 273.5 450.75 274 450.75 Q 274.5 450.75 274.5 450.25 Q 274.5 449.75 274.5 449.25 Q 274.5 448.75 274.5 447.75 Q 274.5 446.75 274.5 446.25 Q 274.5 445.75 275 444.25 Q 275.5 442.75 276.5 441.25 Q 277.5 439.75 278 437.25 Q 278.5 434.75 279.5 431.75 Q 280.5 428.75 281 425.75 Q 281.5 422.75 282.5 420.25 Q 283.5 417.75 284.5 414.75 Q 285.5 411.75 286 409.25 Q 286.5 406.75 287 403.75 Q 287.5 400.75 288.5 397.75 Q 289.5 394.75 290 391.25 Q 290.5 387.75 291 385.75 Q 291.5 383.75 292.5 381.25 Q 293.5 378.75 294 376.25 Q 294.5 373.75 295 371.75 Q 295.5 369.75 296.5 365.75 Q 297.5 361.75 298.5 357.75 Q 299.5 353.75 300 350.25 Q 300.5 346.75 301 343.75 Q 301.5 340.75 302 337.25 Q 302.5 333.75 303 331.25 Q 303.5 328.75 304.5 327.25 Q 305.5 325.75 306 321.75 Q 306.5 317.75 306.5 313.25 Q 306.5 308.75 307 305.25 Q 307.5 301.75 308 298.75 Q 308.5 295.75 309.5 291.25 Q 310.5 286.75 311.5 282.75 Q 312.5 278.75 313 273.75 Q 313.5 268.75 314 263.75 Q 314.5 258.75 315.5 254.25 Q 316.5 249.75 317 245.25 Q 317.5 240.75 318.5 234.25 Q 319.5 227.75 320.5 221.75 Q 321.5 215.75 322 214.25 Q 322.5 212.75 323 210.75 Q 323.5 208.75 324 204.75 Q 324.5 200.75 325 198.25 Q 325.5 195.75 326.5 192.75 Q 327.5 189.75 328 187.25 Q 328.5 184.75 329 181.25 Q 329.5 177.75 330 175.25 Q 330.5 172.75 331 170.25 Q 331.5 167.75 331.5 163.75 Q 331.5 159.75 332 157.75 Q 332.5 155.75 333 152.75 Q 333.5 149.75 334 147.75 Q 334.5 145.75 334.5 145.25 Q 334.5 144.75 334.5 144.25 Q 334.5 143.75 335 144.25 Q 335.5 144.75 335.5 145.25 Q 335.5 145.75 336.5 147.25 Q 337.5 148.75 338 149.75 Q 338.5 150.75 339 151.75 Q 339.5 152.75 341.5 155.75 Q 343.5 158.75 344 160.25 Q 344.5 161.75 346 164.25 Q 347.5 166.75 348 168.75 Q 348.5 170.75 350 174.25 Q 351.5 177.75 353 182.25 Q 354.5 186.75 356 190.25 Q 357.5 193.75 358.5 197.25 Q 359.5 200.75 361.5 204.75 Q 363.5 208.75 364.5 212.75 Q 365.5 216.75 367 221.25 Q 368.5 225.75 371.5 229.75 Q 374.5 233.75 375.5 238.75 Q 376.5 243.75 378.5 249.25 Q 380.5 254.75 382 259.25 Q 383.5 263.75 385 267.75 Q 386.5 271.75 387 274.75 Q 387.5 277.75 388 280.75 Q 388.5 283.75 389.5 287.25 Q 390.5 290.75 391.5 293.75 Q 392.5 296.75 393 299.25 Q 393.5 301.75 394 304.75 Q 394.5 307.75 395 310.75 Q 395.5 313.75 396 315.75 Q 396.5 317.75 397.5 321.25 Q 398.5 324.75 399.5 329.25 Q 400.5 333.75 401.5 337.75 Q 402.5 341.75 403 345.25 Q 403.5 348.75 403.5 351.75 Q 403.5 354.75 404 357.25 Q 404.5 359.75 405 362.25 Q 405.5 364.75 406 368.25 Q 406.5 371.75 407 374.75 Q 407.5 377.75 408 380.25 Q 408.5 382.75 409 385.25 Q 409.5 387.75 409.5 389.75 Q 409.5 391.75 409.5 394.25 Q 409.5 396.75 410 400.25 Q 410.5 403.75 411 406.25 Q 411.5 408.75 412.5 411.75 Q 413.5 414.75 413.5 417.75 Q 413.5 420.75 414 423.25 Q 414.5 425.75 414.5 427.25 Q 414.5 428.75 415 430.75 Q 415.5 432.75 415.5 433.25 Q 415.5 433.75 415.5 434.25 Q 415.5 434.75 415.5 435.25 Q 415.5 435.75 416 436.75 Q 416.5 437.75 416.5 438.25 Q 416.5 438.75 416.5 439.25 Q 416.5 439.75 416.5 440.75 Q 416.5 441.75 416.5 442.75 Q 416.5 443.75 416.5 444.25 Q 416.5 444.75 416.5 445.25 Q 416.5 445.75 416.5 446.25 Q 416.5 446.75 416.5 447.25 Q 416.5 447.75 416.5 448.75 Q 416.5 449.75 416.5 450.25 Q 416.5 450.75 417 450.75 Q 417.5 450.75 419 450.75 Q 420.5 450.75 421 450.75 Q 421.5 450.75 422.5 450.75 Q 423.5 450.75 424.5 450.75 Q 425.5 450.75 427 450.75 Q 428.5 450.75 429.5 450.75 Q 430.5 450.75 432.5 450.75 Q 434.5 450.75 435.5 450.75 Q 436.5 450.75 438.5 450.75 Q 440.5 450.75 442 450.75 Q 443.5 450.75 445.5 450.25 Q 447.5 449.75 448 449.75 Q 448.5 449.75 449.5 449.75 Q 450.5 449.75 452.5 449.25 Q 454.5 448.75 456 448.75 Q 457.5 448.75 458 448.75 Q 458.5 448.75 459.5 448.25 Q 460.5 447.75 461.5 447.75 Q 462.5 447.75 463.5 447.75 Q 464.5 447.75 466 447.75 Q 467.5 447.75 469 448.25 Q 470.5 448.75 471 448.75 Q 471.5 448.75 472 448.75 Q 472.5 448.75 473.5 448.75 Q 474.5 448.75 475.5 448.75 Q 476.5 448.75 477 448.75 Q 477.5 448.75 478.5 448.75 Q 479.5 448.75 480.5 448.75 Q 481.5 448.75 482 448.75 Q 482.5 448.75 483 448.25 Q 483.5 447.75 484 447.75 Q 484.5 447.75 485.5 447.75 Q 486.5 447.75 486.5 447.25 Q 486.5 446.75 486.5 446.25 Q 486.5 445.75 486.5 444.25 Q 486.5 442.75 486.5 442.25 Q 486.5 441.75 486.5 439.75 Q 486.5 437.75 486.5 435.75 Q 486.5 433.75 486.5 431.75 Q 486.5 429.75 486.5 426.75 Q 486.5 423.75 486.5 420.25 Q 486.5 416.75 486.5 412.25 Q 486.5 407.75 487 404.75 Q 487.5 401.75 487.5 399.75 Q 487.5 397.75 487.5 395.25 Q 487.5 392.75 487.5 390.25 Q 487.5 387.75 487.5 384.75 Q 487.5 381.75 487.5 379.25 Q 487.5 376.75 487.5 373.75 Q 487.5 370.75 487.5 367.25 Q 487.5 363.75 487.5 360.25 Q 487.5 356.75 487.5 352.75 Q 487.5 348.75 487.5 342.25 Q 487.5 335.75 487.5 331.75 Q 487.5 327.75 487.5 323.25 Q 487.5 318.75 487.5 314.75 Q 487.5 310.75 487.5 307.25 Q 487.5 303.75 487.5 299.75 Q 487.5 295.75 487.5 291.25 Q 487.5 286.75 487.5 281.75 Q 487.5 276.75 487.5 272.75 Q 487.5 268.75 487.5 263.75 Q 487.5 258.75 487.5 255.25 Q 487.5 251.75 488 248.75 Q 488.5 245.75 489 242.75 Q 489.5 239.75 489.5 233.75 Q 489.5 227.75 489.5 225.75 Q 489.5 223.75 490 218.75 Q 490.5 213.75 490.5 210.75 Q 490.5 207.75 490.5 204.25 Q 490.5 200.75 491 197.75 Q 491.5 194.75 491.5 190.75 Q 491.5 186.75 491.5 183.25 Q 491.5 179.75 491.5 175.75 Q 491.5 171.75 491.5 168.25 Q 491.5 164.75 491.5 162.25 Q 491.5 159.75 491.5 157.25 Q 491.5 154.75 491.5 151.75 Q 491.5 148.75 490.5 144.75 Q 489.5 140.75 489 138.25 Q 488.5 135.75 488 132.25 Q 487.5 128.75 486.5 125.25 Q 485.5 121.75 485 119.25 Q 484.5 116.75 484 113.75 Q 483.5 110.75 483 107.25 Q 482.5 103.75 481.5 100.75 Q 480.5 97.75 480 94.25 Q 479.5 90.75 479 86.25 Q 478.5 81.75 477.5 78.25 Q 476.5 74.75 475.5 69.75 Q 474.5 64.75 474 60.75 Q 473.5 56.75 473 54.25 Q 472.5 51.75 472 48.75 Q 471.5 45.75 471 42.75 Q 470.5 39.75 470 38.25 Q 469.5 36.75 469 33.75 Q 468.5 30.75 467.5 28.75 Q 466.5 26.75 466 25.25 Q 465.5 23.75 465.5 23.25 Q 465.5 22.75 465.5 22.25 Q 465.5 21.75 465.5 21.25 Q 465.5 20.75 465.5 20.25 Q 465.5 19.75 465.5 19.25 Q 465.5 18.75 465 17.75 Q 464.5 16.75 464.5 16.25 Q 464.5 15.75 464 15.75 Q 463.5 15.75 462.5 16.25 Q 461.5 16.75 460 17.25 Q 458.5 17.75 458 17.75 Q 457.5 17.75 456 18.25 Q 454.5 18.75 454 19.25 Q 453.5 19.75 453 19.75 Q 452.5 19.75 451.5 20.25 Q 450.5 20.75 450 20.75 Q 449.5 20.75 448.5 21.25 Q 447.5 21.75 446.5 21.75 Q 445.5 21.75 444.5 22.25 Q 443.5 22.75 443 22.75 Q 442.5 22.75 441.5 22.75 Q 440.5 22.75 439 23.25 Q 437.5 23.75 435.5 24.25 Q 433.5 24.75 431.5 25.25 Q 429.5 25.75 427 26.25 Q 424.5 26.75 421.5 27.25 Q 418.5 27.75 416.5 28.25 Q 414.5 28.75 412.5 28.75 Q 410.5 28.75 407.5 29.25 Q 404.5 29.75 402.5 29.75 Q 400.5 29.75 398 29.75 Q 395.5 29.75 393 29.75 Q 390.5 29.75 386.5 29.75 Q 382.5 29.75 379.5 29.75 Q 376.5 29.75 374 30.25 Q 371.5 30.75 368.5 30.75 Q 365.5 30.75 362 30.75 Q 358.5 30.75 355.5 30.75 Q 352.5 30.75 349 30.75 Q 345.5 30.75 342 30.75 Q 338.5 30.75 334.5 30.75 Q 330.5 30.75 325.5 30.75 Q 320.5 30.75 315.5 30.75 Q 310.5 30.75 304 30.75 Q 297.5 30.75 293.5 30.75 Q 289.5 30.75 285.5 30.75 Q 281.5 30.75 277 30.75 Q 272.5 30.75 269 30.75 Q 265.5 30.75 262.5 30.75 Q 259.5 30.75 257.5 30.75 Q 255.5 30.75 253.5 30.75 Q 251.5 30.75 251 30.75 Q 250.5 30.75 249 30.75 Q 247.5 30.75 246.5 30.75 Q 245.5 30.75 243.5 30.75 Q 241.5 30.75 240.5 30.75 Q 239.5 30.75 236.5 30.75 Q 233.5 30.75 233 30.75 Q 232.5 30.75 230.5 30.75 Q 228.5 30.75 228 30.75 Q 227.5 30.75 227 30.75 Q 226.5 30.75 226 30.75 Q 225.5 30.75 225 31.25 Q 224.5 31.75 223 32.25 Q 221.5 32.75 220.5 32.75 Q 219.5 32.75 219 33.25 L 218.475 33.775" stroke-linecap="round" />
</g>
<g transform="matrix(1 0 0 1 308.01 88.25)"  >
<path style="stroke: rgb(0,0,0); stroke-width: 25; stroke-dasharray: none; stroke-linecap: round; stroke-dashoffset: 0; stroke-linejoin: round; stroke-miterlimit: 10; fill: none; fill-rule: nonzero; opacity: 1;"  transform=" translate(-308.01, -88.25)" d="M 329.525 58.725 Q 329.5 58.75 329 59.25 Q 328.5 59.75 328 60.75 Q 327.5 61.75 327 61.75 Q 326.5 61.75 325.5 62.25 Q 324.5 62.75 322.5 63.75 Q 320.5 64.75 318.5 67.25 Q 316.5 69.75 314.5 71.75 Q 312.5 73.75 309.5 76.75 Q 306.5 79.75 303.5 83.25 Q 300.5 86.75 298.5 89.75 Q 296.5 92.75 295 96.25 Q 293.5 99.75 292 103.25 Q 290.5 106.75 289 109.75 Q 287.5 112.75 287 114.75 Q 286.5 116.75 286.5 117.25 L 286.5 117.775" stroke-linecap="round" />
</g>
<g transform="matrix(1 0 0 1 383.5 93.76)"  >
<path style="stroke: rgb(0,0,0); stroke-width: 25; stroke-dasharray: none; stroke-linecap: round; stroke-dashoffset: 0; stroke-linejoin: round; stroke-miterlimit: 10; fill: none; fill-rule: nonzero; opacity: 1;"  transform=" translate(-383.5, -93.76)" d="M 347.475 67.75 Q 347.5 67.75 347.5 67.25 Q 347.5 66.75 349 66.75 Q 350.5 66.75 352 66.75 Q 353.5 66.75 355 66.75 Q 356.5 66.75 358 67.75 Q 359.5 68.75 363 70.75 Q 366.5 72.75 370.5 75.75 Q 374.5 78.75 379.5 82.75 Q 384.5 86.75 388.5 91.25 Q 392.5 95.75 397 99.75 Q 401.5 103.75 406.5 108.75 Q 411.5 113.75 415.5 117.25 L 419.525 120.775" stroke-linecap="round" />
</g>
<g transform="matrix(1 0 0 1 334.99 53.24)"  >
<path style="stroke: rgb(0,0,0); stroke-width: 25; stroke-dasharray: none; stroke-linecap: round; stroke-dashoffset: 0; stroke-linejoin: round; stroke-miterlimit: 10; fill: none; fill-rule: nonzero; opacity: 1;"  transform=" translate(-334.99, -53.24)" d="M 309.475 46.725 Q 309.5 46.75 310.5 49.25 Q 311.5 51.75 312 52.25 Q 312.5 52.75 314 55.25 Q 315.5 57.75 318 59.75 Q 320.5 61.75 323 63.25 Q 325.5 64.75 327.5 65.75 Q 329.5 66.75 331 66.75 Q 332.5 66.75 333.5 67.25 Q 334.5 67.75 335 67.75 Q 335.5 67.75 336.5 67.75 Q 337.5 67.75 339 67.25 Q 340.5 66.75 342 66.25 Q 343.5 65.75 344.5 65.25 Q 345.5 64.75 347 64.25 Q 348.5 63.75 349 63.75 Q 349.5 63.75 350 63.75 Q 350.5 63.75 352 63.25 Q 353.5 62.75 354 62.25 Q 354.5 61.75 355 60.75 Q 355.5 59.75 356.5 58.75 Q 357.5 57.75 358.5 54.25 Q 359.5 50.75 360 49.25 Q 360.5 47.75 360.5 45.75 Q 360.5 43.75 360.5 42.75 Q 360.5 41.75 360.5 41.25 Q 360.5 40.75 360.5 39.75 L 360.5 38.725" stroke-linecap="round" />
</g>
<g transform="matrix(1 0 0 1 222 414.75)"  >
<path style="stroke: rgb(0,0,0); stroke-width: 25; stroke-dasharray: none; stroke-linecap: round; stroke-dashoffset: 0; stroke-linejoin: round; stroke-miterlimit: 10; fill: none; fill-rule: nonzero; opacity: 1;"  transform=" translate(-222, -414.75)" d="M 210.475 412.75 Q 210.5 412.75 211 412.75 Q 211.5 412.75 212.5 412.75 Q 213.5 412.75 215.5 413.25 Q 217.5 413.75 218.5 414.25 Q 219.5 414.75 222 415.25 Q 224.5 415.75 225 416.25 Q 225.5 416.75 227 416.75 Q 228.5 416.75 229.5 416.75 Q 230.5 416.75 231 416.75 Q 231.5 416.75 232.5 416.75 L 233.525 416.75" stroke-linecap="round" />
</g>
<g transform="matrix(1 0 0 1 431.51 406.24)"  >
<path style="stroke: rgb(0,0,0); stroke-width: 25; stroke-dasharray: none; stroke-linecap: round; stroke-dashoffset: 0; stroke-linejoin: round; stroke-miterlimit: 10; fill: none; fill-rule: nonzero; opacity: 1;"  transform=" translate(-431.51, -406.24)" d="M 420.5 403.725 Q 420.5 403.75 421 403.75 Q 421.5 403.75 421.5 404.25 Q 421.5 404.75 422.5 404.75 Q 423.5 404.75 424 405.25 Q 424.5 405.75 425 405.75 Q 425.5 405.75 426.5 406.25 Q 427.5 406.75 429 407.25 Q 430.5 407.75 431.5 407.75 Q 432.5 407.75 433.5 408.25 Q 434.5 408.75 435.5 408.75 Q 436.5 408.75 437 408.75 Q 437.5 408.75 438 408.75 Q 438.5 408.75 439 408.75 Q 439.5 408.75 439.5 408.25 Q 439.5 407.75 440 407.75 Q 440.5 407.75 441 407.75 Q 441.5 407.75 442 407.75 L 442.525 407.75" stroke-linecap="round" />
</g>
</svg>