<?xml version="1.0" encoding="UTF-8" standalone="no" ?>
<!DOCTYPE svg PUBLIC "-//W3C//DTD SVG 1.1//EN" "http://www.w3.org/Graphics/SVG/1.1/DTD/svg11.dtd">
<svg xmlns="http://www.w3.org/2000/svg" xmlns:xlink="http://www.w3.org/1999/xlink" version="1.1" width="640" height="480" viewBox="0 0 640 480" xml:space="preserve">
<desc>Created with Fabric.js 3.6.6</desc>
<defs>
</defs>
<g transform="matrix(1 0 0 1 333.5 232.25)"  >
<path style="stroke: rgb(0,0,0); stroke-width: 25; stroke-dasharray: none; stroke-linecap: round; stroke-dashoffset: 0; stroke-linejoin: round; stroke-miterlimit: 10; fill: none; fill-rule: nonzero; opacity: 1;"  transform=" translate(-333.5, -232.25)" d="M 238.5 370.725 Q 238.5 370.75 238.5 371.25 Q 238.5 371.75 238.5 372.75 Q 238.5 373.75 239 375.25 Q 239.5 376.75 239.5 378.75 Q 239.5 380.75 239.5 383.75 Q 239.5 386.75 239.5 389.75 Q 239.5 392.75 240 393.75 Q 240.5 394.75 240.5 396.75 Q 240.5 398.75 240.5 399.75 Q 240.5 400.75 241 401.75 Q 241.5 402.75 241.5 404.75 Q 241.5 406.75 241.5 407.25 Q 241.5 407.75 241.5 409.75 Q 241.5 411.75 242 413.75 Q 242.5 415.75 242.5 417.75 Q 242.5 419.75 243 421.75 Q 243.5 423.75 244 424.75 Q 244.5 425.75 244.5 427.25 Q 244.5 428.75 245 429.25 Q 245.5 429.75 245.5 431.75 Q 245.5 433.75 245.5 434.25 Q 245.5 434.75 245.5 436.25 Q 245.5 437.75 245.5 438.75 Q 245.5 439.75 245.5 440.25 Q 245.5 440.75 246 441.25 Q 246.5 441.75 246.5 442.25 Q 246.5 442.75 246.5 443.25 Q 246.5 443.75 247 443.75 Q 247.5 443.75 247.5 444.25 Q 247.5 444.75 248.5 444.75 Q 249.5 444.75 250.5 445.25 Q 251.5 445.75 252 446.25 Q 252.5 446.75 253 446.75 Q 253.5 446.75 254.5 446.75 Q 255.5 446.75 256 447.25 Q 256.5 447.75 257 447.75 Q 257.5 447.75 258.5 447.75 Q 259.5 447.75 260 447.75 Q 260.5 447.75 262.5 447.75 Q 264.5 447.75 266 447.75 Q 267.5 447.75 269 447.75 Q 270.5 447.75 273 447.75 Q 275.5 447.75 279 447.75 Q 282.5 447.75 286 447.75 Q 289.5 447.75 293.5 447.75 Q 297.5 447.75 300.5 447.75 Q 303.5 447.75 306.5 447.75 Q 309.5 447.75 312.5 447.75 Q 315.5 447.75 318.5 447.75 Q 321.5 447.75 324 447.75 Q 326.5 447.75 330 447.75 Q 333.5 447.75 336.5 447.75 Q 339.5 447.75 342 447.75 Q 344.5 447.75 347.5 447.75 Q 350.5 447.75 354 447.75 Q 357.5 447.75 359.5 447.75 Q 361.5 447.75 364.5 447.75 Q 367.5 447.75 370 447.75 Q 372.5 447.75 375.5 447.75 Q 378.5 447.75 380.5 447.75 Q 382.5 447.75 384.5 447.75 Q 386.5 447.75 388 447.75 Q 389.5 447.75 391 447.75 Q 392.5 447.75 393.5 447.75 Q 394.5 447.75 395 447.75 Q 395.5 447.75 396 447.25 Q 396.5 446.75 397.5 446.25 Q 398.5 445.75 399 445.25 Q 399.5 444.75 400 444.25 Q 400.5 443.75 401 443.75 Q 401.5 443.75 402 443.25 Q 402.5 442.75 403 442.25 Q 403.5 441.75 404 441.25 Q 404.5 440.75 405 440.75 Q 405.5 440.75 406 440.25 Q 406.5 439.75 407 439.25 Q 407.5 438.75 408.5 438.75 Q 409.5 438.75 410 437.75 Q 410.5 436.75 411.5 436.25 Q 412.5 435.75 413 435.25 Q 413.5 434.75 414 434.25 Q 414.5 433.75 414.5 432.75 Q 414.5 431.75 415 430.25 Q 415.5 428.75 415.5 427.25 Q 415.5 425.75 415.5 423.25 Q 415.5 420.75 415.5 417.75 Q 415.5 414.75 415 411.25 Q 414.5 407.75 414 404.75 Q 413.5 401.75 412.5 398.25 Q 411.5 394.75 411 392.25 Q 410.5 389.75 409 386.25 Q 407.5 382.75 407.5 381.75 Q 407.5 380.75 407 379.75 Q 406.5 378.75 406 377.25 Q 405.5 375.75 405.5 375.25 Q 405.5 374.75 405 374.25 Q 404.5 373.75 404.5 370.75 Q 404.5 367.75 404 367.25 Q 403.5 366.75 403.5 366.25 Q 403.5 365.75 403.5 364.75 Q 403.5 363.75 404 362.75 Q 404.5 361.75 404.5 361.25 Q 404.5 360.75 404.5 360.25 Q 404.5 359.75 405 358.75 Q 405.5 357.75 405.5 357.25 Q 405.5 356.75 406 355.75 Q 406.5 354.75 406.5 353.75 Q 406.5 352.75 407 352.25 Q 407.5 351.75 407.5 351.25 Q 407.5 350.75 408 350.25 Q 408.5 349.75 409 347.75 Q 409.5 345.75 409.5 345.25 Q 409.5 344.75 410 343.75 Q 410.5 342.75 411 341.75 Q 411.5 340.75 412.5 339.25 Q 413.5 337.75 414 337.25 Q 414.5 336.75 414.5 336.25 Q 414.5 335.75 415.5 334.75 Q 416.5 333.75 417.5 333.25 Q 418.5 332.75 419.5 331.75 Q 420.5 330.75 421 330.25 Q 421.5 329.75 422.5 329.25 Q 423.5 328.75 424 328.75 Q 424.5 328.75 426.5 327.75 Q 428.5 326.75 430.5 325.25 Q 432.5 323.75 433 323.25 Q 433.5 322.75 434 322.75 Q 434.5 322.75 435 322.25 Q 435.5 321.75 437.5 320.25 Q 439.5 318.75 440.5 318.25 Q 441.5 317.75 441.5 317.25 Q 441.5 316.75 442.5 315.25 Q 443.5 313.75 444 312.25 Q 444.5 310.75 445 310.25 Q 445.5 309.75 445.5 308.75 Q 445.5 307.75 446 307.25 Q 446.5 306.75 446.5 306.25 Q 446.5 305.75 447 305.25 Q 447.5 304.75 447.5 303.75 Q 447.5 302.75 448 302.25 Q 448.5 301.75 449 301.75 Q 449.5 301.75 449.5 301.25 Q 449.5 300.75 450.5 300.25 Q 451.5 299.75 452 299.25 Q 452.5 298.75 453 298.75 Q 453.5 298.75 454 298.25 Q 454.5 297.75 455 297.25 Q 455.5 296.75 456 296.75 Q 456.5 296.75 457 296.25 Q 457.5 295.75 458 295.25 Q 458.5 294.75 459 294.75 Q 459.5 294.75 461 293.75 Q 462.5 292.75 464 291.75 Q 465.5 290.75 466 290.75 Q 466.5 290.75 467.5 290.25 Q 468.5 289.75 469.5 289.25 Q 470.5 288.75 471 288.75 Q 471.5 288.75 472.5 288.25 Q 473.5 287.75 474.5 287.75 Q 475.5 287.75 476 287.25 Q 476.5 286.75 477 286.75 Q 477.5 286.75 479 286.25 Q 480.5 285.75 482 285.75 Q 483.5 285.75 485.5 285.25 Q 487.5 284.75 489.5 284.25 Q 491.5 283.75 493 283.25 Q 494.5 282.75 496.5 281.75 Q 498.5 280.75 500.5 280.25 Q 502.5 279.75 506.5 278.75 Q 510.5 277.75 511 277.25 Q 511.5 276.75 512.5 276.25 Q 513.5 275.75 514 275.75 Q 514.5 275.75 515.5 275.25 Q 516.5 274.75 518 274.25 Q 519.5 273.75 520 273.75 Q 520.5 273.75 521.5 273.25 Q 522.5 272.75 523.5 272.75 Q 524.5 272.75 524.5 272.25 Q 524.5 271.75 525.5 271.75 Q 526.5 271.75 527.5 271.25 Q 528.5 270.75 529 270.25 Q 529.5 269.75 530 269.25 Q 530.5 268.75 531 268.75 Q 531.5 268.75 532 268.25 Q 532.5 267.75 533 266.75 Q 533.5 265.75 534.5 263.75 Q 535.5 261.75 535.5 259.75 Q 535.5 257.75 536.5 256.25 Q 537.5 254.75 538.5 251.75 Q 539.5 248.75 540 247.75 Q 540.5 246.75 541 245.75 Q 541.5 244.75 542 243.25 Q 542.5 241.75 542.5 240.25 Q 542.5 238.75 542.5 237.25 Q 542.5 235.75 542.5 235.25 Q 542.5 234.75 542.5 233.25 Q 542.5 231.75 542.5 231.25 Q 542.5 230.75 542.5 229.75 Q 542.5 228.75 542.5 228.25 Q 542.5 227.75 542 227.25 Q 541.5 226.75 541.5 226.25 Q 541.5 225.75 540.5 225.25 Q 539.5 224.75 537.5 223.75 Q 535.5 222.75 532.5 221.25 Q 529.5 219.75 525.5 218.75 Q 521.5 217.75 518.5 217.25 Q 515.5 216.75 512.5 215.75 Q 509.5 214.75 506.5 214.25 Q 503.5 213.75 500.5 213.75 Q 497.5 213.75 495 212.75 Q 492.5 211.75 489.5 211.75 Q 486.5 211.75 484.5 211.25 Q 482.5 210.75 480.5 210.75 Q 478.5 210.75 477 210.75 Q 475.5 210.75 474.5 210.75 Q 473.5 210.75 472 210.75 Q 470.5 210.75 468.5 211.25 Q 466.5 211.75 466 212.25 Q 465.5 212.75 464 213.25 Q 462.5 213.75 462 213.75 Q 461.5 213.75 461 214.25 Q 460.5 214.75 459.5 215.25 Q 458.5 215.75 456.5 217.25 Q 454.5 218.75 453.5 219.25 Q 452.5 219.75 451.5 220.25 Q 450.5 220.75 450 221.25 Q 449.5 221.75 448.5 222.25 Q 447.5 222.75 447 222.75 Q 446.5 222.75 446 223.25 Q 445.5 223.75 444 224.25 Q 442.5 224.75 442 225.25 Q 441.5 225.75 440.5 225.75 Q 439.5 225.75 439 226.25 Q 438.5 226.75 438 227.25 Q 437.5 227.75 437 228.25 Q 436.5 228.75 436 228.75 Q 435.5 228.75 434 230.25 Q 432.5 231.75 431.5 232.25 Q 430.5 232.75 430 233.25 Q 429.5 233.75 428.5 233.75 Q 427.5 233.75 427 234.75 Q 426.5 235.75 426 235.75 Q 425.5 235.75 425 236.25 Q 424.5 236.75 424 236.75 Q 423.5 236.75 423 236.75 Q 422.5 236.75 422.5 237.25 Q 422.5 237.75 422 237.75 Q 421.5 237.75 421 237.75 Q 420.5 237.75 420 237.75 Q 419.5 237.75 417.5 238.25 Q 415.5 238.75 413.5 238.75 Q 411.5 238.75 411 238.75 Q 410.5 238.75 410 238.75 Q 409.5 238.75 409 238.75 Q 408.5 238.75 408.5 238.25 Q 408.5 237.75 408 236.75 Q 407.5 235.75 407.5 234.75 Q 407.5 233.75 407.5 232.75 Q 407.5 231.75 407.5 228.25 Q 407.5 224.75 407.5 221.75 Q 407.5 218.75 407.5 216.25 Q 407.5 213.75 407.5 211.75 Q 407.5 209.75 407.5 206.25 Q 407.5 202.75 407.5 201.25 Q 407.5 199.75 407.5 197.75 Q 407.5 195.75 408 194.75 Q 408.5 193.75 408.5 193.25 Q 408.5 192.75 408.5 191.75 Q 408.5 190.75 408.5 190.25 Q 408.5 189.75 408.5 189.25 Q 408.5 188.75 408.5 187.25 Q 408.5 185.75 409 183.75 Q 409.5 181.75 409.5 179.25 Q 409.5 176.75 410 174.25 Q 410.5 171.75 410.5 169.25 Q 410.5 166.75 410.5 164.75 Q 410.5 162.75 410.5 161.25 Q 410.5 159.75 411 157.25 Q 411.5 154.75 412 152.75 Q 412.5 150.75 412.5 148.75 Q 412.5 146.75 412.5 144.75 Q 412.5 142.75 412.5 140.75 Q 412.5 138.75 412.5 136.25 Q 412.5 133.75 412.5 130.75 Q 412.5 127.75 412.5 124.25 Q 412.5 120.75 412.5 117.75 Q 412.5 114.75 412.5 112.25 Q 412.5 109.75 412.5 107.25 Q 412.5 104.75 412.5 100.75 Q 412.5 96.75 412.5 92.75 Q 412.5 88.75 412.5 86.25 Q 412.5 83.75 412.5 81.25 Q 412.5 78.75 412.5 76.25 Q 412.5 73.75 412 72.75 Q 411.5 71.75 411 66.75 Q 410.5 61.75 409.5 59.75 Q 408.5 57.75 408 55.75 Q 407.5 53.75 407 52.75 Q 406.5 51.75 406.5 49.25 Q 406.5 46.75 406 45.25 Q 405.5 43.75 405 41.75 Q 404.5 39.75 403.5 38.75 Q 402.5 37.75 401 35.25 Q 399.5 32.75 397.5 30.75 Q 395.5 28.75 394.5 26.75 Q 393.5 24.75 392.5 24.25 Q 391.5 23.75 391 23.25 Q 390.5 22.75 390 22.75 Q 389.5 22.75 387.5 21.75 Q 385.5 20.75 384.5 20.25 Q 383.5 19.75 382 19.25 Q 380.5 18.75 380 18.75 Q 379.5 18.75 377.5 18.25 Q 375.5 17.75 374 17.75 Q 372.5 17.75 371 17.25 Q 369.5 16.75 369 16.75 Q 368.5 16.75 368 16.75 Q 367.5 16.75 367 16.75 Q 366.5 16.75 366 17.25 Q 365.5 17.75 365 18.25 Q 364.5 18.75 364 19.75 Q 363.5 20.75 363 22.25 Q 362.5 23.75 361.5 26.75 Q 360.5 29.75 360 31.75 Q 359.5 33.75 359 36.75 Q 358.5 39.75 358 42.75 Q 357.5 45.75 357.5 48.25 Q 357.5 50.75 357 52.75 Q 356.5 54.75 356.5 56.75 Q 356.5 58.75 356.5 61.75 Q 356.5 64.75 356.5 67.75 Q 356.5 70.75 356 74.25 Q 355.5 77.75 355.5 82.25 Q 355.5 86.75 355.5 88.75 Q 355.5 90.75 355.5 94.25 Q 355.5 97.75 355.5 100.25 Q 355.5 102.75 355.5 105.25 Q 355.5 107.75 355.5 110.75 Q 355.5 113.75 355.5 116.25 Q 355.5 118.75 355.5 120.25 Q 355.5 121.75 355.5 123.75 Q 355.5 125.75 355.5 126.75 Q 355.5 127.75 355.5 129.25 Q 355.5 130.75 355.5 132.25 Q 355.5 133.75 355.5 134.75 Q 355.5 135.75 355.5 137.75 Q 355.5 139.75 355.5 141.25 Q 355.5 142.75 355.5 145.25 Q 355.5 147.75 355.5 150.25 Q 355.5 152.75 355.5 153.25 Q 355.5 153.75 355.5 154.75 Q 355.5 155.75 355 157.25 Q 354.5 158.75 354.5 159.75 Q 354.5 160.75 354 161.75 Q 353.5 162.75 353.5 163.75 Q 353.5 164.75 352.5 165.75 Q 351.5 166.75 351.5 167.25 Q 351.5 167.75 351 168.25 Q 350.5 168.75 350 169.25 Q 349.5 169.75 349.5 170.25 Q 349.5 170.75 348.5 171.25 Q 347.5 171.75 346.5 172.75 Q 345.5 173.75 344.5 174.25 Q 343.5 174.75 343 174.75 Q 342.5 174.75 341.5 174.75 Q 340.5 174.75 340 174.75 Q 339.5 174.75 339 174.75 Q 338.5 174.75 337.5 174.25 Q 336.5 173.75 335.5 172.75 Q 334.5 171.75 333.5 169.75 Q 332.5 167.75 330.5 164.25 Q 328.5 160.75 328 159.75 Q 327.5 158.75 326 153.25 Q 324.5 147.75 324 144.25 Q 323.5 140.75 322 135.75 Q 320.5 130.75 319 124.25 Q 317.5 117.75 316 112.25 Q 314.5 106.75 312 101.25 Q 309.5 95.75 307.5 91.25 Q 305.5 86.75 304 84.25 Q 302.5 81.75 301 78.75 Q 299.5 75.75 298.5 74.25 Q 297.5 72.75 295.5 70.75 Q 293.5 68.75 292 66.25 Q 290.5 63.75 289.5 62.25 Q 288.5 60.75 287.5 59.75 Q 286.5 58.75 285.5 57.25 Q 284.5 55.75 283 53.75 Q 281.5 51.75 279.5 49.75 Q 277.5 47.75 277 47.25 Q 276.5 46.75 275 45.25 Q 273.5 43.75 272.5 43.25 Q 271.5 42.75 271 42.75 Q 270.5 42.75 269.5 42.25 Q 268.5 41.75 266.5 40.75 Q 264.5 39.75 262 38.75 Q 259.5 37.75 255.5 36.75 Q 251.5 35.75 249 34.75 Q 246.5 33.75 244 33.25 Q 241.5 32.75 241 32.75 Q 240.5 32.75 240 32.75 Q 239.5 32.75 239 33.25 Q 238.5 33.75 238.5 34.25 Q 238.5 34.75 238 35.25 Q 237.5 35.75 237 38.25 Q 236.5 40.75 236.5 41.75 Q 236.5 42.75 236.5 44.25 Q 236.5 45.75 236.5 46.75 Q 236.5 47.75 236 50.25 Q 235.5 52.75 235.5 53.75 Q 235.5 54.75 235.5 56.75 Q 235.5 58.75 235.5 61.25 Q 235.5 63.75 235.5 65.25 Q 235.5 66.75 235.5 67.75 Q 235.5 68.75 236 70.25 Q 236.5 71.75 237 73.75 Q 237.5 75.75 238.5 77.25 Q 239.5 78.75 241 80.75 Q 242.5 82.75 243.5 83.75 Q 244.5 84.75 245.5 86.75 Q 246.5 88.75 247 89.75 Q 247.5 90.75 249 92.75 Q 250.5 94.75 251 95.25 Q 251.5 95.75 251.5 96.25 Q 251.5 96.75 253 98.75 Q 254.5 100.75 255 101.25 Q 255.5 101.75 256 102.75 Q 256.5 103.75 257.5 105.75 Q 258.5 107.75 259.5 109.25 Q 260.5 110.75 261.5 111.75 Q 262.5 112.75 264 115.75 Q 265.5 118.75 267 121.25 Q 268.5 123.75 269 126.75 Q 269.5 129.75 270.5 132.25 Q 271.5 134.75 272 136.75 Q 272.5 138.75 273 140.75 Q 273.5 142.75 273.5 144.75 Q 273.5 146.75 274 148.75 Q 274.5 150.75 274.5 152.25 Q 274.5 153.75 275 156.25 Q 275.5 158.75 275.5 160.25 Q 275.5 161.75 275.5 162.75 Q 275.5 163.75 275.5 165.25 Q 275.5 166.75 275.5 167.75 Q 275.5 168.75 275.5 170.25 Q 275.5 171.75 275.5 172.75 Q 275.5 173.75 275.5 174.25 Q 275.5 174.75 275.5 175.75 Q 275.5 176.75 275.5 177.25 Q 275.5 177.75 275 178.25 Q 274.5 178.75 274.5 179.25 Q 274.5 179.75 274 180.25 Q 273.5 180.75 273.5 181.25 Q 273.5 181.75 273 181.75 Q 272.5 181.75 272.5 182.25 Q 272.5 182.75 272 182.75 Q 271.5 182.75 271.5 183.25 Q 271.5 183.75 271 184.25 Q 270.5 184.75 270 185.25 Q 269.5 185.75 269 186.25 Q 268.5 186.75 268 186.75 Q 267.5 186.75 267 186.75 Q 266.5 186.75 266 186.75 Q 265.5 186.75 265 186.75 Q 264.5 186.75 262.5 186.75 Q 260.5 186.75 258 185.25 Q 255.5 183.75 253.5 181.75 Q 251.5 179.75 249.5 178.75 Q 247.5 177.75 246 176.25 Q 244.5 174.75 244 173.75 Q 243.5 172.75 242 170.75 Q 240.5 168.75 239.5 165.25 Q 238.5 161.75 237.5 159.25 Q 236.5 156.75 235 152.75 Q 233.5 148.75 231.5 145.75 Q 229.5 142.75 229 140.75 Q 228.5 138.75 228 137.25 Q 227.5 135.75 226.5 133.75 Q 225.5 131.75 225 129.75 Q 224.5 127.75 223.5 124.75 Q 222.5 121.75 221 118.75 Q 219.5 115.75 218.5 113.25 Q 217.5 110.75 216 107.75 Q 214.5 104.75 213.5 103.25 Q 212.5 101.75 211 98.75 Q 209.5 95.75 209 94.75 Q 208.5 93.75 207.5 92.75 Q 206.5 91.75 205 90.25 Q 203.5 88.75 203 88.25 Q 202.5 87.75 202 87.25 Q 201.5 86.75 200.5 86.25 Q 199.5 85.75 197.5 84.25 Q 195.5 82.75 194.5 82.25 Q 193.5 81.75 192.5 81.25 Q 191.5 80.75 190 80.75 Q 188.5 80.75 188 80.75 Q 187.5 80.75 187 80.75 Q 186.5 80.75 186 80.75 Q 185.5 80.75 184.5 80.75 Q 183.5 80.75 181 80.75 Q 178.5 80.75 178 81.25 Q 177.5 81.75 177 81.75 Q 176.5 81.75 175 82.75 Q 173.5 83.75 173 84.25 Q 172.5 84.75 171.5 85.25 Q 170.5 85.75 168.5 87.75 Q 166.5 89.75 166 90.25 Q 165.5 90.75 165.5 91.25 Q 165.5 91.75 165 93.75 Q 164.5 95.75 164 97.25 Q 163.5 98.75 163.5 100.75 Q 163.5 102.75 163.5 104.75 Q 163.5 106.75 163.5 109.25 Q 163.5 111.75 164 114.25 Q 164.5 116.75 166 119.75 Q 167.5 122.75 170 125.75 Q 172.5 128.75 175.5 132.25 Q 178.5 135.75 181 137.75 Q 183.5 139.75 186 142.25 Q 188.5 144.75 190 146.25 Q 191.5 147.75 193 150.25 Q 194.5 152.75 195.5 154.25 Q 196.5 155.75 197 157.75 Q 197.5 159.75 199 161.75 Q 200.5 163.75 201.5 165.75 Q 202.5 167.75 203 169.25 Q 203.5 170.75 205 173.25 Q 206.5 175.75 208 178.25 Q 209.5 180.75 211 182.75 Q 212.5 184.75 213 186.25 Q 213.5 187.75 214.5 189.75 Q 215.5 191.75 216.5 193.75 Q 217.5 195.75 219 198.75 Q 220.5 201.75 220.5 202.25 Q 220.5 202.75 221 204.75 Q 221.5 206.75 222 207.25 Q 222.5 207.75 222.5 208.75 Q 222.5 209.75 222.5 210.25 Q 222.5 210.75 222.5 211.25 Q 222.5 211.75 222.5 212.25 Q 222.5 212.75 223 213.25 Q 223.5 213.75 223.5 214.25 Q 223.5 214.75 223.5 215.25 Q 223.5 215.75 223.5 216.25 Q 223.5 216.75 223.5 217.25 Q 223.5 217.75 222 216.25 Q 220.5 214.75 217.5 213.75 Q 214.5 212.75 211 210.75 Q 207.5 208.75 203.5 206.75 Q 199.5 204.75 197.5 203.75 Q 195.5 202.75 194.5 202.75 Q 193.5 202.75 192.5 202.25 Q 191.5 201.75 191 200.75 Q 190.5 199.75 189.5 198.75 Q 188.5 197.75 187.5 196.75 Q 186.5 195.75 183 192.75 Q 179.5 189.75 178.5 188.75 Q 177.5 187.75 176 186.25 Q 174.5 184.75 173.5 183.75 Q 172.5 182.75 171 181.75 Q 169.5 180.75 167.5 179.25 Q 165.5 177.75 163.5 176.25 Q 161.5 174.75 160 173.25 Q 158.5 171.75 157.5 170.75 Q 156.5 169.75 155.5 169.25 Q 154.5 168.75 154 168.75 Q 153.5 168.75 153.5 168.25 Q 153.5 167.75 153 167.75 Q 152.5 167.75 152 167.75 Q 151.5 167.75 151 167.75 Q 150.5 167.75 149.5 167.75 Q 148.5 167.75 147 167.75 Q 145.5 167.75 144.5 167.75 Q 143.5 167.75 142 167.75 Q 140.5 167.75 139.5 167.75 Q 138.5 167.75 137.5 168.25 Q 136.5 168.75 135 168.75 Q 133.5 168.75 132.5 168.75 Q 131.5 168.75 130.5 168.75 Q 129.5 168.75 129 168.75 Q 128.5 168.75 128.5 169.25 Q 128.5 169.75 128 169.75 Q 127.5 169.75 127.5 170.25 Q 127.5 170.75 127.5 171.25 Q 127.5 171.75 127 172.25 Q 126.5 172.75 126.5 173.25 Q 126.5 173.75 126.5 174.25 Q 126.5 174.75 126.5 176.25 Q 126.5 177.75 126 178.75 Q 125.5 179.75 125.5 181.25 Q 125.5 182.75 125 184.25 Q 124.5 185.75 124.5 187.75 Q 124.5 189.75 124.5 190.25 Q 124.5 190.75 124.5 191.75 Q 124.5 192.75 124.5 194.25 Q 124.5 195.75 125 197.25 Q 125.5 198.75 126 200.75 Q 126.5 202.75 127 204.75 Q 127.5 206.75 128 208.25 Q 128.5 209.75 129 211.25 Q 129.5 212.75 130 214.75 Q 130.5 216.75 132 218.25 Q 133.5 219.75 135.5 222.25 Q 137.5 224.75 139.5 226.75 Q 141.5 228.75 143.5 230.75 Q 145.5 232.75 148.5 234.75 Q 151.5 236.75 155 239.25 Q 158.5 241.75 161.5 243.25 Q 164.5 244.75 166.5 245.75 Q 168.5 246.75 170.5 247.75 Q 172.5 248.75 174.5 249.25 Q 176.5 249.75 177.5 250.25 Q 178.5 250.75 180.5 251.25 Q 182.5 251.75 184.5 252.75 Q 186.5 253.75 189.5 254.75 Q 192.5 255.75 196 257.25 Q 199.5 258.75 202 259.75 Q 204.5 260.75 207 261.75 Q 209.5 262.75 211 263.75 Q 212.5 264.75 213.5 265.25 Q 214.5 265.75 216 266.25 Q 217.5 266.75 218 267.25 Q 218.5 267.75 219 268.25 Q 219.5 268.75 220 268.75 Q 220.5 268.75 221 268.75 Q 221.5 268.75 221.5 269.25 Q 221.5 269.75 222 270.75 Q 222.5 271.75 223 272.75 Q 223.5 273.75 224 275.25 Q 224.5 276.75 225 278.25 Q 225.5 279.75 225.5 280.75 Q 225.5 281.75 226 282.75 Q 226.5 283.75 226.5 284.25 Q 226.5 284.75 227 286.75 Q 227.5 288.75 227.5 289.75 Q 227.5 290.75 228 290.75 Q 228.5 290.75 228.5 292.25 Q 228.5 293.75 229 295.75 Q 229.5 297.75 229.5 299.25 Q 229.5 300.75 230 302.25 Q 230.5 303.75 230.5 305.25 Q 230.5 306.75 230.5 307.75 Q 230.5 308.75 230.5 310.25 Q 230.5 311.75 231 312.25 Q 231.5 312.75 231.5 314.25 Q 231.5 315.75 231.5 316.75 Q 231.5 317.75 232 318.25 Q 232.5 318.75 232.5 319.75 Q 232.5 320.75 233 321.75 Q 233.5 322.75 233.5 323.75 Q 233.5 324.75 234 325.25 Q 234.5 325.75 234.5 326.75 Q 234.5 327.75 234.5 328.25 Q 234.5 328.75 235 329.25 Q 235.5 329.75 235.5 331.25 Q 235.5 332.75 236 333.75 Q 236.5 334.75 237 336.75 Q 237.5 338.75 237.5 339.75 Q 237.5 340.75 238 342.25 Q 238.5 343.75 238.5 344.25 Q 238.5 344.75 238.5 345.25 Q 238.5 345.75 238.5 346.25 Q 238.5 346.75 239 347.75 Q 239.5 348.75 239.5 349.25 Q 239.5 349.75 239.5 350.25 Q 239.5 350.75 240 351.25 Q 240.5 351.75 240.5 352.75 Q 240.5 353.75 240.5 354.25 Q 240.5 354.75 240.5 355.25 Q 240.5 355.75 240.5 356.25 Q 240.5 356.75 240.5 357.25 Q 240.5 357.75 241 357.75 Q 241.5 357.75 241.5 358.25 Q 241.5 358.75 241.5 359.25 Q 241.5 359.75 241.5 360.25 Q 241.5 360.75 241.5 361.25 Q 241.5 361.75 241.5 362.25 Q 241.5 362.75 241.5 363.25 Q 241.5 363.75 241.5 364.75 Q 241.5 365.75 241.5 366.25 Q 241.5 366.75 241.5 367.25 Q 241.5 367.75 241.5 368.25 Q 241.5 368.75 241.5 369.25 Q 241.5 369.75 241.5 370.25 Q 241.5 370.75 241.5 371.75 Q 241.5 372.75 241.5 373.75 L 241.5 374.775" stroke-linecap="round" />
</g>
<g transform="matrix(1 0 0 1 291.01 364.74)"  >
<path style="stroke: rgb(0,0,0); stroke-width: 25; stroke-dasharray: none; stroke-linecap: round; stroke-dashoffset: 0; stroke-linejoin: round; stroke-miterlimit: 10; fill: none; fill-rule: nonzero; opacity: 1;"  transform=" translate(-291.01, -364.74)" d="M 242.5 356.725 Q 242.5 356.75 243 356.75 Q 243.5 356.75 243.5 357.25 Q 243.5 357.75 244 358.25 Q 244.5 358.75 245.5 359.25 Q 246.5 359.75 248 360.75 Q 249.5 361.75 251.5 362.25 Q 253.5 362.75 255 363.25 Q 256.5 363.75 258 364.25 Q 259.5 364.75 262.5 365.25 Q 265.5 365.75 268.5 366.75 Q 271.5 367.75 273.5 367.75 Q 275.5 367.75 277 368.25 Q 278.5 368.75 279.5 369.25 Q 280.5 369.75 281 370.25 Q 281.5 370.75 282.5 370.75 Q 283.5 370.75 284.5 371.25 Q 285.5 371.75 286 371.75 Q 286.5 371.75 288.5 371.75 Q 290.5 371.75 291.5 372.25 Q 292.5 372.75 295.5 372.75 Q 298.5 372.75 300.5 372.75 Q 302.5 372.75 305 372.75 Q 307.5 372.75 309.5 372.75 Q 311.5 372.75 313.5 372.75 Q 315.5 372.75 317 372.75 Q 318.5 372.75 319.5 372.75 Q 320.5 372.75 321.5 372.75 Q 322.5 372.75 324 372.25 Q 325.5 371.75 326.5 371.75 Q 327.5 371.75 329 371.75 Q 330.5 371.75 331.5 371.75 Q 332.5 371.75 333 371.25 Q 333.5 370.75 334.5 370.75 Q 335.5 370.75 336 370.25 Q 336.5 369.75 338 369.25 L 339.525 368.725" stroke-linecap="round" />
</g>
<g transform="matrix(1 0 0 1 291.99 270.75)"  >
<path style="stroke: rgb(0,0,0); stroke-width: 25; stroke-dasharray: none; stroke-linecap: round; stroke-dashoffset: 0; stroke-linejoin: round; stroke-miterlimit: 10; fill: none; fill-rule: nonzero; opacity: 1;"  transform=" translate(-291.99, -270.75)" d="M 285.475 247.725 Q 285.5 247.75 285.5 248.25 Q 285.5 248.75 286 249.75 Q 286.5 250.75 286.5 251.75 Q 286.5 252.75 287 255.25 Q 287.5 257.75 288 260.25 Q 288.5 262.75 288.5 266.25 Q 288.5 269.75 289 272.25 Q 289.5 274.75 290 277.75 Q 290.5 280.75 291.5 282.75 Q 292.5 284.75 293.5 286.75 Q 294.5 288.75 295.5 289.75 Q 296.5 290.75 297.5 291.75 Q 298.5 292.75 298.5 293.25 L 298.5 293.775" stroke-linecap="round" />
</g>
<g transform="matrix(1 0 0 1 345.5 267.25)"  >
<path style="stroke: rgb(0,0,0); stroke-width: 25; stroke-dasharray: none; stroke-linecap: round; stroke-dashoffset: 0; stroke-linejoin: round; stroke-miterlimit: 10; fill: none; fill-rule: nonzero; opacity: 1;"  transform=" translate(-345.5, -267.25)" d="M 346.5 236.725 Q 346.5 236.75 346.5 238.25 Q 346.5 239.75 346.5 241.25 Q 346.5 242.75 346.5 244.75 Q 346.5 246.75 346.5 249.25 Q 346.5 251.75 346.5 254.25 Q 346.5 256.75 346.5 259.75 Q 346.5 262.75 346.5 264.75 Q 346.5 266.75 346.5 268.75 Q 346.5 270.75 346.5 274.25 Q 346.5 277.75 346.5 281.75 Q 346.5 285.75 346.5 287.75 Q 346.5 289.75 346 291.25 Q 345.5 292.75 345 294.25 Q 344.5 295.75 344.5 296.25 Q 344.5 296.75 344.5 297.25 L 344.5 297.775" stroke-linecap="round" />
</g>
</svg>