<svg width="800" height="600" xmlns="http://www.w3.org/2000/svg">
 <g id="Layer_1">
  <title>Layer 1</title>
  <path stroke="#000" d="m339.46396,481.81436c0,0 0.01311,-0.26262 1.01567,0c1.58518,0.41522 3.55486,0.81973 5.58621,1.63946c2.03135,0.81973 5.60351,0.25432 9.14106,0.81973c2.57687,0.41187 5.51797,1.91267 6.60188,2.4592c3.4276,1.7283 6.09404,0.81973 9.14106,0.81973c3.55486,0 5.58621,0 7.61755,0c2.03135,0 2.53918,0 4.0627,0c0.50784,0 1.98451,-1.2265 4.0627,-1.63946c0.50402,-0.10017 1.01567,0 1.52351,0c0.50784,0 1.02556,-0.32311 3.04702,0c2.57688,0.41187 3.55486,0.81973 4.0627,0.81973c0,0 0.08135,-0.83031 0,-1.63946c-0.25724,-2.55874 -1.26835,-6.49702 -1.52351,-10.65652c-0.20017,-3.26297 0,-6.55786 0,-9.01706c0,-2.4592 0,-5.73813 0,-8.19732c0,-3.27893 0.07064,-4.89723 0.50784,-9.01706c0.60628,-5.71319 1.17347,-9.90258 1.52351,-12.29599c0.26089,-1.78393 1.01567,-4.09866 1.01567,-4.91839c0,-0.81973 0,-1.63946 0,-1.63946c0,-0.81973 0.50784,-0.81973 0.50784,-2.4592c0,0 0.233,-0.56844 0.50784,-1.63946c0.19434,-0.75734 -0.35909,-1.05984 0,-1.63946c0.35909,-0.57963 0.50784,0 0.50784,-0.81973c0,-0.81973 0.50784,-1.63946 0.50784,-2.4592c0,0 0.233,0.25129 0.50784,-0.81973c0.19434,-0.75734 0,-0.81973 0.50784,-1.63946c0,0 0.31349,-0.88212 0.50784,-1.63946c0.27484,-1.07102 1.37394,-1.92325 2.53918,-3.27893c0.92121,-1.07177 2.11223,-2.14004 3.55486,-3.27893c1.64484,-1.29854 3.51441,-3.41662 5.58621,-4.91839c2.49478,-1.80837 5.53686,-2.64299 6.60188,-3.27893c1.96381,-1.17261 1.93101,-1.17459 5.07837,-3.27893c1.48368,-0.99199 2.38351,-2.01556 3.04702,-2.4592c0.93835,-0.62741 1.21214,-0.75219 2.53918,-1.63946c0.46919,-0.3137 1.16442,-0.24011 1.52351,-0.81973c0.35909,-0.57963 0.42649,-0.83031 0.50784,-1.63946c0.25724,-2.55874 0.93809,-3.3128 1.52351,-6.55786c0.44899,-2.48884 1.83294,-8.03132 2.53918,-12.29599c0.92734,-5.59977 2.2844,-10.60566 2.53918,-15.57491c0.20944,-4.08469 0.50784,-5.73813 0.50784,-6.55786c0,-1.63946 -0.35909,-1.87956 0,-2.4592c0.35909,-0.57964 0.50784,-0.81973 0.50784,-0.81973c0,0 0,-0.81973 0,-0.81973c0,-0.81973 0,-0.81973 -0.50784,-0.81973c0,0 -1.0195,-0.17433 -2.53918,0c-3.58192,0.4109 -4.88438,2.16646 -8.12539,4.91839c-2.42035,2.05511 -4.55189,2.59069 -6.60188,3.27893c-3.02433,1.01535 -5.07837,0.81973 -6.60188,1.63946c-1.52351,0.81973 -3.32591,1.60272 -5.07837,2.4592c-1.45814,0.71264 -2.54574,0.68842 -3.04702,0.81973c-1.58518,0.41523 -2.44968,2.03806 -3.55486,2.4592c-0.98851,0.37667 -2.01492,0.91556 -5.58621,2.4592c-2.02261,0.87424 -2.38351,1.19583 -3.04702,1.63946c-0.46919,0.3137 -0.3517,0.15247 -1.01567,1.63946c-0.41993,0.94045 -0.50784,0.81973 -0.50784,0.81973c0.50784,-1.63946 2.10199,-4.89723 2.53918,-9.01706c0.60628,-5.71317 0.50784,-13.11572 0.50784,-19.67358c0,-11.47625 0.39786,-17.32707 -0.50784,-23.77224c-1.06573,-7.58401 -2.07236,-12.2833 -2.53918,-16.39465c-0.5569,-4.90454 -0.77172,-10.71785 -1.52351,-17.21438c-0.76895,-6.64475 -1.8404,-10.70245 -2.53918,-17.21438c-0.79909,-7.44667 -1.77551,-10.58093 -2.03135,-13.93545c-0.2482,-3.25436 -0.04113,-5.82584 -0.50784,-9.01706c-0.26089,-1.78395 -0.50784,-3.27893 -0.50784,-4.91839c0,-0.81973 -0.75844,-3.17938 -1.01567,-5.73813c-0.08135,-0.80915 0.38869,-4.22346 0,-5.73813c-0.27484,-1.07103 -1.01567,-2.4592 -1.01567,-4.09866c0,0 -0.50784,-0.81973 -0.50784,-0.81973c0,-0.81973 0,-0.81973 -0.50784,-0.81973c0,0 -0.50784,0 -1.01567,0c-0.50784,0 -1.11013,0.56771 -2.03135,1.63946c-0.58263,0.67784 -1.52351,2.4592 -2.53918,4.09866c0,0 -1.22838,1.98282 -2.03135,3.27893c-0.80296,1.29611 -1.52351,1.63946 -2.53918,1.63946c-0.50784,0 -0.92617,2.03807 -2.03135,2.4592c-0.49425,0.18833 -0.94088,0.96162 -1.52351,1.63946c-0.92121,1.07176 -1.9895,1.9566 -2.53918,4.09866c-0.38869,1.51466 -0.86555,4.93036 -1.01567,7.37759c-0.25516,4.15949 -1.01567,7.37759 -1.01567,10.65652c0,4.09866 0,9.01706 0,13.11572c0,3.27893 0,6.55786 0,9.83679c0,5.73813 0,8.19732 0,13.11572c0,2.4592 0,6.55786 0,8.19732c0,2.4592 0,5.73813 0,9.01706c0,3.27893 0,4.91839 0,5.73813c0,0.81973 0,1.63946 0,1.63946c0,0 0,0.81973 0,1.63946c0,0 0,0.81973 0,2.4592c0,0.81973 0,2.4592 0,3.27893c0,0 0.35909,0.57964 0,0c-0.35909,-0.57964 -0.46595,-0.82252 -0.50784,-1.63946c-0.25479,-4.96925 -1.01567,-7.37759 -2.03135,-12.29599c-1.52351,-7.37759 -2.9295,-12.7984 -4.0627,-17.21438c-1.60257,-6.24513 -2.86845,-10.18644 -5.07837,-14.75518c-1.82234,-3.76748 -2.90685,-5.92071 -4.57053,-9.01706c-0.94112,-1.75156 -2.57784,-4.6047 -3.04702,-4.91839c-1.99056,-1.33091 -4.57053,-5.73813 -7.10972,-8.19732c-2.53918,-2.4592 -5.07837,-5.73813 -6.60188,-8.19732c-2.03135,-3.27893 -3.75043,-6.04308 -5.07837,-9.01706c-0.83987,-1.88091 -1.67225,-1.87956 -2.03135,-2.4592c-0.3591,-0.57964 0.15568,-0.44364 -0.50784,0c-0.46918,0.3137 -0.50784,0.81973 -1.01567,1.63946c-0.50784,0.81973 -0.75477,1.49498 -1.01567,3.27893c-0.23335,1.5956 -0.27448,2.50306 -0.50784,4.09866c-0.2609,1.78395 -0.74083,2.2079 -1.01567,3.27893c-0.38868,1.51466 -0.50784,2.4592 -0.50784,4.09866c0,0.81973 0.46671,1.72718 0,4.91839c-0.2609,1.78395 -0.50784,4.09866 -0.50784,6.55786c0,2.4592 0,4.09866 0.50784,6.55786c0.50784,2.4592 0.79402,4.93797 1.01567,8.19732c0.51089,7.51243 1.9267,11.54792 3.04702,15.57491c0.93037,3.34423 2.03135,5.73813 3.04702,9.01706c0,0 0.899,1.66139 1.01567,2.4592c0.2609,1.78395 1.37393,2.74298 2.53918,4.09866c0.92121,1.07176 1.837,3.34133 2.03135,4.09866c0.27484,1.07103 1.24867,2.2079 1.52351,3.27893c0.19434,0.75733 0.75477,1.49498 1.01567,3.27893c0.11668,0.79781 0.50784,1.63946 0.50784,2.4592c0,0.81973 0.50784,1.63946 0.50784,1.63946c0,0 0,0 -0.50784,0c-1.01567,0 -1.37833,-0.99325 -2.53918,-3.27893c-1.8213,-3.58607 -7.48433,-10.03138 -11.17241,-16.39465c-3.43459,-5.9259 -7.22791,-10.43785 -10.15674,-14.75518c-2.12131,-3.12698 -3.10061,-8.89086 -6.09404,-12.29599c-1.71156,-1.94695 -2.85675,-2.79825 -5.07837,-5.73813c-1.41602,-1.8738 -2.97224,-3.42082 -3.55486,-4.09866c-0.92121,-1.07176 -1.52351,-1.63946 -2.03135,-1.63946c-1.01567,0 -1.52351,0 -2.53918,0c-1.01567,0 -1.60169,-0.77767 -3.04702,0c-2.40888,1.29612 -3.66236,3.04459 -5.07837,4.91839c-0.55541,0.73496 -0.50784,1.63946 -0.50784,2.4592c0,0.81973 -0.252,2.38361 -0.50784,5.73813c-0.18615,2.44077 0,6.55786 0,10.65652c0,3.27893 -0.32452,9.13364 0.50784,13.93545c0.7369,4.25112 2.61421,7.3312 3.55486,11.47625c0.55237,2.43406 1.43445,4.14894 2.53918,9.01706c0.94065,4.14505 2.89869,8.50929 5.07837,13.11572c2.48522,5.25214 6.97861,13.38392 10.15674,17.21438c2.93433,3.53662 6.17493,5.41896 7.61755,6.55786c1.64484,1.29854 3.20446,1.91612 4.57053,3.27893c0.61093,0.60947 1.68095,1.91612 3.04702,3.27893c0.61093,0.60947 2.77218,2.20791 3.04702,3.27893c0.19434,0.75734 0.35215,1.19583 1.01567,1.63946c0.46918,0.3137 -0.50784,0 -1.01567,0c-2.53918,0 -6.51263,-0.36789 -10.15674,-2.4592c-6.96699,-3.99828 -10.72131,-4.47671 -16.25078,-6.55786c-3.60053,-1.35514 -6.54021,-2.8637 -8.12539,-3.27893c-1.50384,-0.39392 -2.3835,-0.37609 -3.04702,-0.81973c-0.46918,-0.3137 -0.50784,0 -1.01567,0c-0.50784,0 -0.6023,-0.25203 -1.52351,0.81973c-0.58263,0.67784 -1.01567,1.63946 -1.01567,1.63946c-0.50784,0.81973 -1.21214,3.21139 -2.53918,4.09866c-0.46918,0.3137 -0.68365,0.57829 -1.52351,2.4592c-0.66397,1.48699 -0.50784,2.4592 -1.01567,2.4592c0,0 0,0.81973 0,0.81973c0,0 0,0.81973 0,1.63946c0,0.81973 0.6217,4.01901 1.01567,5.73813c0.72646,3.16991 1.65142,4.83051 2.03135,6.55786c1.56651,7.122 2.64668,9.60244 4.0627,11.47625c2.22163,2.93988 4.0627,5.73813 6.60188,9.01706c2.53918,3.27893 8.67763,5.56922 11.17241,7.37759c2.07181,1.50178 4.53285,2.86706 7.10972,3.27893c1.5161,0.24233 3.04702,0 4.0627,0c1.01567,0 1.434,-1.21834 2.53918,-1.63946c0.98851,-0.37667 1.01567,0 1.01567,0c0.50784,-0.81973 1.01567,-0.81973 1.01567,-0.81973c1.01567,0 2.5544,-0.40064 4.57053,0c2.07817,0.41297 2.98535,1.22425 4.57053,1.63946c1.00256,0.26262 1.01567,0 1.52351,0c0,0 0.50784,0 1.01567,0.81973c0,0 0.14874,-0.57963 0.50784,0c0.3591,0.57963 0.14874,0.24011 0.50784,0.81973c0.3591,0.57963 0.0879,0.699 0.50784,1.63946c0.66397,1.48699 1.24867,2.20791 1.52351,3.27893c0.38868,1.51466 1.1123,4.00155 2.03135,6.55786c1.13994,3.17071 1.61142,4.79767 2.03135,5.73813c0.66397,1.48699 0.50784,1.63946 1.01567,3.27893c0,0 0.60447,0.72262 1.52351,3.27893c0.56997,1.58535 0.22072,4.22242 1.52351,5.73813c0.82396,0.95862 1.52351,1.63946 2.03135,2.4592c0.50784,0.81973 0.50784,1.63946 1.01567,1.63946c0,0 0,0.81973 0,0.81973c0.50784,2.4592 0.899,2.48114 1.01567,3.27893c0.2609,1.78393 0.50784,3.27893 1.01567,4.91839c0,0 0.233,0.56844 0.50784,1.63946c0.19434,0.75734 0.50784,0.81973 0.50784,1.63946c0,0.81973 0,2.4592 0,2.4592c0.50784,0 0.50784,0.81973 0.50784,1.63946c0,0.81973 0,0.81973 0,1.63946c0,0 0.50784,0.81973 0.50784,0.81973c0,0.81973 0,0.81973 0,1.63946l0,0.81973l0,0" id="svg_1" stroke-width="20" fill="none"/>
  <path stroke="#000" d="m519.07837,388.5495c0,0 -0.01279,-0.23032 -0.9906,0c-1.54604,0.36415 -3.46708,0.7189 -5.44828,1.43781c-1.98119,0.7189 -5.46515,0.22303 -8.91536,0.7189c-2.51324,0.36121 -5.38172,1.67741 -6.43887,2.15671c-3.34297,1.51572 -5.94357,0.7189 -8.91536,0.7189c-3.46708,0 -5.44828,0 -7.42947,0c-1.98119,0 -2.47649,0 -3.96238,0c-0.4953,0 -1.93551,-1.07564 -3.96238,-1.43781c-0.49158,-0.08784 -0.9906,0 -1.48589,0c-0.4953,0 -1.00024,-0.28337 -2.97179,0c-2.51325,0.36121 -3.46708,0.7189 -3.96238,0.7189c0,0 -0.07934,-0.72819 0,-1.43781c0.25088,-2.24401 1.23704,-5.69788 1.48589,-9.34576c0.19523,-2.86162 0,-5.75124 0,-7.90795c0,-2.15671 0,-5.03233 0,-7.18905c0,-2.87562 -0.0689,-4.29487 -0.4953,-7.90795c-0.59131,-5.01046 -1.1445,-8.68456 -1.48589,-10.78357c-0.25445,-1.56451 -0.9906,-3.59452 -0.9906,-4.31343c0,-0.7189 0,-1.43781 0,-1.43781c0,-0.7189 -0.4953,-0.7189 -0.4953,-2.15671c0,0 -0.22724,-0.49852 -0.4953,-1.43781c-0.18955,-0.66419 0.35022,-0.92948 0,-1.43781c-0.35022,-0.50833 -0.4953,0 -0.4953,-0.7189c0,-0.7189 -0.4953,-1.43781 -0.4953,-2.15671c0,0 -0.22724,0.22038 -0.4953,-0.7189c-0.18955,-0.66419 0,-0.7189 -0.4953,-1.43781c0,0 -0.30575,-0.77362 -0.4953,-1.43781c-0.26806,-0.93928 -1.34001,-1.68669 -2.47649,-2.87562c-0.89847,-0.93994 -2.06008,-1.87682 -3.46708,-2.87562c-1.60423,-1.13882 -3.42763,-2.99637 -5.44828,-4.31343c-2.43319,-1.58594 -5.40015,-2.3179 -6.43887,-2.87562c-1.91532,-1.02838 -1.88334,-1.03011 -4.95298,-2.87562c-1.44705,-0.86998 -2.32466,-1.76764 -2.97179,-2.15671c-0.91519,-0.55024 -1.18221,-0.65967 -2.47649,-1.43781c-0.4576,-0.27512 -1.13567,-0.21057 -1.48589,-0.7189c-0.35022,-0.50833 -0.41596,-0.72819 -0.4953,-1.43781c-0.25088,-2.24401 -0.91493,-2.90532 -1.48589,-5.75124c-0.4379,-2.18271 -1.78768,-7.04346 -2.47649,-10.78357c-0.90444,-4.911 -2.22799,-9.30116 -2.47649,-13.65919c-0.20427,-3.58227 -0.4953,-5.03233 -0.4953,-5.75124c0,-1.43781 0.35022,-1.64837 0,-2.15671c-0.35022,-0.50834 -0.4953,-0.7189 -0.4953,-0.7189c0,0 0,-0.7189 0,-0.7189c0,-0.7189 0,-0.7189 0.4953,-0.7189c0,0 0.99433,-0.15288 2.47649,0c3.49347,0.36037 4.76378,1.89998 7.92476,4.31343c2.36058,1.80233 4.4395,2.27204 6.43887,2.87562c2.94966,0.89046 4.95298,0.7189 6.43887,1.43781c1.48589,0.7189 3.24378,1.40558 4.95298,2.15671c1.42214,0.62498 2.48288,0.60374 2.97179,0.7189c1.54604,0.36416 2.3892,1.78738 3.46708,2.15671c0.9641,0.33034 1.96517,0.80294 5.44828,2.15671c1.97267,0.76671 2.32466,1.04874 2.97179,1.43781c0.4576,0.27512 0.34301,0.13372 0.9906,1.43781c0.40956,0.82477 0.4953,0.7189 0.4953,0.7189c-0.4953,-1.43781 -2.05009,-4.29487 -2.47649,-7.90795c-0.59131,-5.01045 -0.4953,-11.50247 -0.4953,-17.25371c0,-10.06467 -0.38804,-15.19583 0.4953,-20.84824c1.03942,-6.65118 2.02119,-10.77245 2.47649,-14.37809c0.54315,-4.30127 0.75266,-9.39954 1.48589,-15.097c0.74996,-5.82744 1.79495,-9.38604 2.47649,-15.097c0.77936,-6.53072 1.73167,-9.27946 1.98119,-12.22138c0.24207,-2.85407 0.04011,-5.10926 0.4953,-7.90795c0.25445,-1.56452 0.4953,-2.87562 0.4953,-4.31343c0,-0.7189 0.73971,-2.78831 0.9906,-5.03233c0.07934,-0.70962 -0.37909,-3.70397 0,-5.03233c0.26806,-0.93929 0.9906,-2.15671 0.9906,-3.59452c0,0 0.4953,-0.7189 0.4953,-0.7189c0,-0.7189 0,-0.7189 0.4953,-0.7189c0,0 0.4953,0 0.9906,0c0.4953,0 1.08272,0.49788 1.98119,1.43781c0.56825,0.59446 1.48589,2.15671 2.47649,3.59452c0,0 1.19805,1.73893 1.98119,2.87562c0.78314,1.13669 1.48589,1.43781 2.47649,1.43781c0.4953,0 0.9033,1.78738 1.98119,2.15671c0.48204,0.16517 0.91765,0.84335 1.48589,1.43781c0.89847,0.93993 1.94038,1.71593 2.47649,3.59452c0.37909,1.32836 0.84418,4.32392 0.9906,6.47014c0.24886,3.64787 0.9906,6.47014 0.9906,9.34576c0,3.59452 0,7.90795 0,11.50247c0,2.87562 0,5.75124 0,8.62686c0,5.03233 0,7.18905 0,11.50247c0,2.15671 0,5.75124 0,7.18905c0,2.15671 0,5.03233 0,7.90795c0,2.87562 0,4.31343 0,5.03233c0,0.7189 0,1.43781 0,1.43781c0,0 0,0.7189 0,1.43781c0,0 0,0.7189 0,2.15671c0,0.7189 0,2.15671 0,2.87562c0,0 -0.35022,0.50834 0,0c0.35022,-0.50834 0.45444,-0.72135 0.4953,-1.43781c0.2485,-4.35803 0.9906,-6.47014 1.98119,-10.78357c1.48589,-6.47014 2.85717,-11.22419 3.96238,-15.097c1.56301,-5.47698 2.79763,-8.9335 4.95298,-12.94028c1.77735,-3.30408 2.83507,-5.19245 4.45768,-7.90795c0.91789,-1.53612 2.5142,-4.03832 2.97179,-4.31343c1.94141,-1.16721 4.45768,-5.03233 6.93417,-7.18905c2.47649,-2.15671 4.95298,-5.03233 6.43887,-7.18905c1.98119,-2.87562 3.65782,-5.29978 4.95298,-7.90795c0.81913,-1.64956 1.63096,-1.64837 1.98119,-2.15671c0.35023,-0.50834 -0.15184,-0.38907 0.4953,0c0.45759,0.27511 0.4953,0.7189 0.9906,1.43781c0.4953,0.7189 0.73614,1.3111 0.9906,2.87562c0.22759,1.39935 0.26771,2.19518 0.4953,3.59452c0.25446,1.56452 0.72254,1.93633 0.9906,2.87562c0.37909,1.32836 0.4953,2.15671 0.4953,3.59452c0,0.7189 -0.45518,1.51473 0,4.31343c0.25446,1.56452 0.4953,3.59452 0.4953,5.75124c0,2.15671 0,3.59452 -0.4953,5.75124c-0.4953,2.15671 -0.77442,4.3306 -0.9906,7.18905c-0.49827,6.58839 -1.87913,10.12752 -2.97179,13.65919c-0.9074,2.93289 -1.98119,5.03233 -2.97179,7.90795c0,0 -0.8768,1.45704 -0.9906,2.15671c-0.25446,1.56452 -1.34001,2.40559 -2.47649,3.59452c-0.89847,0.93993 -1.79165,2.93035 -1.98119,3.59452c-0.26806,0.93929 -1.21784,1.93633 -1.48589,2.87562c-0.18955,0.66417 -0.73614,1.3111 -0.9906,2.87562c-0.11379,0.69967 -0.4953,1.43781 -0.4953,2.15671c0,0.7189 -0.4953,1.43781 -0.4953,1.43781c0,0 0,0 0.4953,0c0.9906,0 1.3443,-0.87108 2.47649,-2.87562c1.77633,-3.14498 7.29953,-8.79751 10.89655,-14.37809c3.34979,-5.19701 7.04944,-9.15399 9.90596,-12.94028c2.06893,-2.74236 3.02406,-7.79728 5.94357,-10.78357c1.6693,-1.70748 2.78621,-2.45407 4.95298,-5.03233c1.38105,-1.64332 2.89885,-3.00006 3.46708,-3.59452c0.89847,-0.93993 1.48589,-1.43781 1.98119,-1.43781c0.9906,0 1.48589,0 2.47649,0c0.9906,0 1.56214,-0.68201 2.97179,0c2.34941,1.1367 3.57193,2.67011 4.95298,4.31343c0.54169,0.64456 0.4953,1.43781 0.4953,2.15671c0,0.7189 0.24578,2.09042 0.4953,5.03233c0.18155,2.14055 0,5.75124 0,9.34576c0,2.87562 0.31651,8.0102 -0.4953,12.22138c-0.71871,3.72823 -2.54966,6.42946 -3.46708,10.06467c-0.53873,2.13467 -1.39903,3.63862 -2.47649,7.90795c-0.91743,3.63521 -2.82712,7.46264 -4.95298,11.50247c-2.42386,4.60612 -6.8063,11.73769 -9.90596,15.097c-2.86188,3.10161 -6.02246,4.75242 -7.42947,5.75124c-1.60423,1.13882 -3.12533,1.68043 -4.45768,2.87562c-0.59584,0.53451 -1.63944,1.68043 -2.97179,2.87562c-0.59584,0.53451 -2.70373,1.93633 -2.97179,2.87562c-0.18955,0.66419 -0.34346,1.04874 -0.9906,1.43781c-0.45759,0.27512 0.4953,0 0.9906,0c2.47649,0 6.35182,-0.32264 9.90596,-2.15671c6.79497,-3.50649 10.45659,-3.92607 15.84953,-5.75124c3.51163,-1.18846 6.37872,-2.51146 7.92476,-2.87562c1.46671,-0.34547 2.32465,-0.32983 2.97179,-0.7189c0.4576,-0.27512 0.4953,0 0.9906,0c0.4953,0 0.58742,-0.22103 1.48589,0.7189c0.56824,0.59446 0.9906,1.43781 0.9906,1.43781c0.4953,0.7189 1.18221,2.81638 2.47649,3.59452c0.4576,0.27512 0.66676,0.50716 1.48589,2.15671c0.64758,1.30409 0.4953,2.15671 0.9906,2.15671c0,0 0,0.7189 0,0.7189c0,0 0,0.7189 0,1.43781c0,0.7189 -0.60635,3.52467 -0.9906,5.03233c-0.70852,2.78 -1.61064,4.23635 -1.98119,5.75124c-1.52783,6.24599 -2.58133,8.42133 -3.96238,10.06467c-2.16677,2.57828 -3.96238,5.03233 -6.43887,7.90795c-2.47649,2.87562 -8.46337,4.8842 -10.89655,6.47014c-2.02065,1.31705 -4.42093,2.51441 -6.93417,2.87562c-1.47866,0.21252 -2.97179,0 -3.96238,0c-0.9906,0 -1.3986,-1.06849 -2.47649,-1.43781c-0.9641,-0.33034 -0.9906,0 -0.9906,0c-0.4953,-0.7189 -0.9906,-0.7189 -0.9906,-0.7189c-0.9906,0 -2.49133,-0.35136 -4.45768,0c-2.02686,0.36217 -2.91164,1.07366 -4.45768,1.43781c-0.97781,0.23032 -0.9906,0 -1.48589,0c0,0 -0.4953,0 -0.9906,0.7189c0,0 -0.14507,-0.50833 -0.4953,0c-0.35023,0.50833 -0.14507,0.21057 -0.4953,0.7189c-0.35023,0.50833 -0.08574,0.61302 -0.4953,1.43781c-0.64758,1.30409 -1.21784,1.93633 -1.48589,2.87562c-0.37909,1.32836 -1.08484,3.50935 -1.98119,5.75124c-1.11179,2.78071 -1.57163,4.20755 -1.98119,5.03233c-0.64758,1.30409 -0.4953,1.43781 -0.9906,2.87562c0,0 -0.58954,0.63374 -1.48589,2.87562c-0.55589,1.39035 -0.21527,3.70306 -1.48589,5.03233c-0.80361,0.84071 -1.48589,1.43781 -1.98119,2.15671c-0.4953,0.7189 -0.4953,1.43781 -0.9906,1.43781c0,0 0,0.7189 0,0.7189c-0.4953,2.15671 -0.8768,2.17595 -0.9906,2.87562c-0.25446,1.56451 -0.4953,2.87562 -0.9906,4.31343c0,0 -0.22724,0.49852 -0.4953,1.43781c-0.18955,0.66419 -0.4953,0.7189 -0.4953,1.43781c0,0.7189 0,2.15671 0,2.15671c-0.4953,0 -0.4953,0.7189 -0.4953,1.43781c0,0.7189 0,0.7189 0,1.43781c0,0 -0.4953,0.7189 -0.4953,0.7189c0,0.7189 0,0.7189 0,1.43781l0,0.7189l0,0" id="svg_2" stroke-width="20" fill="none"/>
 </g>
</svg>