<svg width="800" height="600" xmlns="http://www.w3.org/2000/svg">
 <g id="Layer_1">
  <title>Layer 1</title>
  <path d="m314,144.5c0,1 -0.09543,4.97734 -1,9c-1.11865,4.97479 -1.83981,12.0289 -3,18c-1.75848,9.05029 -4.10648,17.99084 -5,29c-1.13541,13.98967 -4.34503,31.95158 -6,45c-1.26453,9.97 -2.57422,19.90213 -4,30c-1.68353,11.92334 -2,24 -2,38c0,13 0,26 0,37c0,12 0,27 0,37c0,11 -0.45715,21.00949 0,32c0.50043,12.03119 2.53406,24.9162 4,36c1.57889,11.93762 3.88342,23.72232 6,32c1.75171,6.85065 0.70856,19.04184 2,27c1.63354,10.06635 1.98639,18.19324 4,26c1.345,5.21448 2.67963,11.02582 3,13c0.50653,3.12146 1,4 1,4c1,0 1,0 2,0c0,0 0.07611,0.38269 1,0c1.30655,-0.5412 3,-2 5,-2c1,0 6,0 10,0c4,0 7,0 9,0c1,0 1,0 2,0c1,0 1,0 3,0c1,0 2,0 2,0c1,0 1,0 1,0c0,0 0,-1 0,-2c0,-2 0,-6 0,-8c0,-2 0.23172,-4.92767 2,-11c1.15277,-3.95868 2.14774,-7.94342 4,-13c2.17538,-5.93866 3.66656,-11.73129 5,-16c2.10837,-6.74942 3.59308,-13.85712 5,-21c1.75,-8.88467 3.32422,-16.8858 6,-25c2.27997,-6.91388 4.69446,-14.08264 7,-22c3.53653,-12.14465 4.3804,-13.90326 7,-25c1.17151,-4.96262 5,-18 6,-22c4,-16 6.45978,-24.84235 9,-33c2.45169,-7.87332 4.20956,-15.94348 6,-23c2.2674,-8.93637 3.93069,-17.34915 8,-28c1.59613,-4.17761 6.36078,-15.21512 9,-22c0.81064,-2.08395 4.79395,-11.08743 7,-16c1.83203,-4.07965 2,-5 3,-6c1,-1 0.75565,-0.98502 1,1c0.50378,4.09222 0.57971,8.15686 3,14c0.85571,2.06586 2.655,7.78549 4,13c2.01361,7.80676 2.79568,14.09116 6,21c2.82245,6.08554 5,13 7,19c2,6 4.3476,12.89151 7,22c2.30554,7.91736 4.26163,16.91592 8,29c2.15158,6.9549 3.9335,14.01721 5,18c1.88312,7.03235 2.5253,14.08441 4,21c1.51831,7.12003 3.49756,13.92578 4,19c0.59122,5.97079 1.99023,10.79025 3,18c1.24832,8.91299 0.42264,15.02386 1,22c0.50171,6.06204 1,14 1,19c0,6 1,13 1,20c0,6 1,11 1,14c0,2 0,5 0,6c0,3 0,5 0,8c0,2 0,3 0,5c0,2 0,3 0,3c0,1 0.07611,2.38269 1,2c1.30655,-0.5412 3.02582,-1.67963 5,-2c3.12143,-0.50653 8,-1 12,-1c6,0 12,0 18,0c5,0 7,0 7,0c1,0 1,0 1,0c1,0 1,0 2,0c0,0 0,0 0,-1c0,0 0,-2 0,-3c0,-4 0,-11 0,-15c0,-5 0,-14 0,-22c0,-7 2,-14 2,-23c0,-12 1.99658,-21.87592 3,-34c1.15472,-13.9523 1.49359,-34.9281 3,-47c1.49109,-11.94891 2,-26 2,-37c0,-13 1,-25 1,-38c0,-12 -0.20367,-24.01871 1,-36c1.711,-17.03152 2.90973,-28.00726 4,-41c0.92358,-11.00668 2.49939,-22.9626 3,-33c0.4483,-8.98883 2.49921,-18.95847 3,-28c0.44238,-7.98776 0,-13 0,-28c0,-8 0,-13 0,-16c0,-8 0.39417,-13.01947 0,-17c-0.50244,-5.0742 -1.46552,-8.83809 -3,-14c-1.45294,-4.88763 -1.84723,-10.04132 -3,-14c-0.88416,-3.03616 -1,-4 -1,-4c0,0 -0.29291,1.29289 -1,2c-0.70709,0.70711 -0.61731,0.07612 -1,1c-0.5412,1.30656 -2.77063,1.25935 -5,3c-4.59601,3.58844 -6.1593,3.61065 -9,5c-3.23889,1.58411 -5.90283,2.22421 -8,3c-3.867,1.4305 -8.00598,0.89088 -9,1c-9.16449,1.006 -14.02045,2.50512 -20,3c-6.06204,0.50171 -13.03809,1.67319 -23,3c-6.02951,0.80306 -10.90778,2.49622 -15,3c-5.95505,0.7331 -11,0 -15,0c-7,0 -11,0 -17,0c-5,0 -15.03043,0.19383 -22,-1c-5.02582,-0.86089 -6.89151,-2.3476 -16,-5c-7.91736,-2.30554 -11.133,-2.5695 -15,-4c-4.19434,-1.55159 -7.76108,-3.41589 -11,-5c-2.84073,-1.38935 -7.96384,-3.11587 -11,-4c-3.95868,-1.15277 -8.85272,-3.1731 -10,-4c-1.814,-1.30745 -4.15225,-2.23463 -6,-3c-1.30655,-0.5412 -2,-2 -2,-2c-2,-1 -3,-1 -3,-1c0,-1 -1,-1 -1,-1c0,1 -1,2 -1,4c0,2 -1,4 -1,7c0,3 -0.48627,3.82375 -1,6c-0.22977,0.97325 -1,3 -1,4c0,2 -4.04568,7.97781 -5,10c-4.20337,8.90685 -3.83981,10.01291 -4,11c-1.01309,6.24289 -2.23462,8.15224 -3,10c-0.5412,1.30656 -1,2 -1,2l0,0l0,1l0,0" id="svg_1" stroke-width="20" stroke="#000" fill="none"/>
 </g>
</svg>