<svg width="800" height="600" xmlns="http://www.w3.org/2000/svg">
 <g id="Layer_1">
  <title>Layer 1</title>
  <path d="m297,250.5c0,1 0,1 0,3c0,6 -0.70654,9.86707 -3,24c-1.4505,8.93845 -1,19 -1,27c0,10 0,18 0,28c0,9 0,20 0,30c0,10 0.4071,19.07715 2,29c1.46127,9.103 2.90338,21.01691 4,27c0.91925,5.01547 1,15 1,23c0,7 -0.55923,16.0174 0,25c0.50098,8.04669 1,16 1,25c0,2 0,3 0,5c0,2 0.38269,2.07611 0,3c-0.5412,1.30655 -1,2 0,2c0,0 2.82376,1.48627 5,2c4.86624,1.14877 8.99335,1.05481 17,2c8.99295,1.06161 16.95331,2.49902 25,3c9.98068,0.62137 18.99561,0.04504 29,1c10.99539,1.04953 14,1 26,1c8,0 16,0 23,0c8,0 12.97119,0.49963 26,1c6.99484,0.26865 13.03894,-0.7883 21,0c10.14841,1.00488 17,2 24,2c8,0 12.97418,0.1391 18,1c6.96954,1.19385 14,1 22,1c7,0 12,0 15,0c1,0 2,0 2,0c1,0 2,0 4,0c3,0 3,0 3,0c0,0 0,-1 0,-3c0,-3 0,-12 0,-20c0,-12 0,-24 0,-36c0,-10 0,-21 0,-32c0,-11 -1.99829,-20.91208 -3,-38c-0.58521,-9.98285 -1,-17 -1,-22c0,-6 -0.50732,-12.02432 -1,-17c-0.50244,-5.07422 -1.58759,-10.01703 -2,-15c-0.50171,-6.06204 -1.49951,-11.96597 -2,-23c-0.27191,-5.99384 -0.60583,-16.01947 -1,-20c-0.50244,-5.07422 -1.49756,-9.92578 -2,-15c-0.29559,-2.98541 -0.1991,-8.06458 -1,-13c-1.01306,-6.24289 -3.48627,-13.82375 -4,-16c-0.22974,-0.97325 0,-3 0,-3c0,0 0,-1 0,-1c0,-2 -1,-3 -1,-5c0,-1 0,-1 0,0c0,1 0.93787,8.04735 4,12c3.92139,5.06187 12.39703,17.35101 19,28c6.43256,10.37411 14,21 20,31c6,10 12.15875,18.90292 17,27c4.13733,6.91974 8.38257,16.30212 14,27c2.71082,5.16251 6.28857,10.86829 8,15c2.42029,5.84314 5.10541,12.9744 7,21c2.11823,8.9729 3.64069,13.06082 5,20c0.7926,4.0462 2.1604,6.96329 3,11c1.23865,5.95532 1.51959,12.07483 3,20c0.75708,4.05301 1.49622,7.90778 2,12c0.6109,4.96252 1.49622,11.90778 2,16c0.6109,4.96252 0.56952,10.133 2,14c0.77582,2.09717 1.4588,4.69345 2,6c0.38269,0.92389 -0.45953,3.0535 0,5c0.51373,2.17624 1,4 1,5c0,1 0,1 0,2c0,2 0,2 0,2c1,0 0.39099,-0.7695 4,-3c2.69,-1.66251 4,-1 8,-2c4,-1 5.15222,-1.23462 7,-2c1.30658,-0.5412 2,-1 4,-1c3,0 6,0 7,0c0,0 0,0 1,-1c0,0 1,0 2,0c2,0 2,0 4,0c1,0 0.69342,-0.4588 2,-1c0.92389,-0.38269 3,0 3,0c2,-1 3,-1 3,-1c0,-1 0,-1 1,-1c0,0 1,0 1,0c0,0 1,0 1,-1c0,-1 0,-3 0,-7c0,-3 0,-8 0,-13c0,-5 0,-11 0,-16c0,-5 -0.16779,-12.05798 -1,-18c-1.00977,-7.20975 -2.52527,-13.08441 -4,-20c-1.51831,-7.12003 -3.54694,-12.84464 -5,-19c-1.62457,-6.8819 -3.08075,-16.98453 -4,-22c-1.09662,-5.98309 -2.1604,-9.96329 -3,-14c-1.23865,-5.95532 -0.98639,-11.19324 -3,-19c-1.34497,-5.21451 -3.14771,-10.94342 -5,-16c-2.17535,-5.93866 -4.46552,-13.83807 -6,-19c-1.45294,-4.88763 -3.54694,-10.84464 -5,-17c-1.62457,-6.8819 -3.9303,-14.47491 -7,-21c-4.4444,-9.44708 -6.56122,-17.14053 -9,-24c-2.55121,-7.17575 -7.96014,-19.53481 -14,-30c-4.29999,-7.45052 -9.11945,-13.89935 -15,-21c-4.08411,-4.93152 -7.73114,-10.28415 -13,-15c-4.77112,-4.27039 -8.24847,-9.07355 -15,-13c-7.3858,-4.29533 -19.21008,-9.3726 -29,-13c-9.23529,-3.42189 -17.37415,-10.3835 -25,-13c-6.68835,-2.29482 -14.88135,-5.2935 -22,-8c-8.86755,-3.37143 -18.88138,-6.2935 -26,-9c-8.86755,-3.37144 -14.64749,-6.97251 -19,-8c-4.86624,-1.14877 -6.87857,-1.49346 -10,-2c-0.98709,-0.16018 -2,-1 -3,-1c-1,0 -2,0 -2,0c0,0 -1,0 -3,0c-4,0 -5,0 -6,0c0,0 -1,0 -1,2c0,1 -0.48627,2.82375 -1,5c-0.4595,1.9465 -0.54135,5.70267 -2,9c-1.66803,3.77065 -1.60645,6.5387 -3,9c-2.03146,3.58792 -1.48627,5.82375 -2,8c-0.4595,1.9465 -1.48627,2.82375 -2,5c-0.22977,0.97325 -2.19028,2.88152 -4,6c-1.12234,1.93399 -2.76395,3.76393 -5,6c-2.23605,2.23607 -3.82376,2.48625 -6,3c-1.9465,0.4595 -5,0 -7,0c-5,0 -8.39783,-0.06473 -14,-3c-4.42889,-2.32053 -9.61716,-4.12686 -17,-10c-2.21347,-1.76083 -9,-8 -13,-11c-4,-3 -6.31021,-5.71899 -9,-9c-2.28589,-2.78833 -4,-6 -5,-8c-1,-2 -2,-4 -3,-6c-1,-2 -1,-3 -1,-4c0,0 -1,-1 -1,-1c0,-2 -1,-2 -1,-2c0,0 -1,0 -3,0c-3,0 -4.87857,-0.49346 -8,-1c-2.96127,-0.48055 -7.09662,-0.46626 -13,1c-3.06903,0.76228 -5.82376,2.48626 -8,3c-1.9465,0.4595 -5.07843,0.78985 -8,2c-4.13171,1.71141 -7,3 -9,4c-4,2 -6,4 -12,7c-2,1 -12.9183,9.11214 -17,12c-2.94336,2.08247 -7.61716,5.12686 -15,11c-4.42694,3.52168 -6.22885,5.72961 -11,10c-4.21509,3.77267 -9,9 -14,15c-10,12 -17.22601,21.83913 -25,33c-10.30385,14.79292 -19.58228,28.66566 -28,44c-8.60812,15.68121 -19.3427,31.79523 -27,45c-6.28561,10.83932 -11,19 -17,31c-3,6 -7.94503,12.29498 -10,21c-0.4595,1.9465 -2,8 -3,10c-2,4 -2.67963,7.02582 -3,9c-0.50654,3.12143 0.53073,5.30447 -1,9c-0.5412,1.30655 -0.77025,3.02676 -1,4c-0.51374,2.17624 -1,5 -1,7c0,2 0,6 0,12c0,4 0,9 0,15c0,9 0,13 0,17c0,4 0,9 0,15c0,5 0,9 0,14c0,4 0,6 0,8c0,2 0,2 0,3c0,0 0.4588,-0.30655 1,1c0.76537,1.84775 3.52642,5.65561 13,12c6.69884,4.48615 13,9 19,13c3,2 6.06601,3.87766 8,5c3.11848,1.80969 6.76993,3.54865 11,5c9.64606,3.30963 13,3 13,3c0,0 0,0 0,-1c0,-1 -1.4588,-1.69342 -2,-3c-0.76537,-1.84778 -1,-5 -1,-6c0,-10 -0.05313,-17.01093 1,-22c1.90416,-9.02075 4.54692,-15.84464 6,-22c1.6246,-6.8819 2.20956,-13.94348 4,-21c2.26741,-8.93637 4.50389,-14.76102 10,-27c2.20607,-4.91257 6.27957,-11.80484 9,-16c5.60172,-8.63834 11.09341,-17.93079 17,-26c5.08104,-6.94141 8.21811,-10.84921 13,-18c5.24419,-7.8421 12.46507,-17.69006 19,-28c4.31622,-6.80957 7.94421,-11.39471 16,-25c2.27853,-3.84814 4.32828,-10.38586 8,-16c4.27493,-6.53644 8.75531,-12.13202 11,-16c1.80972,-3.11847 4.07764,-8.55801 8,-14c0.8269,-1.14728 4,-6 5,-8c1,-2 2,-3 2,-3l0,0" id="svg_1" stroke-width="20" stroke="#000" fill="none"/>
 </g>
</svg>