<?xml version="1.0" encoding="UTF-8" standalone="no" ?>
<!DOCTYPE svg PUBLIC "-//W3C//DTD SVG 1.1//EN" "http://www.w3.org/Graphics/SVG/1.1/DTD/svg11.dtd">
<svg xmlns="http://www.w3.org/2000/svg" xmlns:xlink="http://www.w3.org/1999/xlink" version="1.1" width="640" height="480" viewBox="0 0 640 480" xml:space="preserve">
<desc>Created with Fabric.js 3.6.6</desc>
<defs>
</defs>
<g transform="matrix(1 0 0 1 337.5 244.25)"  >
<path style="stroke: rgb(0,0,0); stroke-width: 25; stroke-dasharray: none; stroke-linecap: round; stroke-dashoffset: 0; stroke-linejoin: round; stroke-miterlimit: 10; fill: none; fill-rule: nonzero; opacity: 1;"  transform=" translate(-337.5, -244.25)" d="M 248.5 36.725 Q 248.5 36.75 248.5 37.25 Q 248.5 37.75 248.5 38.25 Q 248.5 38.75 249 39.75 Q 249.5 40.75 250 42.25 Q 250.5 43.75 251 44.25 Q 251.5 44.75 252 45.75 Q 252.5 46.75 253 48.25 Q 253.5 49.75 255 51.25 Q 256.5 52.75 259 55.75 Q 261.5 58.75 264.5 60.25 Q 267.5 61.75 269 62.25 Q 270.5 62.75 273 63.75 Q 275.5 64.75 277.5 65.75 Q 279.5 66.75 282 66.75 Q 284.5 66.75 287 66.75 Q 289.5 66.75 291.5 66.75 Q 293.5 66.75 295.5 66.25 Q 297.5 65.75 299.5 65.25 Q 301.5 64.75 303 64.25 Q 304.5 63.75 306 63.75 Q 307.5 63.75 309.5 63.25 Q 311.5 62.75 313.5 62.25 Q 315.5 61.75 318.5 60.75 Q 321.5 59.75 324 58.75 Q 326.5 57.75 328 56.75 Q 329.5 55.75 331 54.25 Q 332.5 52.75 334.5 50.75 Q 336.5 48.75 337.5 47.75 Q 338.5 46.75 339.5 45.75 Q 340.5 44.75 341 43.75 Q 341.5 42.75 342.5 41.25 Q 343.5 39.75 344 39.75 Q 344.5 39.75 344.5 39.25 Q 344.5 38.75 345 37.75 Q 345.5 36.75 346 36.75 Q 346.5 36.75 346.5 36.25 Q 346.5 35.75 347 35.25 Q 347.5 34.75 347.5 33.75 Q 347.5 32.75 347.5 32.25 Q 347.5 31.75 349 31.75 Q 350.5 31.75 352 31.75 Q 353.5 31.75 355.5 31.75 Q 357.5 31.75 360.5 31.75 Q 363.5 31.75 366 31.75 Q 368.5 31.75 371.5 31.75 Q 374.5 31.75 377 31.75 Q 379.5 31.75 382.5 31.75 Q 385.5 31.75 388 31.75 Q 390.5 31.75 393.5 31.75 Q 396.5 31.75 400.5 31.75 Q 404.5 31.75 407 31.75 Q 409.5 31.75 411.5 31.75 Q 413.5 31.75 415.5 31.75 Q 417.5 31.75 419 31.75 Q 420.5 31.75 423 31.75 Q 425.5 31.75 428 31.75 Q 430.5 31.75 433 31.75 Q 435.5 31.75 437.5 31.25 Q 439.5 30.75 441 30.75 Q 442.5 30.75 445 30.25 Q 447.5 29.75 449.5 29.25 Q 451.5 28.75 454 28.25 Q 456.5 27.75 457 27.75 Q 457.5 27.75 458 27.75 Q 458.5 27.75 459 27.75 Q 459.5 27.75 460 28.25 Q 460.5 28.75 461 29.75 Q 461.5 30.75 462 31.25 Q 462.5 31.75 463 32.25 Q 463.5 32.75 464 33.25 Q 464.5 33.75 465 34.25 Q 465.5 34.75 466.5 36.25 Q 467.5 37.75 468 38.75 Q 468.5 39.75 469 40.25 Q 469.5 40.75 471 42.75 Q 472.5 44.75 472.5 45.25 Q 472.5 45.75 473.5 47.25 Q 474.5 48.75 474.5 49.25 Q 474.5 49.75 475 51.25 Q 475.5 52.75 477.5 55.75 Q 479.5 58.75 480.5 60.25 Q 481.5 61.75 482.5 63.25 Q 483.5 64.75 484.5 65.75 Q 485.5 66.75 486 68.75 Q 486.5 70.75 488 72.75 Q 489.5 74.75 491 77.25 Q 492.5 79.75 494.5 82.25 Q 496.5 84.75 497.5 86.75 Q 498.5 88.75 499 91.25 Q 499.5 93.75 501 96.75 Q 502.5 99.75 504 102.75 Q 505.5 105.75 507 110.25 Q 508.5 114.75 510.5 118.75 Q 512.5 122.75 514 127.25 Q 515.5 131.75 517 134.25 Q 518.5 136.75 520 140.25 Q 521.5 143.75 523 147.25 Q 524.5 150.75 526.5 154.75 Q 528.5 158.75 531 164.25 Q 533.5 169.75 534.5 171.25 Q 535.5 172.75 538 178.25 Q 540.5 183.75 541 185.75 Q 541.5 187.75 545.5 194.75 Q 549.5 201.75 550.5 204.25 Q 551.5 206.75 553.5 211.25 Q 555.5 215.75 556.5 218.25 Q 557.5 220.75 559 224.75 Q 560.5 228.75 564.5 238.75 Q 568.5 248.75 569.5 252.25 Q 570.5 255.75 571 256.75 Q 571.5 257.75 573 262.75 Q 574.5 267.75 575.5 271.25 Q 576.5 274.75 577.5 277.25 Q 578.5 279.75 579.5 283.25 Q 580.5 286.75 581.5 289.75 Q 582.5 292.75 583 296.25 Q 583.5 299.75 584.5 302.25 Q 585.5 304.75 586 307.25 Q 586.5 309.75 587.5 313.75 Q 588.5 317.75 589 319.25 Q 589.5 320.75 589.5 321.25 Q 589.5 321.75 589.5 322.75 Q 589.5 323.75 590 325.75 Q 590.5 327.75 590.5 328.25 Q 590.5 328.75 590.5 329.25 Q 590.5 329.75 591 331.25 Q 591.5 332.75 592 334.25 Q 592.5 335.75 592.5 337.25 Q 592.5 338.75 593 340.25 Q 593.5 341.75 593.5 343.25 Q 593.5 344.75 593.5 346.25 Q 593.5 347.75 594 348.25 Q 594.5 348.75 595 350.75 Q 595.5 352.75 595.5 353.75 Q 595.5 354.75 595.5 356.25 Q 595.5 357.75 596 358.25 Q 596.5 358.75 596.5 359.25 Q 596.5 359.75 596.5 360.25 Q 596.5 360.75 596.5 361.75 Q 596.5 362.75 596.5 363.25 Q 596.5 363.75 596.5 364.25 Q 596.5 364.75 596.5 365.25 Q 596.5 365.75 595 366.25 Q 593.5 366.75 592 367.25 Q 590.5 367.75 588.5 367.75 Q 586.5 367.75 582.5 368.25 Q 578.5 368.75 576.5 368.75 Q 574.5 368.75 572.5 369.25 Q 570.5 369.75 568 369.75 Q 565.5 369.75 563.5 369.75 Q 561.5 369.75 559 369.75 Q 556.5 369.75 553.5 370.25 Q 550.5 370.75 548.5 370.75 Q 546.5 370.75 545 371.25 Q 543.5 371.75 540.5 372.25 Q 537.5 372.75 536 372.75 Q 534.5 372.75 532 373.25 Q 529.5 373.75 528.5 373.75 Q 527.5 373.75 527 374.25 Q 526.5 374.75 525 374.75 Q 523.5 374.75 523 374.75 Q 522.5 374.75 522.5 375.25 Q 522.5 375.75 521.5 375.75 Q 520.5 375.75 520.5 376.25 Q 520.5 376.75 520 376.75 Q 519.5 376.75 519 377.25 Q 518.5 377.75 518 377.75 Q 517.5 377.75 517 375.75 Q 516.5 373.75 515.5 371.25 Q 514.5 368.75 513.5 365.75 Q 512.5 362.75 511.5 360.25 Q 510.5 357.75 509.5 354.75 Q 508.5 351.75 508 349.75 Q 507.5 347.75 507 344.75 Q 506.5 341.75 505.5 339.25 Q 504.5 336.75 503.5 334.75 Q 502.5 332.75 502 330.25 Q 501.5 327.75 501 326.25 Q 500.5 324.75 499.5 323.25 Q 498.5 321.75 498 320.25 Q 497.5 318.75 496.5 315.75 Q 495.5 312.75 495.5 311.25 Q 495.5 309.75 494.5 306.75 Q 493.5 303.75 492.5 300.25 Q 491.5 296.75 490.5 294.25 Q 489.5 291.75 489 289.75 Q 488.5 287.75 488 285.75 Q 487.5 283.75 486.5 280.75 Q 485.5 277.75 484.5 276.25 Q 483.5 274.75 482.5 272.25 Q 481.5 269.75 481 267.75 Q 480.5 265.75 479 262.75 Q 477.5 259.75 476.5 258.25 Q 475.5 256.75 475 255.25 Q 474.5 253.75 474 251.75 Q 473.5 249.75 472.5 248.25 Q 471.5 246.75 470.5 245.25 Q 469.5 243.75 468 241.75 Q 466.5 239.75 465 237.75 Q 463.5 235.75 462.5 233.75 Q 461.5 231.75 460.5 230.25 Q 459.5 228.75 458.5 227.25 Q 457.5 225.75 456.5 223.75 Q 455.5 221.75 453.5 218.75 Q 451.5 215.75 450 213.75 Q 448.5 211.75 447.5 209.75 Q 446.5 207.75 445.5 205.75 Q 444.5 203.75 443.5 202.25 Q 442.5 200.75 442.5 200.25 Q 442.5 199.75 440 196.25 Q 437.5 192.75 437 191.25 Q 436.5 189.75 435 188.25 Q 433.5 186.75 433 185.75 Q 432.5 184.75 432 184.25 Q 431.5 183.75 431.5 183.25 Q 431.5 182.75 431 182.25 Q 430.5 181.75 430.5 181.25 Q 430.5 180.75 430 180.25 Q 429.5 179.75 429.5 179.25 Q 429.5 178.75 429.5 178.25 Q 429.5 177.75 429 177.25 Q 428.5 176.75 428.5 177.25 Q 428.5 177.75 429 178.25 Q 429.5 178.75 429.5 179.75 Q 429.5 180.75 430 182.25 Q 430.5 183.75 430.5 186.75 Q 430.5 189.75 431.5 194.25 Q 432.5 198.75 433.5 201.75 Q 434.5 204.75 435 208.75 Q 435.5 212.75 435.5 216.25 Q 435.5 219.75 436 223.25 Q 436.5 226.75 436.5 229.25 Q 436.5 231.75 437.5 234.75 Q 438.5 237.75 438.5 240.75 Q 438.5 243.75 438.5 245.75 Q 438.5 247.75 438.5 250.75 Q 438.5 253.75 438.5 256.75 Q 438.5 259.75 438.5 262.25 Q 438.5 264.75 438.5 267.25 Q 438.5 269.75 438.5 272.75 Q 438.5 275.75 438.5 278.75 Q 438.5 281.75 438.5 282.75 Q 438.5 283.75 438.5 285.75 Q 438.5 287.75 438.5 290.75 Q 438.5 293.75 438.5 296.25 Q 438.5 298.75 439 300.75 Q 439.5 302.75 439.5 306.25 Q 439.5 309.75 439.5 312.75 Q 439.5 315.75 440 317.25 Q 440.5 318.75 440.5 321.75 Q 440.5 324.75 441 326.75 Q 441.5 328.75 441.5 331.75 Q 441.5 334.75 441.5 337.25 Q 441.5 339.75 442 340.75 Q 442.5 341.75 443 345.25 Q 443.5 348.75 443.5 350.25 Q 443.5 351.75 443.5 353.75 Q 443.5 355.75 443.5 357.25 Q 443.5 358.75 443.5 360.75 Q 443.5 362.75 444 364.75 Q 444.5 366.75 444.5 369.25 Q 444.5 371.75 445 373.75 Q 445.5 375.75 445.5 379.25 Q 445.5 382.75 446 383.25 Q 446.5 383.75 446.5 385.75 Q 446.5 387.75 446.5 389.75 Q 446.5 391.75 446.5 393.25 Q 446.5 394.75 446.5 395.75 Q 446.5 396.75 446.5 397.75 Q 446.5 398.75 446.5 399.25 Q 446.5 399.75 447 400.25 Q 447.5 400.75 447.5 401.25 Q 447.5 401.75 447.5 402.25 Q 447.5 402.75 447.5 403.25 Q 447.5 403.75 447.5 404.25 Q 447.5 404.75 447.5 405.25 Q 447.5 405.75 447.5 406.25 Q 447.5 406.75 447.5 407.25 Q 447.5 407.75 447.5 408.25 Q 447.5 408.75 447.5 409.25 Q 447.5 409.75 447.5 410.25 Q 447.5 410.75 447.5 411.25 Q 447.5 411.75 447.5 412.75 Q 447.5 413.75 447.5 416.75 Q 447.5 419.75 447.5 420.75 Q 447.5 421.75 447.5 422.75 Q 447.5 423.75 447.5 424.25 Q 447.5 424.75 447 424.75 Q 446.5 424.75 446 424.75 Q 445.5 424.75 445.5 425.25 Q 445.5 425.75 447.5 427.25 Q 449.5 428.75 450 429.25 Q 450.5 429.75 451 429.75 Q 451.5 429.75 451.5 430.25 Q 451.5 430.75 451 430.75 Q 450.5 430.75 450.5 431.25 Q 450.5 431.75 450.5 432.25 Q 450.5 432.75 450.5 433.25 Q 450.5 433.75 450 434.75 Q 449.5 435.75 449 436.75 Q 448.5 437.75 448 438.25 Q 447.5 438.75 447.5 439.25 Q 447.5 439.75 447 439.75 Q 446.5 439.75 446 440.25 Q 445.5 440.75 445 440.75 Q 444.5 440.75 442 441.75 Q 439.5 442.75 437.5 443.25 Q 435.5 443.75 433 443.75 Q 430.5 443.75 428.5 444.25 Q 426.5 444.75 424 445.25 Q 421.5 445.75 418.5 445.75 Q 415.5 445.75 414.5 446.25 Q 413.5 446.75 412 447.25 Q 410.5 447.75 409 447.75 Q 407.5 447.75 405 448.75 Q 402.5 449.75 400.5 449.75 Q 398.5 449.75 396 450.25 Q 393.5 450.75 390.5 450.75 Q 387.5 450.75 385 451.75 Q 382.5 452.75 379 453.25 Q 375.5 453.75 373 453.75 Q 370.5 453.75 367.5 454.25 Q 364.5 454.75 363 455.25 Q 361.5 455.75 359.5 456.25 Q 357.5 456.75 355.5 457.25 Q 353.5 457.75 352 457.75 Q 350.5 457.75 349 458.25 Q 347.5 458.75 345.5 458.75 Q 343.5 458.75 340 459.25 Q 336.5 459.75 334.5 460.25 Q 332.5 460.75 327.5 460.75 Q 322.5 460.75 320.5 460.75 Q 318.5 460.75 316 460.75 Q 313.5 460.75 310.5 460.75 Q 307.5 460.75 305 460.75 Q 302.5 460.75 300 460.75 Q 297.5 460.75 294.5 460.75 Q 291.5 460.75 289 460.75 Q 286.5 460.75 283.5 460.75 Q 280.5 460.75 277.5 460.75 Q 274.5 460.75 272 460.75 Q 269.5 460.75 267.5 460.75 Q 265.5 460.75 262.5 460.25 Q 259.5 459.75 257.5 459.25 Q 255.5 458.75 254 458.25 Q 252.5 457.75 251 457.25 Q 249.5 456.75 248 456.25 Q 246.5 455.75 245 455.75 Q 243.5 455.75 243 455.25 Q 242.5 454.75 242 454.75 Q 241.5 454.75 240.5 453.75 Q 239.5 452.75 239 452.75 Q 238.5 452.75 238.5 452.25 Q 238.5 451.75 237 451.25 Q 235.5 450.75 234 449.75 Q 232.5 448.75 231.5 447.75 Q 230.5 446.75 230 446.75 Q 229.5 446.75 229 446.25 Q 228.5 445.75 226.5 445.25 Q 224.5 444.75 224 444.25 Q 223.5 443.75 223 443.25 Q 222.5 442.75 222 438.25 Q 221.5 433.75 220.5 429.75 Q 219.5 425.75 219 422.75 Q 218.5 419.75 218 416.25 Q 217.5 412.75 217 409.75 Q 216.5 406.75 215.5 403.25 Q 214.5 399.75 214.5 396.75 Q 214.5 393.75 214 391.75 Q 213.5 389.75 213.5 385.25 Q 213.5 380.75 213.5 376.75 Q 213.5 372.75 213.5 369.75 Q 213.5 366.75 213.5 362.75 Q 213.5 358.75 213.5 355.75 Q 213.5 352.75 213.5 349.75 Q 213.5 346.75 213.5 344.25 Q 213.5 341.75 214 339.25 Q 214.5 336.75 215 333.25 Q 215.5 329.75 216 327.25 Q 216.5 324.75 216.5 322.75 Q 216.5 320.75 217 319.25 Q 217.5 317.75 217.5 314.75 Q 217.5 311.75 218 309.25 Q 218.5 306.75 218.5 303.75 Q 218.5 300.75 219 299.25 Q 219.5 297.75 220 295.75 Q 220.5 293.75 221 291.75 Q 221.5 289.75 222 287.25 Q 222.5 284.75 222.5 283.25 Q 222.5 281.75 222.5 279.75 Q 222.5 277.75 222.5 275.25 Q 222.5 272.75 222.5 269.25 Q 222.5 265.75 222.5 263.25 Q 222.5 260.75 222.5 257.25 Q 222.5 253.75 222.5 249.75 Q 222.5 245.75 222.5 244.25 Q 222.5 242.75 222.5 240.25 Q 222.5 237.75 222.5 235.75 Q 222.5 233.75 222.5 230.75 Q 222.5 227.75 222.5 226.25 Q 222.5 224.75 222.5 222.75 Q 222.5 220.75 222.5 219.25 Q 222.5 217.75 222.5 215.75 Q 222.5 213.75 222.5 211.25 Q 222.5 208.75 222.5 206.75 Q 222.5 204.75 222.5 202.75 Q 222.5 200.75 223 199.25 Q 223.5 197.75 223.5 196.25 Q 223.5 194.75 223.5 194.25 Q 223.5 193.75 223.5 193.25 Q 223.5 192.75 223.5 192.25 Q 223.5 191.75 224 191.75 Q 224.5 191.75 224.5 191.25 Q 224.5 190.75 224.5 191.25 Q 224.5 191.75 224.5 192.25 Q 224.5 192.75 224.5 193.25 Q 224.5 193.75 224.5 194.75 Q 224.5 195.75 224.5 196.25 Q 224.5 196.75 224 198.25 Q 223.5 199.75 222.5 201.75 Q 221.5 203.75 220.5 206.75 Q 219.5 209.75 218 212.75 Q 216.5 215.75 215.5 219.25 Q 214.5 222.75 214 225.75 Q 213.5 228.75 212.5 232.25 Q 211.5 235.75 210 238.25 Q 208.5 240.75 207.5 243.75 Q 206.5 246.75 205.5 248.75 Q 204.5 250.75 203 254.25 Q 201.5 257.75 200 261.25 Q 198.5 264.75 197.5 268.75 Q 196.5 272.75 195 274.75 Q 193.5 276.75 192 279.25 Q 190.5 281.75 189.5 283.25 Q 188.5 284.75 187.5 287.25 Q 186.5 289.75 185.5 291.25 Q 184.5 292.75 184 294.25 Q 183.5 295.75 182 299.25 Q 180.5 302.75 180 304.25 Q 179.5 305.75 179 307.25 Q 178.5 308.75 177.5 310.75 Q 176.5 312.75 175.5 316.25 Q 174.5 319.75 174 322.25 Q 173.5 324.75 172.5 326.75 Q 171.5 328.75 170.5 332.25 Q 169.5 335.75 169 337.75 Q 168.5 339.75 167.5 342.25 Q 166.5 344.75 166 346.25 Q 165.5 347.75 165 350.25 Q 164.5 352.75 163 356.25 Q 161.5 359.75 161 361.75 Q 160.5 363.75 160 365.75 Q 159.5 367.75 158 370.25 Q 156.5 372.75 155.5 374.75 Q 154.5 376.75 153.5 379.25 Q 152.5 381.75 152 383.25 Q 151.5 384.75 151 385.75 Q 150.5 386.75 150 387.75 Q 149.5 388.75 149 389.75 Q 148.5 390.75 147.5 391.75 Q 146.5 392.75 146.5 393.25 Q 146.5 393.75 146 394.75 Q 145.5 395.75 145 396.25 Q 144.5 396.75 144 397.25 Q 143.5 397.75 143 398.25 Q 142.5 398.75 142.5 399.75 Q 142.5 400.75 142 401.25 Q 141.5 401.75 141 402.75 Q 140.5 403.75 140.5 404.25 Q 140.5 404.75 140 405.25 Q 139.5 405.75 139 406.75 Q 138.5 407.75 138 407.75 Q 137.5 407.75 136.5 406.75 Q 135.5 405.75 135 405.75 Q 134.5 405.75 134 405.25 Q 133.5 404.75 131.5 403.25 Q 129.5 401.75 128.5 400.25 Q 127.5 398.75 127 398.75 Q 126.5 398.75 125.5 397.75 Q 124.5 396.75 123.5 395.75 Q 122.5 394.75 122 394.75 Q 121.5 394.75 120.5 393.75 Q 119.5 392.75 118.5 392.25 Q 117.5 391.75 116 390.25 Q 114.5 388.75 113.5 387.75 Q 112.5 386.75 110.5 385.25 Q 108.5 383.75 107.5 383.25 Q 106.5 382.75 105.5 381.75 Q 104.5 380.75 104 380.25 Q 103.5 379.75 102.5 379.25 Q 101.5 378.75 101 378.75 Q 100.5 378.75 100.5 378.25 Q 100.5 377.75 99.5 377.25 Q 98.5 376.75 96.5 375.75 Q 94.5 374.75 94 374.75 Q 93.5 374.75 92.5 374.25 Q 91.5 373.75 90 372.75 Q 88.5 371.75 88 371.75 Q 87.5 371.75 87 371.25 Q 86.5 370.75 86 370.75 Q 85.5 370.75 85 370.75 Q 84.5 370.75 84 370.25 Q 83.5 369.75 82.5 369.75 Q 81.5 369.75 81 369.75 Q 80.5 369.75 80 369.75 Q 79.5 369.75 79.5 369.25 Q 79.5 368.75 79 368.75 Q 78.5 368.75 78.5 368.25 Q 78.5 367.75 78.5 367.25 Q 78.5 366.75 78.5 365.25 Q 78.5 363.75 78.5 362.75 Q 78.5 361.75 78.5 359.75 Q 78.5 357.75 78.5 357.25 Q 78.5 356.75 79.5 354.75 Q 80.5 352.75 80.5 350.75 Q 80.5 348.75 81 346.75 Q 81.5 344.75 82 342.75 Q 82.5 340.75 83 337.75 Q 83.5 334.75 84 332.25 Q 84.5 329.75 85 327.75 Q 85.5 325.75 86.5 322.25 Q 87.5 318.75 88 317.75 Q 88.5 316.75 90 313.75 Q 91.5 310.75 92.5 307.25 Q 93.5 303.75 94.5 300.75 Q 95.5 297.75 97 293.25 Q 98.5 288.75 99 286.75 Q 99.5 284.75 100.5 281.25 Q 101.5 277.75 102.5 275.25 Q 103.5 272.75 104 270.25 Q 104.5 267.75 105.5 265.25 Q 106.5 262.75 107.5 260.25 Q 108.5 257.75 109 254.75 Q 109.5 251.75 110.5 249.75 Q 111.5 247.75 112 245.25 Q 112.5 242.75 113.5 239.75 Q 114.5 236.75 115 234.75 Q 115.5 232.75 116.5 229.25 Q 117.5 225.75 120.5 218.25 Q 123.5 210.75 124.5 208.75 Q 125.5 206.75 126.5 205.25 Q 127.5 203.75 128.5 200.75 Q 129.5 197.75 130 194.25 Q 130.5 190.75 131.5 188.25 Q 132.5 185.75 134 183.25 Q 135.5 180.75 136.5 178.25 Q 137.5 175.75 139 173.25 Q 140.5 170.75 142 167.75 Q 143.5 164.75 145 161.25 Q 146.5 157.75 147 155.75 Q 147.5 153.75 150 150.75 Q 152.5 147.75 154 144.75 Q 155.5 141.75 156.5 139.25 Q 157.5 136.75 158.5 134.25 Q 159.5 131.75 160.5 128.75 Q 161.5 125.75 162.5 124.75 Q 163.5 123.75 164 121.75 Q 164.5 119.75 166 116.75 Q 167.5 113.75 168 111.75 Q 168.5 109.75 169 107.75 Q 169.5 105.75 171 103.75 Q 172.5 101.75 173 99.75 Q 173.5 97.75 174.5 95.25 Q 175.5 92.75 175.5 91.25 Q 175.5 89.75 176 87.75 Q 176.5 85.75 177.5 84.25 Q 178.5 82.75 178.5 81.25 Q 178.5 79.75 179 77.75 Q 179.5 75.75 180.5 73.25 Q 181.5 70.75 182 69.75 Q 182.5 68.75 183.5 66.75 Q 184.5 64.75 185 62.75 Q 185.5 60.75 186 58.75 Q 186.5 56.75 187 55.75 Q 187.5 54.75 187.5 54.25 Q 187.5 53.75 188 51.75 Q 188.5 49.75 189 47.75 Q 189.5 45.75 189.5 45.25 Q 189.5 44.75 190 44.25 Q 190.5 43.75 191 42.25 Q 191.5 40.75 191.5 40.25 Q 191.5 39.75 192 39.75 Q 192.5 39.75 192.5 39.25 Q 192.5 38.75 192.5 38.25 Q 192.5 37.75 193 37.75 Q 193.5 37.75 195.5 37.75 Q 197.5 37.75 198 37.75 Q 198.5 37.75 199.5 37.75 Q 200.5 37.75 201 37.75 Q 201.5 37.75 202 37.75 Q 202.5 37.75 203 37.75 Q 203.5 37.75 204 37.75 Q 204.5 37.75 206 37.75 Q 207.5 37.75 208.5 37.75 Q 209.5 37.75 210 37.75 Q 210.5 37.75 211 37.75 Q 211.5 37.75 212 37.75 Q 212.5 37.75 213 37.75 Q 213.5 37.75 214 37.75 Q 214.5 37.75 216.5 37.75 Q 218.5 37.75 219 37.75 Q 219.5 37.75 220 37.75 Q 220.5 37.75 222 37.75 Q 223.5 37.75 224.5 37.75 Q 225.5 37.75 226.5 37.75 Q 227.5 37.75 228 37.75 Q 228.5 37.75 229 37.25 Q 229.5 36.75 230.5 36.75 Q 231.5 36.75 232.5 36.75 Q 233.5 36.75 234.5 36.75 Q 235.5 36.75 236 36.75 Q 236.5 36.75 237 36.75 Q 237.5 36.75 238 36.75 Q 238.5 36.75 239 36.25 Q 239.5 35.75 240 35.75 Q 240.5 35.75 241 35.75 Q 241.5 35.75 242.5 35.75 Q 243.5 35.75 244 35.75 L 244.525 35.75" stroke-linecap="round" />
</g>
</svg>