<svg width="800" height="600" xmlns="http://www.w3.org/2000/svg">
 <g id="Layer_1">
  <title>Layer 1</title>
  <path d="m457,186.5c1,0 0,0 0,0c-1,0 -2.02582,-0.32036 -4,0c-3.12143,0.50655 -4.10699,0.08099 -8,1c-2.17624,0.51375 -4.90778,1.49623 -9,2c-4.96252,0.61092 -11.25058,-0.10837 -18,2c-4.26871,1.33345 -7.95331,2.49904 -16,3c-6.98648,0.43497 -13.01703,-0.4124 -18,0c-6.06204,0.50171 -10.92578,1.49756 -16,2c-6.96594,0.68976 -12,1 -17,2c-5,1 -11.01804,2.8109 -12,3c-5.28799,1.01837 -6.21167,2.71413 -9,5c-1.09366,0.89659 -1.85272,1.1731 -3,2c-1.814,1.30745 -3,2 -7,6c-1,1 -3.297,4.61383 -6,7c-1.67633,1.47984 -3,2 -5,4c-1,1 -2,2 -3,3c0,0 0,2 0,2c-1,1 -1,3 -1,3c0,2 0,3 0,4c0,1 -1,4 -1,4c0,2 0,2 0,3c0,1 0.297,2.61383 3,5c1.67633,1.47984 7.96384,3.11586 11,4c7.91736,2.30554 16.99335,4.05481 25,5c8.99295,1.06161 15.94672,1.49875 23,2c7.97989,0.56711 18,0 25,0c7,0 15,0 21,0c6,0 13,0 20,0c7,0 16.06079,-0.51276 26,-2c10.08575,-1.50919 19.10001,-2.35617 34,-5c9.07776,-1.61073 14.88855,-3.19409 20,-6c3.92029,-2.15204 6.22272,-2.72398 10,-6c3.20514,-2.77979 6.62531,-7.41362 11,-11c2.78833,-2.28587 6,-6 10,-10c1,-1 1,-2 2,-3c1,-1 1,-1 1,-2c0,0 1,-1 1,-2c0,-1 0,-2 -1,-3c-2,-2 -3.80566,-4.44841 -8,-6c-3.867,-1.4305 -8.04468,-1.76137 -14,-3c-4.03674,-0.83958 -8.96326,-1.16042 -13,-2c-5.95532,-1.23863 -11.01947,-0.60585 -15,-1c-5.07422,-0.50244 -7.82376,-1.48625 -10,-2c-1.9465,-0.4595 -5.0535,-0.5405 -7,-1c-2.17624,-0.51375 -3,-1 -3,-1c-1,0 -3.08026,-0.31075 -6,-1c-2.17624,-0.51375 -4.07611,-1.61731 -5,-2c-1.30655,-0.5412 -1.29291,-1.29289 -2,-2c-0.70709,-0.70711 -2,-1 -3,-1c-2,0 -3,-1 -4,-1c-2,0 -2,0 -3,0l-1,-1" id="svg_1" stroke-width="20" stroke="#000" fill="none"/>
  <polyline stroke-linecap="round" id="svg_2" points="303,250.5 303,250.5 303,251.5 304,251.5 305,254.5 306,255.5 306,256.5 309,259.5 310,260.5 311,261.5 312,263.5 313,263.5 313,264.5 314,264.5 314,265.5 315,265.5 315,266.5 316,267.5 316,267.5 316,267.5 317,268.5 317,268.5 317,269.5 318,270.5 319,272.5 319,272.5 320,274.5 320,276.5 321,277.5 322,278.5 322,279.5 323,279.5 324,281.5 324,282.5 325,282.5 325,283.5 326,286.5 326,286.5 327,287.5 327,288.5 328,288.5 328,289.5 329,290.5 329,291.5 331,292.5 332,293.5 333,294.5 333,294.5 333,294.5 333,295.5 332,295.5 332,297.5 329,298.5 327,299.5 326,299.5 323,299.5 323,299.5 323,299.5 321,300.5 319,300.5 317,301.5 316,301.5 315,301.5 314,302.5 313,302.5 313,302.5 312,303.5 312,303.5 311,304.5 311,304.5 310,305.5 310,305.5 310,306.5 310,306.5 309,307.5 309,307.5 309,307.5 309,308.5 309,308.5 309,308.5 309,309.5 309,309.5 310,310.5 310,310.5 310,310.5 310,311.5 311,311.5 311,312.5 312,312.5 313,312.5 314,313.5 319,315.5 321,317.5 322,318.5 323,319.5 325,320.5 328,320.5 329,320.5 330,321.5 330,321.5 331,321.5 332,321.5 332,321.5 332,321.5 332,323.5 332,324.5 330,327.5 329,328.5 329,329.5 327,331.5 324,333.5 322,334.5 319,337.5 316,340.5 313,342.5 311,344.5 309,345.5 307,346.5 307,348.5 307,348.5 306,349.5 305,350.5 305,351.5 305,352.5 306,354.5 310,358.5 315,363.5 320,366.5 327,368.5 332,369.5 335,369.5 337,369.5 339,369.5 340,369.5 341,369.5 342,369.5 342,369.5 342,370.5 342,371.5 340,373.5 335,374.5 329,375.5 320,377.5 314,379.5 308,381.5 304,381.5 303,382.5 302,382.5 302,383.5 301,384.5 300,385.5 300,387.5 300,387.5 300,389.5 299,390.5 299,391.5 300,392.5 302,393.5 305,396.5 313,399.5 321,402.5 330,405.5 340,410.5 346,412.5 355,414.5 362,415.5 371,415.5 379,415.5 387,415.5 392,415.5 397,412.5 403,410.5 407,408.5 412,406.5 421,404.5 429,403.5 439,401.5 446,400.5 457,400.5 467,400.5 477,399.5 487,399.5 498,397.5 508,397.5 521,395.5 531,393.5 547,391.5 558,388.5 565,384.5 574,380.5 581,377.5 586,375.5 593,373.5 597,371.5 601,368.5 605,365.5 607,364.5 " opacity="NaN" stroke-width="20" stroke="#000" fill="none"/>
  <path d="m607,364.5c2,-1 3.38507,-3.37201 6,-7c1.65381,-2.29453 2.23462,-6.15225 3,-8c0.5412,-1.30655 2,-3 2,-4c0,-1 0.70709,-1.29291 0,-2c-0.70709,-0.70709 -2,0 -4,-1c-2,-1 -7.04132,-1.84723 -11,-3c-6.07233,-1.76828 -13.88733,-4.37668 -20,-6c-4.92822,-1.30875 -10,-2 -16,-5c0,0 -1,-1 -2,-1c0,0 0,-1 0,-1c0,-1 0.11584,-3.96384 1,-7c1.15277,-3.95868 2.03552,-7.50424 5,-12c2.33551,-3.54193 6.54901,-7.60641 10,-13c1.20514,-1.88351 3.22272,-4.724 7,-8c1.06836,-0.92661 1.23462,-2.15225 2,-4c0.5412,-1.30655 1,-1 1,-2c0,0 -2,-1 -10,-1c-5,0 -11.02435,-0.49268 -16,0c-5.07422,0.50244 -10,1 -13,1c-1,0 -1,0 -1,0c1,-3 3.97449,-4.02051 8,-9c1.40576,-1.73892 5.367,-4.65814 10,-10c3.276,-3.77728 5.84796,-9.0797 8,-13c2.80591,-5.11145 5.49622,-9.90779 6,-14c0.12219,-0.99251 -1,-4 -2,-5c-2,-2 -3.97736,-4.09544 -8,-5c-4.97479,-1.11867 -10.22937,-1.33199 -14,-3c-3.2973,-1.45863 -4,-2 -4,-2c-1,0 -2,-1 -4,-1c-3,0 -4,0 -6,0l-1,0" id="svg_3" stroke-width="20" stroke="#000" fill="none"/>
  <polyline stroke-linecap="round" id="svg_4" points="334,365.5 334,365.5 335,365.5 339,365.5 347,365.5 354,365.5 361,364.5 363,364.5 370,363.5 372,363.5 376,362.5 380,361.5 385,359.5 390,358.5 392,357.5 405,354.5 407,353.5 411,352.5 415,351.5 420,350.5 426,348.5 429,348.5 433,347.5 438,347.5 442,345.5 445,345.5 448,344.5 450,344.5 453,343.5 455,343.5 " opacity="NaN" stroke-width="20" stroke="#000" fill="none"/>
  <path d="m455,343.5c2,-1 5.31,-1.33749 8,-3c1.203,-0.7435 4.29291,-2.29291 5,-3c0.70709,-0.70709 1,-2 1,-2l0,0l1,0" id="svg_5" stroke-width="20" stroke="#000" fill="none"/>
  <path d="m552,268.5c0,0 -1,0 -1,0c-3,3 -3,3 -5,5c-1,1 -4.08746,2.79395 -9,5c-10.19916,4.58011 -15.21918,6.5329 -22,10c-5.19165,2.65454 -8.90778,5.49622 -13,6c-0.99249,0.12219 -3.80566,1.44839 -8,3c-3.867,1.43048 -8.93796,2.49829 -15,3c-2.98978,0.24744 -9.90778,1.49622 -14,2c-2.97751,0.36655 -8,1 -11,1c-12,0 -21,0 -29,0c-6,0 -12,0 -14,0c-1,0 -4,0 -6,0c-1,0 -2,1 -3,1l-1,0l0,0" id="svg_6" stroke-width="20" stroke="#000" fill="none"/>
 </g>
</svg>