<?xml version="1.0" encoding="UTF-8" standalone="no" ?>
<!DOCTYPE svg PUBLIC "-//W3C//DTD SVG 1.1//EN" "http://www.w3.org/Graphics/SVG/1.1/DTD/svg11.dtd">
<svg xmlns="http://www.w3.org/2000/svg" xmlns:xlink="http://www.w3.org/1999/xlink" version="1.1" width="640" height="480" viewBox="0 0 640 480" xml:space="preserve">
<desc>Created with Fabric.js 3.6.6</desc>
<defs>
</defs>
<g transform="matrix(1 0 0 1 329 241.75)"  >
<path style="stroke: rgb(0,0,0); stroke-width: 25; stroke-dasharray: none; stroke-linecap: round; stroke-dashoffset: 0; stroke-linejoin: round; stroke-miterlimit: 10; fill: none; fill-rule: nonzero; opacity: 1;"  transform=" translate(-329, -241.75)" d="M 204.475 101.725 Q 204.5 101.75 205 101.75 Q 205.5 101.75 207 102.25 Q 208.5 102.75 210.5 103.25 Q 212.5 103.75 214.5 103.75 Q 216.5 103.75 219 104.75 Q 221.5 105.75 223.5 105.75 Q 225.5 105.75 228 106.25 Q 230.5 106.75 232.5 106.75 Q 234.5 106.75 237 107.25 Q 239.5 107.75 242 107.75 Q 244.5 107.75 246.5 108.25 Q 248.5 108.75 251 108.75 Q 253.5 108.75 255.5 109.25 Q 257.5 109.75 263 109.75 Q 268.5 109.75 270.5 110.25 Q 272.5 110.75 275.5 110.75 Q 278.5 110.75 281.5 112.25 Q 284.5 113.75 288 113.75 Q 291.5 113.75 295 114.25 Q 298.5 114.75 303 115.75 Q 307.5 116.75 311.5 117.25 Q 315.5 117.75 320.5 118.25 Q 325.5 118.75 328.5 118.75 Q 331.5 118.75 335 118.75 Q 338.5 118.75 340.5 118.75 Q 342.5 118.75 344.5 118.75 Q 346.5 118.75 350 118.25 Q 353.5 117.75 356 117.25 Q 358.5 116.75 359.5 116.75 Q 360.5 116.75 365 116.25 Q 369.5 115.75 371.5 115.25 Q 373.5 114.75 375 114.75 Q 376.5 114.75 378.5 114.25 Q 380.5 113.75 381.5 113.25 Q 382.5 112.75 385 111.75 Q 387.5 110.75 389.5 110.25 Q 391.5 109.75 393.5 108.75 Q 395.5 107.75 399.5 105.75 Q 403.5 103.75 405.5 102.75 Q 407.5 101.75 409 100.75 Q 410.5 99.75 412.5 98.25 Q 414.5 96.75 415.5 96.25 Q 416.5 95.75 418 94.75 Q 419.5 93.75 420 93.25 Q 420.5 92.75 422 91.75 Q 423.5 90.75 424 90.75 Q 424.5 90.75 425 90.25 Q 425.5 89.75 426 89.75 Q 426.5 89.75 427 89.25 Q 427.5 88.75 428 88.75 Q 428.5 88.75 429 88.75 Q 429.5 88.75 429.5 89.25 Q 429.5 89.75 429.5 90.25 Q 429.5 90.75 430 91.25 Q 430.5 91.75 430.5 92.25 Q 430.5 92.75 431 92.75 Q 431.5 92.75 432 93.25 Q 432.5 93.75 432.5 94.25 Q 432.5 94.75 433 95.75 Q 433.5 96.75 433.5 97.25 Q 433.5 97.75 434 98.25 Q 434.5 98.75 435 99.25 Q 435.5 99.75 435.5 100.25 Q 435.5 100.75 436.5 101.25 Q 437.5 101.75 437.5 102.25 Q 437.5 102.75 438 104.25 Q 438.5 105.75 438.5 106.25 Q 438.5 106.75 438.5 107.25 Q 438.5 107.75 438.5 108.25 Q 438.5 108.75 439 109.75 Q 439.5 110.75 439.5 112.25 Q 439.5 113.75 439.5 114.75 Q 439.5 115.75 439.5 116.25 Q 439.5 116.75 439.5 117.75 Q 439.5 118.75 439.5 119.75 Q 439.5 120.75 439 121.75 Q 438.5 122.75 438 124.25 Q 437.5 125.75 437.5 126.25 Q 437.5 126.75 437 127.75 Q 436.5 128.75 436 129.25 Q 435.5 129.75 435.5 130.25 Q 435.5 130.75 435 131.25 Q 434.5 131.75 434 132.75 Q 433.5 133.75 433 135.25 Q 432.5 136.75 431 137.75 Q 429.5 138.75 428.5 140.25 Q 427.5 141.75 426 143.25 Q 424.5 144.75 424 145.25 Q 423.5 145.75 422.5 146.75 Q 421.5 147.75 420 149.75 Q 418.5 151.75 418 152.25 Q 417.5 152.75 417 153.75 Q 416.5 154.75 416.5 156.25 Q 416.5 157.75 416.5 158.25 Q 416.5 158.75 416.5 159.75 Q 416.5 160.75 416.5 161.75 Q 416.5 162.75 416.5 163.25 Q 416.5 163.75 416.5 164.25 Q 416.5 164.75 417 165.25 Q 417.5 165.75 418.5 165.75 Q 419.5 165.75 421.5 166.25 Q 423.5 166.75 430 167.75 Q 436.5 168.75 437 169.25 Q 437.5 169.75 442.5 170.75 Q 447.5 171.75 449.5 172.25 Q 451.5 172.75 453.5 173.25 Q 455.5 173.75 459.5 174.75 Q 463.5 175.75 464.5 176.25 Q 465.5 176.75 467.5 177.75 Q 469.5 178.75 472 179.25 Q 474.5 179.75 477 180.75 Q 479.5 181.75 481.5 183.25 Q 483.5 184.75 485.5 186.25 Q 487.5 187.75 490.5 188.75 Q 493.5 189.75 494.5 191.25 Q 495.5 192.75 496.5 193.25 Q 497.5 193.75 498 194.75 Q 498.5 195.75 499 196.25 Q 499.5 196.75 500.5 197.75 Q 501.5 198.75 502 200.75 Q 502.5 202.75 502.5 203.75 Q 502.5 204.75 503.5 206.25 Q 504.5 207.75 504.5 208.75 Q 504.5 209.75 504.5 210.25 Q 504.5 210.75 504.5 211.75 Q 504.5 212.75 505 213.75 Q 505.5 214.75 505.5 215.75 Q 505.5 216.75 505.5 218.25 Q 505.5 219.75 505.5 220.25 Q 505.5 220.75 506 221.75 Q 506.5 222.75 506.5 223.75 Q 506.5 224.75 506.5 225.25 Q 506.5 225.75 506.5 226.25 Q 506.5 226.75 506 227.75 Q 505.5 228.75 505 229.25 Q 504.5 229.75 504 230.75 Q 503.5 231.75 503 232.75 Q 502.5 233.75 501.5 234.75 Q 500.5 235.75 499.5 236.75 Q 498.5 237.75 497.5 238.75 Q 496.5 239.75 495 241.25 Q 493.5 242.75 490.5 244.75 Q 487.5 246.75 484.5 248.25 Q 481.5 249.75 478.5 251.25 Q 475.5 252.75 473 254.25 Q 470.5 255.75 467.5 256.25 Q 464.5 256.75 462 258.25 Q 459.5 259.75 456.5 261.25 Q 453.5 262.75 451 263.25 Q 448.5 263.75 446 265.25 Q 443.5 266.75 441 267.75 Q 438.5 268.75 436 269.75 Q 433.5 270.75 431 272.25 Q 428.5 273.75 426.5 275.25 Q 424.5 276.75 421.5 278.25 Q 418.5 279.75 418 280.25 Q 417.5 280.75 414 283.25 Q 410.5 285.75 404.5 289.25 Q 398.5 292.75 395.5 294.75 Q 392.5 296.75 389.5 299.25 Q 386.5 301.75 383.5 303.75 Q 380.5 305.75 377 308.75 Q 373.5 311.75 368.5 315.75 Q 363.5 319.75 360 322.75 Q 356.5 325.75 353 328.75 Q 349.5 331.75 346.5 334.25 Q 343.5 336.75 340.5 339.75 Q 337.5 342.75 334.5 345.25 Q 331.5 347.75 328.5 350.25 Q 325.5 352.75 323.5 353.75 Q 321.5 354.75 320 356.75 Q 318.5 358.75 317 359.75 Q 315.5 360.75 313 362.75 Q 310.5 364.75 310 365.25 Q 309.5 365.75 308.5 366.25 Q 307.5 366.75 306.5 367.25 Q 305.5 367.75 304 368.75 Q 302.5 369.75 300.5 371.25 Q 298.5 372.75 296.5 373.75 Q 294.5 374.75 293 375.25 Q 291.5 375.75 289.5 377.25 Q 287.5 378.75 284 379.75 Q 280.5 380.75 277.5 381.75 Q 274.5 382.75 271.5 383.75 Q 268.5 384.75 264.5 386.25 Q 260.5 387.75 257.5 388.25 Q 254.5 388.75 251.5 389.75 Q 248.5 390.75 246 391.25 Q 243.5 391.75 240.5 392.25 Q 237.5 392.75 235.5 393.25 Q 233.5 393.75 232.5 394.25 Q 231.5 394.75 231 394.75 Q 230.5 394.75 230 394.75 Q 229.5 394.75 229.5 394.25 Q 229.5 393.75 229.5 393.25 Q 229.5 392.75 229.5 392.25 Q 229.5 391.75 229 391.75 Q 228.5 391.75 228.5 391.25 Q 228.5 390.75 228.5 390.25 Q 228.5 389.75 228.5 389.25 Q 228.5 388.75 228.5 388.25 Q 228.5 387.75 228.5 387.25 Q 228.5 386.75 228.5 386.25 Q 228.5 385.75 228.5 385.25 Q 228.5 384.75 228.5 384.25 Q 228.5 383.75 228.5 383.25 Q 228.5 382.75 228.5 382.25 Q 228.5 381.75 228.5 381.25 Q 228.5 380.75 228.5 380.25 Q 228.5 379.75 228.5 379.25 Q 228.5 378.75 228.5 378.25 Q 228.5 377.75 229 377.25 Q 229.5 376.75 229.5 376.25 Q 229.5 375.75 230 375.25 Q 230.5 374.75 230.5 373.75 Q 230.5 372.75 231 372.25 Q 231.5 371.75 231.5 371.25 Q 231.5 370.75 232 370.25 Q 232.5 369.75 232.5 368.25 Q 232.5 366.75 233 366.25 Q 233.5 365.75 233.5 364.25 Q 233.5 362.75 233.5 361.75 Q 233.5 360.75 233.5 360.25 Q 233.5 359.75 234 358.75 Q 234.5 357.75 234.5 356.75 Q 234.5 355.75 235 354.25 Q 235.5 352.75 235.5 351.25 Q 235.5 349.75 235.5 347.75 Q 235.5 345.75 235.5 344.75 Q 235.5 343.75 235.5 342.75 Q 235.5 341.75 235.5 340.25 Q 235.5 338.75 235.5 338.25 Q 235.5 337.75 235.5 337.25 Q 235.5 336.75 235.5 335.75 Q 235.5 334.75 235.5 334.25 Q 235.5 333.75 235.5 333.25 Q 235.5 332.75 235.5 332.25 Q 235.5 331.75 234.5 329.75 Q 233.5 327.75 233 326.25 Q 232.5 324.75 231 321.75 Q 229.5 318.75 228 317.25 Q 226.5 315.75 224 311.75 Q 221.5 307.75 220.5 306.25 Q 219.5 304.75 216.5 301.25 Q 213.5 297.75 212.5 295.75 Q 211.5 293.75 209.5 291.75 Q 207.5 289.75 205 286.75 Q 202.5 283.75 200.5 282.25 Q 198.5 280.75 196.5 278.75 Q 194.5 276.75 192.5 274.75 Q 190.5 272.75 189 271.25 Q 187.5 269.75 186 268.75 Q 184.5 267.75 184 267.25 Q 183.5 266.75 183 265.75 Q 182.5 264.75 182 263.75 Q 181.5 262.75 180.5 261.75 Q 179.5 260.75 177.5 258.75 Q 175.5 256.75 174 255.25 Q 172.5 253.75 171 251.25 Q 169.5 248.75 168 246.75 Q 166.5 244.75 165 242.75 Q 163.5 240.75 162.5 239.75 Q 161.5 238.75 160.5 237.75 Q 159.5 236.75 158.5 235.25 Q 157.5 233.75 157 233.25 Q 156.5 232.75 156 231.75 Q 155.5 230.75 154.5 228.75 Q 153.5 226.75 153 225.75 Q 152.5 224.75 152 223.75 Q 151.5 222.75 151.5 222.25 Q 151.5 221.75 151.5 220.75 Q 151.5 219.75 151.5 217.75 Q 151.5 215.75 151.5 214.25 Q 151.5 212.75 151.5 210.75 Q 151.5 208.75 151.5 207.75 Q 151.5 206.75 151.5 204.75 Q 151.5 202.75 151.5 201.25 Q 151.5 199.75 151.5 197.75 Q 151.5 195.75 151.5 195.25 Q 151.5 194.75 151.5 193.75 Q 151.5 192.75 152 192.25 Q 152.5 191.75 152.5 190.75 Q 152.5 189.75 153 189.75 Q 153.5 189.75 153.5 189.25 Q 153.5 188.75 154 188.25 Q 154.5 187.75 155 187.75 Q 155.5 187.75 156 187.25 Q 156.5 186.75 157.5 186.75 Q 158.5 186.75 159 186.75 Q 159.5 186.75 160 186.75 Q 160.5 186.75 161.5 186.75 Q 162.5 186.75 163 186.25 Q 163.5 185.75 164.5 185.75 Q 165.5 185.75 167.5 185.75 Q 169.5 185.75 171.5 185.75 Q 173.5 185.75 176 185.75 Q 178.5 185.75 180.5 185.75 Q 182.5 185.75 184.5 185.75 Q 186.5 185.75 187.5 186.25 Q 188.5 186.75 189 186.75 Q 189.5 186.75 190 186.75 Q 190.5 186.75 191 186.75 Q 191.5 186.75 192 186.75 Q 192.5 186.75 193.5 186.75 Q 194.5 186.75 195 186.75 Q 195.5 186.75 196 186.75 Q 196.5 186.75 197 186.75 Q 197.5 186.75 198 186.75 Q 198.5 186.75 198.5 186.25 Q 198.5 185.75 199 184.25 Q 199.5 182.75 199.5 182.25 Q 199.5 181.75 199.5 181.25 Q 199.5 180.75 199.5 180.25 Q 199.5 179.75 199.5 177.75 Q 199.5 175.75 199.5 174.25 Q 199.5 172.75 199.5 170.75 Q 199.5 168.75 199.5 166.75 Q 199.5 164.75 199 162.75 Q 198.5 160.75 198 158.75 Q 197.5 156.75 197.5 155.25 Q 197.5 153.75 197 153.25 Q 196.5 152.75 196 151.25 Q 195.5 149.75 195.5 149.25 Q 195.5 148.75 195 148.75 Q 194.5 148.75 194.5 148.25 Q 194.5 147.75 194.5 147.25 Q 194.5 146.75 194 146.75 Q 193.5 146.75 193.5 146.25 Q 193.5 145.75 193.5 144.75 Q 193.5 143.75 193.5 142.25 Q 193.5 140.75 193.5 139.75 Q 193.5 138.75 194 137.75 Q 194.5 136.75 195.5 134.75 Q 196.5 132.75 197 131.25 Q 197.5 129.75 198 127.75 Q 198.5 125.75 199 125.25 Q 199.5 124.75 199.5 124.25 Q 199.5 123.75 200 123.25 Q 200.5 122.75 201 122.25 Q 201.5 121.75 202 121.25 Q 202.5 120.75 203 120.75 Q 203.5 120.75 204 120.75 Q 204.5 120.75 205 120.25 L 205.525 119.725" stroke-linecap="round" />
</g>
<g transform="matrix(1 0 0 1 254 166.23)"  >
<path style="stroke: rgb(0,0,0); stroke-width: 25; stroke-dasharray: none; stroke-linecap: round; stroke-dashoffset: 0; stroke-linejoin: round; stroke-miterlimit: 10; fill: none; fill-rule: nonzero; opacity: 1;"  transform=" translate(-254, -166.24)" d="M 193.475 145.725 Q 193.5 145.75 193.5 146.25 Q 193.5 146.75 195 148.25 Q 196.5 149.75 199 151.25 Q 201.5 152.75 205.5 155.25 Q 209.5 157.75 215.5 160.75 Q 221.5 163.75 227.5 166.25 Q 233.5 168.75 240 171.25 Q 246.5 173.75 252 175.75 Q 257.5 177.75 263 179.75 Q 268.5 181.75 275 183.25 Q 281.5 184.75 283 185.25 Q 284.5 185.75 289 186.25 Q 293.5 186.75 295.5 186.75 Q 297.5 186.75 298.5 186.75 Q 299.5 186.75 300.5 186.75 Q 301.5 186.75 303 186.75 Q 304.5 186.75 306 185.75 Q 307.5 184.75 309 184.75 Q 310.5 184.75 312.5 184.25 L 314.525 183.725" stroke-linecap="round" />
</g>
<g transform="matrix(1 0 0 1 353 216.23)"  >
<path style="stroke: rgb(0,0,0); stroke-width: 25; stroke-dasharray: none; stroke-linecap: round; stroke-dashoffset: 0; stroke-linejoin: round; stroke-miterlimit: 10; fill: none; fill-rule: nonzero; opacity: 1;"  transform=" translate(-353, -216.24)" d="M 432.525 168.725 Q 432.5 168.75 432 170.75 Q 431.5 172.75 430 175.25 Q 428.5 177.75 426 181.75 Q 423.5 185.75 421.5 188.75 Q 419.5 191.75 417.5 195.75 Q 415.5 199.75 412.5 202.75 Q 409.5 205.75 404 211.25 Q 398.5 216.75 397 219.25 Q 395.5 221.75 392.5 224.25 Q 389.5 226.75 387 229.75 Q 384.5 232.75 382.5 233.75 Q 380.5 234.75 374.5 239.75 Q 368.5 244.75 365 247.25 Q 361.5 249.75 358.5 252.25 Q 355.5 254.75 352.5 255.75 Q 349.5 256.75 347 258.25 Q 344.5 259.75 340.5 260.75 Q 336.5 261.75 335 261.75 Q 333.5 261.75 329 261.75 Q 324.5 261.75 319.5 261.75 Q 314.5 261.75 311 261.75 Q 307.5 261.75 304.5 261.75 Q 301.5 261.75 299 261.75 Q 296.5 261.75 295.5 261.75 Q 294.5 261.75 289 262.25 Q 283.5 262.75 281 263.25 Q 278.5 263.75 276.5 263.75 Q 274.5 263.75 274 263.75 L 273.475 263.75" stroke-linecap="round" />
</g>
<g transform="matrix(1 0 0 1 317.5 76.76)"  >
<path style="stroke: rgb(0,0,0); stroke-width: 25; stroke-dasharray: none; stroke-linecap: round; stroke-dashoffset: 0; stroke-linejoin: round; stroke-miterlimit: 10; fill: none; fill-rule: nonzero; opacity: 1;"  transform=" translate(-317.5, -76.76)" d="M 424.5 93.775 Q 424.5 93.75 424.5 93.25 Q 424.5 92.75 424.5 92.25 Q 424.5 91.75 425 91.25 Q 425.5 90.75 425.5 90.25 Q 425.5 89.75 426.5 88.75 Q 427.5 87.75 428 87.25 Q 428.5 86.75 428.5 86.25 Q 428.5 85.75 429 85.25 Q 429.5 84.75 430 83.75 Q 430.5 82.75 431 81.25 Q 431.5 79.75 431.5 77.75 Q 431.5 75.75 432 74.75 Q 432.5 73.75 432.5 72.25 Q 432.5 70.75 432.5 69.75 Q 432.5 68.75 432.5 68.25 Q 432.5 67.75 432 67.25 Q 431.5 66.75 431.5 65.75 Q 431.5 64.75 431 64.25 Q 430.5 63.75 430 62.75 Q 429.5 61.75 428.5 60.75 Q 427.5 59.75 426 59.25 Q 424.5 58.75 421.5 58.75 Q 418.5 58.75 417 58.75 Q 415.5 58.75 410 58.75 Q 404.5 58.75 401 58.75 Q 397.5 58.75 394 58.75 Q 390.5 58.75 387 58.75 Q 383.5 58.75 380 58.75 Q 376.5 58.75 372.5 58.75 Q 368.5 58.75 363.5 58.75 Q 358.5 58.75 354 58.75 Q 349.5 58.75 345.5 58.75 Q 341.5 58.75 336.5 58.75 Q 331.5 58.75 327.5 58.75 Q 323.5 58.75 318 58.75 Q 312.5 58.75 309 58.75 Q 305.5 58.75 302 58.75 Q 298.5 58.75 295 58.75 Q 291.5 58.75 288.5 58.75 Q 285.5 58.75 282.5 58.75 Q 279.5 58.75 276.5 58.75 Q 273.5 58.75 271.5 58.75 Q 269.5 58.75 266.5 58.75 Q 263.5 58.75 261 58.75 Q 258.5 58.75 256 59.25 Q 253.5 59.75 251 59.75 Q 248.5 59.75 245.5 60.75 Q 242.5 61.75 241 61.75 Q 239.5 61.75 237 62.25 Q 234.5 62.75 233 63.25 Q 231.5 63.75 230.5 63.75 Q 229.5 63.75 227.5 64.25 Q 225.5 64.75 224.5 65.25 Q 223.5 65.75 222 65.75 Q 220.5 65.75 220 66.25 Q 219.5 66.75 219 66.75 Q 218.5 66.75 217.5 67.25 Q 216.5 67.75 216 68.25 Q 215.5 68.75 215 68.75 Q 214.5 68.75 213.5 69.25 Q 212.5 69.75 212 70.25 Q 211.5 70.75 211 71.25 Q 210.5 71.75 210 72.25 Q 209.5 72.75 209 72.75 Q 208.5 72.75 208.5 73.25 Q 208.5 73.75 208 74.25 Q 207.5 74.75 207.5 75.25 Q 207.5 75.75 207 76.25 Q 206.5 76.75 206 77.25 Q 205.5 77.75 205 78.25 Q 204.5 78.75 204.5 79.25 Q 204.5 79.75 204.5 80.25 Q 204.5 80.75 204.5 81.25 Q 204.5 81.75 204 82.25 Q 203.5 82.75 203.5 83.25 Q 203.5 83.75 203 84.25 Q 202.5 84.75 202.5 85.25 Q 202.5 85.75 202.5 86.25 Q 202.5 86.75 202.5 87.25 Q 202.5 87.75 202.5 88.25 Q 202.5 88.75 202.5 89.25 Q 202.5 89.75 202.5 90.25 Q 202.5 90.75 202.5 91.25 Q 202.5 91.75 202.5 92.25 Q 202.5 92.75 202.5 93.25 Q 202.5 93.75 202.5 94.25 L 202.5 94.775" stroke-linecap="round" />
</g>
</svg>