<?xml version="1.0" encoding="UTF-8" standalone="no" ?>
<!DOCTYPE svg PUBLIC "-//W3C//DTD SVG 1.1//EN" "http://www.w3.org/Graphics/SVG/1.1/DTD/svg11.dtd">
<svg xmlns="http://www.w3.org/2000/svg" xmlns:xlink="http://www.w3.org/1999/xlink" version="1.1" width="640" height="480" viewBox="0 0 640 480" xml:space="preserve">
<desc>Created with Fabric.js 3.6.6</desc>
<defs>
</defs>
<g transform="matrix(1 0 0 1 329 229.75)"  >
<path style="stroke: rgb(0,0,0); stroke-width: 25; stroke-dasharray: none; stroke-linecap: round; stroke-dashoffset: 0; stroke-linejoin: round; stroke-miterlimit: 10; fill: none; fill-rule: nonzero; opacity: 1;"  transform=" translate(-329, -229.75)" d="M 240.475 34.725 Q 240.5 34.75 240.5 35.75 Q 240.5 36.75 241.5 37.75 Q 242.5 38.75 243 39.75 Q 243.5 40.75 245 42.25 Q 246.5 43.75 248.5 45.75 Q 250.5 47.75 252.5 49.25 Q 254.5 50.75 256.5 52.25 Q 258.5 53.75 260.5 54.75 Q 262.5 55.75 264 56.25 Q 265.5 56.75 267 57.25 Q 268.5 57.75 269.5 58.25 Q 270.5 58.75 271.5 59.75 Q 272.5 60.75 273 60.75 Q 273.5 60.75 274.5 61.25 Q 275.5 61.75 276 61.75 Q 276.5 61.75 277 62.25 Q 277.5 62.75 279 63.25 Q 280.5 63.75 281.5 63.75 Q 282.5 63.75 284 64.25 Q 285.5 64.75 287 65.25 Q 288.5 65.75 289.5 66.75 Q 290.5 67.75 291 67.75 Q 291.5 67.75 292.5 67.75 Q 293.5 67.75 295 67.75 Q 296.5 67.75 297.5 67.75 Q 298.5 67.75 300.5 67.75 Q 302.5 67.75 304 67.25 Q 305.5 66.75 306 66.75 Q 306.5 66.75 307.5 66.25 Q 308.5 65.75 310.5 65.25 Q 312.5 64.75 314 64.25 Q 315.5 63.75 317 63.25 Q 318.5 62.75 320 61.75 Q 321.5 60.75 324 59.75 Q 326.5 58.75 328 57.75 Q 329.5 56.75 330.5 56.25 Q 331.5 55.75 332.5 55.25 Q 333.5 54.75 334.5 53.75 Q 335.5 52.75 336.5 51.75 Q 337.5 50.75 338.5 50.25 Q 339.5 49.75 340 49.25 Q 340.5 48.75 341.5 48.25 Q 342.5 47.75 343 47.25 Q 343.5 46.75 344 46.25 Q 344.5 45.75 345.5 45.25 Q 346.5 44.75 347 43.75 Q 347.5 42.75 348 42.25 Q 348.5 41.75 349 41.75 Q 349.5 41.75 350.5 40.75 Q 351.5 39.75 352 39.25 Q 352.5 38.75 353 38.25 Q 353.5 37.75 353.5 37.25 Q 353.5 36.75 354 36.75 Q 354.5 36.75 354.5 36.25 Q 354.5 35.75 355 35.25 Q 355.5 34.75 356 34.75 Q 356.5 34.75 357 34.25 Q 357.5 33.75 357.5 33.25 Q 357.5 32.75 358 32.75 Q 358.5 32.75 358.5 32.25 Q 358.5 31.75 358.5 31.25 Q 358.5 30.75 358.5 30.25 Q 358.5 29.75 359 29.25 Q 359.5 28.75 359.5 28.25 Q 359.5 27.75 360 27.75 Q 360.5 27.75 362 27.75 Q 363.5 27.75 366 27.75 Q 368.5 27.75 371 27.75 Q 373.5 27.75 376.5 28.25 Q 379.5 28.75 383 28.75 Q 386.5 28.75 389 29.25 Q 391.5 29.75 394.5 30.25 Q 397.5 30.75 400 30.75 Q 402.5 30.75 406 30.75 Q 409.5 30.75 411.5 30.75 Q 413.5 30.75 416 30.75 Q 418.5 30.75 421 30.75 Q 423.5 30.75 425.5 30.75 Q 427.5 30.75 430 30.75 Q 432.5 30.75 434.5 30.75 Q 436.5 30.75 438.5 30.75 Q 440.5 30.75 442.5 31.25 Q 444.5 31.75 446.5 32.25 Q 448.5 32.75 451 32.75 Q 453.5 32.75 456.5 32.75 Q 459.5 32.75 463 32.75 Q 466.5 32.75 469 32.75 Q 471.5 32.75 473 32.75 Q 474.5 32.75 475.5 32.75 Q 476.5 32.75 477.5 32.75 Q 478.5 32.75 479 32.75 Q 479.5 32.75 480 32.75 Q 480.5 32.75 480.5 33.25 Q 480.5 33.75 480.5 34.25 Q 480.5 34.75 481 35.25 Q 481.5 35.75 482.5 36.25 Q 483.5 36.75 484 37.25 Q 484.5 37.75 485 37.75 Q 485.5 37.75 486 38.25 Q 486.5 38.75 486.5 39.25 Q 486.5 39.75 487 39.75 Q 487.5 39.75 487.5 40.25 Q 487.5 40.75 488 41.25 Q 488.5 41.75 489 42.25 Q 489.5 42.75 489.5 43.25 Q 489.5 43.75 490.5 44.75 Q 491.5 45.75 492 47.25 Q 492.5 48.75 493.5 49.75 Q 494.5 50.75 495 51.25 Q 495.5 51.75 496.5 52.75 Q 497.5 53.75 498 54.75 Q 498.5 55.75 499.5 57.25 Q 500.5 58.75 501 60.25 Q 501.5 61.75 503.5 64.75 Q 505.5 67.75 506 68.25 Q 506.5 68.75 508 70.25 Q 509.5 71.75 510 73.75 Q 510.5 75.75 511 76.25 Q 511.5 76.75 512 78.25 Q 512.5 79.75 513.5 81.25 Q 514.5 82.75 515 83.75 Q 515.5 84.75 516 85.75 Q 516.5 86.75 518 88.25 Q 519.5 89.75 520 91.25 Q 520.5 92.75 522 94.25 Q 523.5 95.75 524.5 97.25 Q 525.5 98.75 526.5 100.75 Q 527.5 102.75 529 104.75 Q 530.5 106.75 531.5 108.25 Q 532.5 109.75 534.5 112.25 Q 536.5 114.75 537.5 116.25 Q 538.5 117.75 540 118.75 Q 541.5 119.75 542.5 121.25 Q 543.5 122.75 544 124.25 Q 544.5 125.75 546 127.75 Q 547.5 129.75 548.5 130.75 Q 549.5 131.75 550.5 133.75 Q 551.5 135.75 552 136.75 Q 552.5 137.75 555 141.25 Q 557.5 144.75 559.5 148.25 Q 561.5 151.75 563.5 154.25 Q 565.5 156.75 567 159.75 Q 568.5 162.75 569.5 164.75 Q 570.5 166.75 571 167.75 Q 571.5 168.75 572 169.25 Q 572.5 169.75 572.5 170.75 Q 572.5 171.75 573 171.75 Q 573.5 171.75 573.5 172.25 Q 573.5 172.75 573.5 173.25 Q 573.5 173.75 573.5 174.25 Q 573.5 174.75 572.5 176.25 Q 571.5 177.75 570.5 179.25 Q 569.5 180.75 568.5 181.75 Q 567.5 182.75 565.5 184.25 Q 563.5 185.75 561.5 186.75 Q 559.5 187.75 557.5 188.75 Q 555.5 189.75 552.5 191.75 Q 549.5 193.75 547 194.75 Q 544.5 195.75 541.5 197.25 Q 538.5 198.75 533.5 201.75 Q 528.5 204.75 527 204.75 Q 525.5 204.75 521.5 207.25 Q 517.5 209.75 515 211.25 Q 512.5 212.75 510.5 213.75 Q 508.5 214.75 506 215.75 Q 503.5 216.75 501.5 218.25 Q 499.5 219.75 497 220.75 Q 494.5 221.75 494 222.75 Q 493.5 223.75 491.5 224.75 Q 489.5 225.75 488.5 226.25 Q 487.5 226.75 486 227.75 Q 484.5 228.75 484 228.75 Q 483.5 228.75 483 228.75 Q 482.5 228.75 482 228.25 Q 481.5 227.75 480 225.75 Q 478.5 223.75 475.5 221.75 Q 472.5 219.75 470 216.75 Q 467.5 213.75 464 210.75 Q 460.5 207.75 457 204.75 Q 453.5 201.75 450.5 198.25 Q 447.5 194.75 445.5 191.25 Q 443.5 187.75 442.5 186.25 Q 441.5 184.75 439 181.75 Q 436.5 178.75 435.5 177.25 Q 434.5 175.75 434 174.75 Q 433.5 173.75 433 173.25 Q 432.5 172.75 432.5 172.25 Q 432.5 171.75 432.5 170.75 Q 432.5 169.75 431.5 168.25 Q 430.5 166.75 430 165.75 Q 429.5 164.75 429 164.25 Q 428.5 163.75 428 162.75 Q 427.5 161.75 427 161.25 Q 426.5 160.75 426.5 162.25 Q 426.5 163.75 426.5 165.75 Q 426.5 167.75 426 170.75 Q 425.5 173.75 425.5 176.25 Q 425.5 178.75 425.5 182.25 Q 425.5 185.75 425 188.25 Q 424.5 190.75 424.5 193.75 Q 424.5 196.75 424.5 199.25 Q 424.5 201.75 424.5 204.75 Q 424.5 207.75 424.5 209.75 Q 424.5 211.75 424.5 214.75 Q 424.5 217.75 425 220.25 Q 425.5 222.75 425.5 224.75 Q 425.5 226.75 425.5 229.25 Q 425.5 231.75 425.5 233.75 Q 425.5 235.75 426 239.25 Q 426.5 242.75 426.5 246.75 Q 426.5 250.75 427 255.25 Q 427.5 259.75 427.5 263.75 Q 427.5 267.75 428.5 272.25 Q 429.5 276.75 430.5 282.25 Q 431.5 287.75 431.5 288.75 Q 431.5 289.75 431.5 293.75 Q 431.5 297.75 432 300.75 Q 432.5 303.75 432.5 306.75 Q 432.5 309.75 433 314.25 Q 433.5 318.75 433.5 322.25 Q 433.5 325.75 433.5 329.25 Q 433.5 332.75 433.5 334.75 Q 433.5 336.75 433.5 339.25 Q 433.5 341.75 433.5 343.25 Q 433.5 344.75 433.5 346.75 Q 433.5 348.75 433.5 351.75 Q 433.5 354.75 433.5 356.75 Q 433.5 358.75 433.5 362.75 Q 433.5 366.75 433.5 369.25 Q 433.5 371.75 433.5 373.25 Q 433.5 374.75 433.5 376.75 Q 433.5 378.75 433 380.25 Q 432.5 381.75 432.5 383.25 Q 432.5 384.75 432.5 386.25 Q 432.5 387.75 432 389.75 Q 431.5 391.75 431.5 393.25 Q 431.5 394.75 431.5 397.25 Q 431.5 399.75 431.5 400.75 Q 431.5 401.75 431.5 404.75 Q 431.5 407.75 431.5 408.75 Q 431.5 409.75 431.5 411.25 Q 431.5 412.75 431.5 414.25 Q 431.5 415.75 431 418.25 Q 430.5 420.75 430.5 421.75 Q 430.5 422.75 430.5 423.25 Q 430.5 423.75 430.5 424.25 Q 430.5 424.75 430 425.25 Q 429.5 425.75 429 425.75 Q 428.5 425.75 428 426.25 Q 427.5 426.75 426 427.25 Q 424.5 427.75 423 428.25 Q 421.5 428.75 419.5 428.75 Q 417.5 428.75 415.5 429.75 Q 413.5 430.75 412 431.25 Q 410.5 431.75 408.5 431.75 Q 406.5 431.75 403.5 431.75 Q 400.5 431.75 398.5 431.75 Q 396.5 431.75 394 431.75 Q 391.5 431.75 388.5 431.75 Q 385.5 431.75 382 431.75 Q 378.5 431.75 375.5 431.75 Q 372.5 431.75 367.5 431.75 Q 362.5 431.75 359 431.75 Q 355.5 431.75 351.5 431.75 Q 347.5 431.75 344.5 431.75 Q 341.5 431.75 338.5 431.75 Q 335.5 431.75 333 431.75 Q 330.5 431.75 327.5 431.75 Q 324.5 431.75 322 431.75 Q 319.5 431.75 316.5 431.75 Q 313.5 431.75 311.5 431.75 Q 309.5 431.75 307 431.75 Q 304.5 431.75 301.5 431.75 Q 298.5 431.75 296.5 431.75 Q 294.5 431.75 291 431.75 Q 287.5 431.75 284.5 431.75 Q 281.5 431.75 278.5 431.75 Q 275.5 431.75 273 431.75 Q 270.5 431.75 267.5 431.75 Q 264.5 431.75 261.5 431.75 Q 258.5 431.75 256 431.75 Q 253.5 431.75 251 431.75 Q 248.5 431.75 246 431.75 Q 243.5 431.75 241.5 431.75 Q 239.5 431.75 236 431.75 Q 232.5 431.75 230 431.25 Q 227.5 430.75 225 430.75 Q 222.5 430.75 220.5 430.75 Q 218.5 430.75 216.5 430.75 Q 214.5 430.75 213 430.75 Q 211.5 430.75 210.5 430.25 Q 209.5 429.75 208 429.75 Q 206.5 429.75 206 429.75 Q 205.5 429.75 205 429.75 Q 204.5 429.75 204 429.25 Q 203.5 428.75 203 428.75 Q 202.5 428.75 201.5 428.25 Q 200.5 427.75 200 427.75 Q 199.5 427.75 199 427.75 Q 198.5 427.75 198 427.25 Q 197.5 426.75 196.5 426.75 Q 195.5 426.75 195 426.75 Q 194.5 426.75 194 426.25 Q 193.5 425.75 193 425.25 Q 192.5 424.75 191.5 424.25 Q 190.5 423.75 189 423.25 Q 187.5 422.75 186 422.25 Q 184.5 421.75 183 420.75 Q 181.5 419.75 180.5 419.25 Q 179.5 418.75 179.5 418.25 Q 179.5 417.75 179.5 416.75 Q 179.5 415.75 181 413.75 Q 182.5 411.75 183.5 408.75 Q 184.5 405.75 186 402.25 Q 187.5 398.75 190.5 394.75 Q 193.5 390.75 195 386.75 Q 196.5 382.75 198 379.25 Q 199.5 375.75 200.5 373.25 Q 201.5 370.75 203 366.25 Q 204.5 361.75 205.5 358.25 Q 206.5 354.75 207.5 350.75 Q 208.5 346.75 208.5 343.25 Q 208.5 339.75 209 335.75 Q 209.5 331.75 209.5 328.25 Q 209.5 324.75 209.5 321.25 Q 209.5 317.75 209.5 314.25 Q 209.5 310.75 209.5 306.25 Q 209.5 301.75 209.5 298.25 Q 209.5 294.75 209.5 291.25 Q 209.5 287.75 209.5 284.25 Q 209.5 280.75 209 275.75 Q 208.5 270.75 208 267.75 Q 207.5 264.75 207 262.25 Q 206.5 259.75 206 257.25 Q 205.5 254.75 205.5 253.25 Q 205.5 251.75 205.5 250.25 Q 205.5 248.75 205 247.75 Q 204.5 246.75 204.5 245.25 Q 204.5 243.75 204.5 243.25 Q 204.5 242.75 204.5 241.25 Q 204.5 239.75 204.5 237.75 Q 204.5 235.75 204.5 234.75 Q 204.5 233.75 204.5 231.25 Q 204.5 228.75 204 226.25 Q 203.5 223.75 203.5 221.75 Q 203.5 219.75 203 217.75 Q 202.5 215.75 202.5 214.75 Q 202.5 213.75 202.5 212.25 Q 202.5 210.75 202.5 209.25 Q 202.5 207.75 202 206.75 Q 201.5 205.75 201.5 204.25 Q 201.5 202.75 201.5 201.75 Q 201.5 200.75 201.5 199.75 Q 201.5 198.75 201.5 197.75 Q 201.5 196.75 201.5 196.25 Q 201.5 195.75 201 194.75 Q 200.5 193.75 200.5 192.25 Q 200.5 190.75 200.5 190.25 Q 200.5 189.75 200.5 189.25 Q 200.5 188.75 200.5 187.75 Q 200.5 186.75 200 186.25 Q 199.5 185.75 199.5 185.25 Q 199.5 184.75 199.5 184.25 Q 199.5 183.75 199.5 184.25 Q 199.5 184.75 199 184.75 Q 198.5 184.75 198 185.25 Q 197.5 185.75 197 186.75 Q 196.5 187.75 196 188.75 Q 195.5 189.75 195 190.25 Q 194.5 190.75 193 193.75 Q 191.5 196.75 190.5 198.25 Q 189.5 199.75 188 201.25 Q 186.5 202.75 185.5 204.25 Q 184.5 205.75 183 208.25 Q 181.5 210.75 180 212.75 Q 178.5 214.75 177.5 217.25 Q 176.5 219.75 175 221.75 Q 173.5 223.75 172.5 225.75 Q 171.5 227.75 170.5 229.25 Q 169.5 230.75 168.5 232.75 Q 167.5 234.75 167 235.75 Q 166.5 236.75 166 237.75 Q 165.5 238.75 165 239.75 Q 164.5 240.75 164 241.25 Q 163.5 241.75 163 242.75 Q 162.5 243.75 162 244.25 Q 161.5 244.75 161 244.75 Q 160.5 244.75 160 244.75 Q 159.5 244.75 158 243.75 Q 156.5 242.75 154 241.25 Q 151.5 239.75 148.5 238.25 Q 145.5 236.75 143 235.25 Q 140.5 233.75 138.5 231.75 Q 136.5 229.75 134.5 226.25 Q 132.5 222.75 131 220.75 Q 129.5 218.75 127 214.75 Q 124.5 210.75 122 206.25 Q 119.5 201.75 117.5 197.75 Q 115.5 193.75 114.5 191.75 Q 113.5 189.75 111.5 186.25 Q 109.5 182.75 107.5 179.25 Q 105.5 175.75 104 172.25 Q 102.5 168.75 101 166.75 Q 99.5 164.75 98 161.75 Q 96.5 158.75 94 156.25 Q 91.5 153.75 90.5 151.75 Q 89.5 149.75 88.5 148.75 Q 87.5 147.75 86.5 146.25 Q 85.5 144.75 85 143.75 Q 84.5 142.75 84.5 142.25 Q 84.5 141.75 84.5 141.25 Q 84.5 140.75 85 140.25 Q 85.5 139.75 86 139.25 Q 86.5 138.75 87.5 138.25 Q 88.5 137.75 90.5 136.75 Q 92.5 135.75 94.5 133.75 Q 96.5 131.75 98.5 130.25 Q 100.5 128.75 104 125.75 Q 107.5 122.75 109.5 121.25 Q 111.5 119.75 113.5 118.25 Q 115.5 116.75 117 115.75 Q 118.5 114.75 120 112.75 Q 121.5 110.75 124 109.25 Q 126.5 107.75 128.5 106.25 Q 130.5 104.75 133 103.25 Q 135.5 101.75 137 100.75 Q 138.5 99.75 141 97.75 Q 143.5 95.75 145.5 93.75 Q 147.5 91.75 149 89.75 Q 150.5 87.75 155.5 82.75 Q 160.5 77.75 162.5 74.75 Q 164.5 71.75 166 69.75 Q 167.5 67.75 168 66.25 Q 168.5 64.75 169.5 62.75 Q 170.5 60.75 171 59.75 Q 171.5 58.75 172.5 57.25 Q 173.5 55.75 173.5 54.75 Q 173.5 53.75 174.5 52.25 Q 175.5 50.75 176 48.75 Q 176.5 46.75 177 46.25 Q 177.5 45.75 178.5 44.75 Q 179.5 43.75 180 43.25 Q 180.5 42.75 181 42.25 Q 181.5 41.75 181.5 41.25 Q 181.5 40.75 182 40.75 Q 182.5 40.75 182.5 40.25 Q 182.5 39.75 183 39.75 Q 183.5 39.75 185 39.75 Q 186.5 39.75 187 39.75 Q 187.5 39.75 191 39.25 Q 194.5 38.75 196.5 38.75 Q 198.5 38.75 199.5 38.75 Q 200.5 38.75 202 38.75 Q 203.5 38.75 204 38.75 Q 204.5 38.75 205.5 38.75 Q 206.5 38.75 207.5 38.25 Q 208.5 37.75 209.5 37.75 Q 210.5 37.75 212 37.75 Q 213.5 37.75 214.5 37.75 Q 215.5 37.75 216.5 37.75 Q 217.5 37.75 218.5 37.75 Q 219.5 37.75 220 37.75 Q 220.5 37.75 221 37.75 Q 221.5 37.75 222 37.25 Q 222.5 36.75 223.5 36.75 Q 224.5 36.75 225 36.75 Q 225.5 36.75 226 36.75 Q 226.5 36.75 227 36.25 Q 227.5 35.75 228 35.75 Q 228.5 35.75 229 35.75 Q 229.5 35.75 230 35.75 Q 230.5 35.75 231 35.75 Q 231.5 35.75 232 35.75 Q 232.5 35.75 233 35.25 Q 233.5 34.75 234 34.75 Q 234.5 34.75 235 34.75 L 235.525 34.75" stroke-linecap="round" />
</g>
</svg>