<svg width="800" height="600" xmlns="http://www.w3.org/2000/svg">

 <g>
  <title>Layer 1</title>
  <path stroke-width="20" d="m304,185.5c0,0 -0.43967,1.43625 -6,8c-2.74234,3.23721 -8.11215,6.9183 -11,11c-2.08246,2.94336 -7,7 -13,13c-8,8 -15,14 -21,20c-6,6 -9.72398,10.22273 -13,14c-0.92659,1.06837 -5.4588,4.69345 -6,6c-0.38269,0.92389 -1,1 -1,1c0,1 1.31001,1.33749 4,3c1.203,0.7435 4.04033,3.64734 7,7c2.38617,2.703 5.62532,4.4136 10,8c5.57666,4.57175 10.77063,10.25934 13,12c4.59598,3.58844 7,5 8,7c1,2 2,2 2,3c0,0 0.29291,-0.29291 1,-1c0.70709,-0.70709 5.15927,-2.61066 8,-4c3.23892,-1.58411 6.77637,-5.40894 12,-8c4.82428,-2.39297 8.70547,-5.34619 11,-7c1.814,-1.30746 4,-4 5,-5c2,-2 3.69254,-3.186 5,-5c1.65381,-2.29453 4,-3 5,-4c0,0 0.29291,-0.29291 1,-1c0.70709,-0.70709 0,-1 0,0c0,1 0.48874,4.02997 0,8c-0.50378,4.09222 -0.75146,9.00772 -1,13c-0.50098,8.04669 -2.09882,20.98828 -3,29c-1.12335,9.98691 -1,17 -1,23c0,6 0,11 0,15c0,7 -0.65131,14.0087 -1,21c-0.50061,10.03738 -2.64072,18.06082 -4,25c-0.7926,4.0462 -1,8 -1,12c0,2 0,4 0,5c0,2 0,3 0,4c0,2 0,4 0,9c0,1 0,2 0,3c0,2 0,2 0,3c0,0 3.0817,-0.80426 7,0c7.46024,1.53128 19.05042,6.76266 29,9c12.06796,2.71368 21.1344,6.35541 37,10c11.11234,2.5527 21.9281,4.49359 34,6c11.94891,1.49106 21,1 29,1c7,0 11,0 13,0c0,0 1,0 1,0c0,-3 0.48627,-6.82376 1,-9c1.37851,-5.83951 2.99023,-11.79025 4,-19c1.24832,-8.91299 0.49939,-18.96262 1,-29c0.44833,-8.98883 1,-18 1,-28c0,-11 0,-20 0,-35c0,-9 0,-17 0,-24c0,-7 -0.82443,-11.0979 -2,-13c-3.15439,-5.10391 0,-10 0,-14c0,-3 0,-5 0,-9c0,-2 0,-4 0,-6c0,0 0,-1 0,-2c0,-3 0,-3 0,-4c0,0 0,0 0,0c1,1 3,3 5,5c2,2 7.89288,6.1377 13,10c6.86118,5.18884 13.10858,12.05109 25,16c6.71069,2.22849 10.3045,1.46927 14,3c1.30658,0.5412 4,1 4,1c0,0 0,1 1,1c1,0 0,-3 0,-4c0,-8 1.09113,-12.9704 3,-19c3.15112,-9.9534 6.93066,-22.34915 11,-33c3.9903,-10.44402 9,-19 12,-25c1,-2 2.71411,-5.21167 5,-8c1.79321,-2.18735 2,-3 3,-4c0,0 0,0 0,0c0,0 -0.297,-0.61383 -3,-3c-1.67633,-1.47984 -5.00549,-5.19617 -12,-10c-8.11853,-5.57579 -17.44983,-8.78162 -27,-13c-10.6676,-4.71198 -19.8739,-10.20764 -28,-15c-8.86829,-5.23007 -18.16824,-11.58481 -26,-15c-6.14899,-2.6814 -9.5387,-5.60643 -12,-7c-3.58792,-2.03145 -4.85272,-2.1731 -6,-3c-1.814,-1.30745 -3,-1 -4,-2c0,0 -1,0 -1,0c-1,0 -1.0979,1.82443 -3,3c-0.85065,0.52573 -0.69345,0.4588 -2,1c-0.92389,0.38269 -1,0 -2,1c-1,1 -2.29291,2.29289 -3,3c-0.70709,0.70711 -2,0 -2,0c-3,0 -4,-1 -6,-1c-2,0 -3.0535,-0.5405 -5,-1c-2.17624,-0.51375 -3,-1 -4,-1c0,0 -1,-1 -2,-1c-1,0 -1,0 -3,0c0,0 -0.4588,-0.30656 -1,1c-0.38269,0.92387 -0.61731,2.07613 -1,3c-0.5412,1.30656 -0.71411,1.21167 -3,4c-0.89661,1.09367 -1.0979,1.82443 -3,3c-0.85065,0.52573 -2,1 -4,2c-2,1 -6,2 -9,2c-1,0 -3,1 -4,1c-2,0 -3.82376,0.48625 -6,1c-2.91974,0.68925 -5,0 -7,0c-2,0 -3,0 -4,0c-1,0 -2,-1 -2,-1c-2,-1 -3,-2 -4,-3c-1,-1 -2,-2 -2,-2c-1,-2 -1.29291,-3.29289 -2,-4c-0.70709,-0.70711 -2,-2 -3,-4c0,0 -1,0 -1,-1c0,0 0,-1 0,-1c0,-1 0,-1 0,-1c-4,-1 -6.96384,-2.11586 -10,-3c-3.95868,-1.15277 -11,-2 -14,-3c-3,-1 -5.29291,-0.29289 -6,-1c-0.70709,-0.70711 -0.14935,-1.52573 -1,-1c-1.9021,1.17557 -2.29291,4.29289 -3,5c-0.70709,0.70711 -1.69254,2.186 -3,4c-0.8269,1.14726 -2,3 -3,4c-2,2 -2.61731,4.07613 -3,5c-0.5412,1.30656 -1.61731,2.07613 -2,3c-0.5412,1.30656 -2.4588,1.69344 -3,3c-0.38269,0.92387 -0.61731,1.07613 -1,2c-0.5412,1.30656 -0.61731,1.07613 -1,2c-0.5412,1.30656 -0.69254,1.186 -2,3c-0.8269,1.14726 -2.4588,1.69344 -3,3c-0.38269,0.92387 -1,3 -1,4c0,0 -1,1 -1,2c0,1 -0.29291,0.29289 -1,1c-0.70709,0.70711 0,1 0,2c0,0 -1,1 -1,2c0,0 0,0 -1,0l0,1l0,0l0,0" id="svg_3" stroke="#000" fill="none"/>
 </g>
</svg>