<?xml version="1.0" encoding="UTF-8" standalone="no" ?>
<!DOCTYPE svg PUBLIC "-//W3C//DTD SVG 1.1//EN" "http://www.w3.org/Graphics/SVG/1.1/DTD/svg11.dtd">
<svg xmlns="http://www.w3.org/2000/svg" xmlns:xlink="http://www.w3.org/1999/xlink" version="1.1" width="640" height="480" viewBox="0 0 640 480" xml:space="preserve">
<desc>Created with Fabric.js 3.6.6</desc>
<defs>
</defs>
<g transform="matrix(1 0 0 1 371 220.25)"  >
<path style="stroke: rgb(0,0,0); stroke-width: 25; stroke-dasharray: none; stroke-linecap: round; stroke-dashoffset: 0; stroke-linejoin: round; stroke-miterlimit: 10; fill: none; fill-rule: nonzero; opacity: 1;"  transform=" translate(-371, -220.25)" d="M 215.5 89.725 Q 215.5 89.75 215.5 90.25 Q 215.5 90.75 215.5 91.75 Q 215.5 92.75 215.5 93.25 Q 215.5 93.75 215 95.25 Q 214.5 96.75 214 98.25 Q 213.5 99.75 213.5 100.75 Q 213.5 101.75 212.5 103.75 Q 211.5 105.75 211 107.25 Q 210.5 108.75 209.5 110.75 Q 208.5 112.75 208 113.75 Q 207.5 114.75 207 116.75 Q 206.5 118.75 205.5 121.25 Q 204.5 123.75 203.5 125.75 Q 202.5 127.75 201.5 131.25 Q 200.5 134.75 198.5 140.25 Q 196.5 145.75 195 149.25 Q 193.5 152.75 192.5 156.25 Q 191.5 159.75 190.5 163.25 Q 189.5 166.75 188 169.75 Q 186.5 172.75 184.5 175.75 Q 182.5 178.75 181 182.25 Q 179.5 185.75 178 189.25 Q 176.5 192.75 174.5 196.25 Q 172.5 199.75 170.5 202.25 Q 168.5 204.75 166.5 208.25 Q 164.5 211.75 163 214.75 Q 161.5 217.75 159.5 220.75 Q 157.5 223.75 154.5 228.75 Q 151.5 233.75 149.5 237.25 Q 147.5 240.75 145.5 243.75 Q 143.5 246.75 142 249.75 Q 140.5 252.75 139.5 254.75 Q 138.5 256.75 136.5 259.25 Q 134.5 261.75 133.5 263.75 Q 132.5 265.75 131.5 267.75 Q 130.5 269.75 129.5 271.25 Q 128.5 272.75 128 273.75 Q 127.5 274.75 127 275.75 Q 126.5 276.75 126 277.75 Q 125.5 278.75 125.5 279.25 Q 125.5 279.75 126.5 281.25 Q 127.5 282.75 128.5 284.25 Q 129.5 285.75 130 287.25 Q 130.5 288.75 131.5 290.25 Q 132.5 291.75 133 292.25 Q 133.5 292.75 134 293.25 Q 134.5 293.75 135 294.25 Q 135.5 294.75 135.5 295.25 Q 135.5 295.75 136.5 297.75 Q 137.5 299.75 138 300.25 Q 138.5 300.75 140 302.25 Q 141.5 303.75 142.5 306.25 Q 143.5 308.75 144.5 309.75 Q 145.5 310.75 146 312.75 Q 146.5 314.75 148.5 316.75 Q 150.5 318.75 151.5 320.25 Q 152.5 321.75 153.5 322.75 Q 154.5 323.75 155.5 324.75 Q 156.5 325.75 157.5 326.75 Q 158.5 327.75 159.5 328.75 Q 160.5 329.75 161 329.75 Q 161.5 329.75 162.5 331.25 Q 163.5 332.75 164 333.25 Q 164.5 333.75 165 334.25 Q 165.5 334.75 166 335.25 Q 166.5 335.75 168 337.25 Q 169.5 338.75 170 339.25 Q 170.5 339.75 171.5 340.25 Q 172.5 340.75 174 341.25 Q 175.5 341.75 177 343.25 Q 178.5 344.75 179 345.25 Q 179.5 345.75 181.5 347.25 Q 183.5 348.75 185 349.75 Q 186.5 350.75 189 352.25 Q 191.5 353.75 192.5 354.25 Q 193.5 354.75 196 355.75 Q 198.5 356.75 200 357.75 Q 201.5 358.75 204 360.25 Q 206.5 361.75 209 362.75 Q 211.5 363.75 215 365.25 Q 218.5 366.75 220.5 367.75 Q 222.5 368.75 225.5 369.75 Q 228.5 370.75 231.5 371.75 Q 234.5 372.75 237.5 374.25 Q 240.5 375.75 244 377.25 Q 247.5 378.75 251.5 379.75 Q 255.5 380.75 258.5 382.25 Q 261.5 383.75 264 384.25 Q 266.5 384.75 268.5 385.25 Q 270.5 385.75 272.5 385.75 Q 274.5 385.75 277 386.25 Q 279.5 386.75 281 386.75 Q 282.5 386.75 284.5 387.25 Q 286.5 387.75 288.5 387.75 Q 290.5 387.75 292.5 388.25 Q 294.5 388.75 297 388.75 Q 299.5 388.75 302.5 388.75 Q 305.5 388.75 309 389.25 Q 312.5 389.75 317 389.75 Q 321.5 389.75 324 389.75 Q 326.5 389.75 328 389.75 Q 329.5 389.75 331 389.75 Q 332.5 389.75 333.5 389.75 Q 334.5 389.75 335 389.75 Q 335.5 389.75 336 389.75 Q 336.5 389.75 337 389.75 Q 337.5 389.75 338 389.75 Q 338.5 389.75 339 389.75 Q 339.5 389.75 340 389.75 Q 340.5 389.75 341 389.75 Q 341.5 389.75 342 389.75 Q 342.5 389.75 344.5 389.75 Q 346.5 389.75 347 389.75 Q 347.5 389.75 348 389.75 Q 348.5 389.75 348.5 389.25 Q 348.5 388.75 348.5 387.75 Q 348.5 386.75 349 384.75 Q 349.5 382.75 350 380.75 Q 350.5 378.75 351.5 375.25 Q 352.5 371.75 353 369.75 Q 353.5 367.75 354 365.75 Q 354.5 363.75 355 361.75 Q 355.5 359.75 355.5 358.75 Q 355.5 357.75 356.5 354.75 Q 357.5 351.75 358 349.75 Q 358.5 347.75 358.5 346.75 Q 358.5 345.75 359.5 344.25 Q 360.5 342.75 361 340.25 Q 361.5 337.75 363 334.75 Q 364.5 331.75 365 331.25 Q 365.5 330.75 366 330.25 Q 366.5 329.75 366.5 329.25 Q 366.5 328.75 367 328.75 Q 367.5 328.75 368 329.25 Q 368.5 329.75 369.5 331.25 Q 370.5 332.75 373.5 336.75 Q 376.5 340.75 377 341.75 Q 377.5 342.75 380 346.75 Q 382.5 350.75 385 355.25 Q 387.5 359.75 389 363.75 Q 390.5 367.75 391 369.75 Q 391.5 371.75 392.5 374.25 Q 393.5 376.75 396 383.75 Q 398.5 390.75 399 392.25 Q 399.5 393.75 401 396.25 Q 402.5 398.75 403 399.25 Q 403.5 399.75 403.5 400.25 Q 403.5 400.75 404.5 400.75 Q 405.5 400.75 407 400.75 Q 408.5 400.75 412 399.75 Q 415.5 398.75 417 398.25 Q 418.5 397.75 420.5 397.25 Q 422.5 396.75 425.5 396.75 Q 428.5 396.75 435 395.75 Q 441.5 394.75 444.5 394.25 Q 447.5 393.75 451.5 392.75 Q 455.5 391.75 461.5 389.75 Q 467.5 387.75 471.5 387.25 Q 475.5 386.75 480 385.75 Q 484.5 384.75 487.5 383.25 Q 490.5 381.75 494 380.75 Q 497.5 379.75 501 378.75 Q 504.5 377.75 507.5 376.25 Q 510.5 374.75 514 373.25 Q 517.5 371.75 520.5 370.25 Q 523.5 368.75 526.5 367.25 Q 529.5 365.75 533.5 363.25 Q 537.5 360.75 541 358.75 Q 544.5 356.75 548 354.25 Q 551.5 351.75 557 346.75 Q 562.5 341.75 566 337.75 Q 569.5 333.75 572.5 329.25 Q 575.5 324.75 578 320.75 Q 580.5 316.75 582.5 313.75 Q 584.5 310.75 585 310.25 Q 585.5 309.75 589 304.25 Q 592.5 298.75 594 295.75 Q 595.5 292.75 597 290.25 Q 598.5 287.75 600.5 285.25 Q 602.5 282.75 604.5 279.75 Q 606.5 276.75 608.5 274.25 Q 610.5 271.75 612 270.25 Q 613.5 268.75 614 267.75 Q 614.5 266.75 615 266.25 Q 615.5 265.75 616 264.75 Q 616.5 263.75 616.5 263.25 Q 616.5 262.75 616.5 261.75 Q 616.5 260.75 615.5 259.75 Q 614.5 258.75 614 258.25 Q 613.5 257.75 613 257.75 Q 612.5 257.75 611.5 257.25 Q 610.5 256.75 610 256.25 Q 609.5 255.75 607.5 253.75 Q 605.5 251.75 603.5 248.25 Q 601.5 244.75 597.5 240.75 Q 593.5 236.75 592.5 235.25 Q 591.5 233.75 588.5 229.75 Q 585.5 225.75 583.5 222.25 Q 581.5 218.75 579.5 215.25 Q 577.5 211.75 574.5 207.25 Q 571.5 202.75 568.5 197.25 Q 565.5 191.75 561.5 186.25 Q 557.5 180.75 554.5 175.25 Q 551.5 169.75 549.5 165.75 Q 547.5 161.75 545.5 157.75 Q 543.5 153.75 542.5 149.75 Q 541.5 145.75 540.5 143.25 Q 539.5 140.75 537.5 135.75 Q 535.5 130.75 534.5 127.25 Q 533.5 123.75 532.5 120.25 Q 531.5 116.75 530 112.75 Q 528.5 108.75 527.5 104.75 Q 526.5 100.75 526 98.25 Q 525.5 95.75 525.5 92.25 Q 525.5 88.75 524.5 85.25 Q 523.5 81.75 522.5 78.25 Q 521.5 74.75 521 71.75 Q 520.5 68.75 519.5 64.75 Q 518.5 60.75 517 56.75 Q 515.5 52.75 515 50.75 Q 514.5 48.75 514 47.25 Q 513.5 45.75 513.5 44.75 Q 513.5 43.75 513 42.75 Q 512.5 41.75 512.5 41.25 Q 512.5 40.75 512.5 40.25 Q 512.5 39.75 512 39.75 Q 511.5 39.75 511.5 40.25 Q 511.5 40.75 511 40.75 Q 510.5 40.75 510 40.75 Q 509.5 40.75 508.5 40.75 Q 507.5 40.75 507 41.25 Q 506.5 41.75 506 41.75 Q 505.5 41.75 505 42.25 Q 504.5 42.75 503 42.75 Q 501.5 42.75 501 42.75 Q 500.5 42.75 499 43.25 Q 497.5 43.75 495.5 43.75 Q 493.5 43.75 491.5 44.25 Q 489.5 44.75 487 44.75 Q 484.5 44.75 481.5 44.75 Q 478.5 44.75 475 45.25 Q 471.5 45.75 468.5 45.75 Q 465.5 45.75 462 46.25 Q 458.5 46.75 455.5 46.75 Q 452.5 46.75 447 47.25 Q 441.5 47.75 438 47.75 Q 434.5 47.75 430.5 48.25 Q 426.5 48.75 422.5 48.75 Q 418.5 48.75 414.5 49.25 Q 410.5 49.75 407 49.75 Q 403.5 49.75 399.5 49.75 Q 395.5 49.75 391.5 49.75 Q 387.5 49.75 383 49.75 Q 378.5 49.75 375 49.75 Q 371.5 49.75 367.5 49.75 Q 363.5 49.75 357 49.75 Q 350.5 49.75 348 49.75 Q 345.5 49.75 339 49.75 Q 332.5 49.75 328.5 49.75 Q 324.5 49.75 320 49.75 Q 315.5 49.75 311.5 49.75 Q 307.5 49.75 303 49.75 Q 298.5 49.75 295 49.75 Q 291.5 49.75 287.5 49.75 Q 283.5 49.75 280 49.75 Q 276.5 49.75 274.5 49.75 Q 272.5 49.75 267.5 49.75 Q 262.5 49.75 259.5 49.75 Q 256.5 49.75 251.5 49.25 Q 246.5 48.75 245.5 48.75 Q 244.5 48.75 241 48.75 Q 237.5 48.75 235.5 48.75 Q 233.5 48.75 232.5 48.25 Q 231.5 47.75 229.5 47.75 Q 227.5 47.75 226 47.75 Q 224.5 47.75 223 47.75 Q 221.5 47.75 221 47.75 Q 220.5 47.75 220 47.75 Q 219.5 47.75 219 47.25 Q 218.5 46.75 218 46.75 Q 217.5 46.75 217.5 47.25 Q 217.5 47.75 217 48.25 Q 216.5 48.75 216.5 49.25 Q 216.5 49.75 216.5 50.25 Q 216.5 50.75 216 51.75 Q 215.5 52.75 215.5 54.25 Q 215.5 55.75 215.5 56.75 Q 215.5 57.75 215 59.75 Q 214.5 61.75 214.5 64.25 Q 214.5 66.75 214.5 68.75 Q 214.5 70.75 214.5 72.25 Q 214.5 73.75 214.5 74.75 Q 214.5 75.75 214.5 76.25 Q 214.5 76.75 214.5 77.75 Q 214.5 78.75 214.5 79.75 Q 214.5 80.75 214.5 81.25 Q 214.5 81.75 214.5 82.75 Q 214.5 83.75 214.5 85.75 Q 214.5 87.75 214.5 88.25 Q 214.5 88.75 214.5 89.25 L 214.5 89.775" stroke-linecap="round" />
</g>
<g transform="matrix(1 0 0 1 368.5 89.24)"  >
<path style="stroke: rgb(0,0,0); stroke-width: 25; stroke-dasharray: none; stroke-linecap: round; stroke-dashoffset: 0; stroke-linejoin: round; stroke-miterlimit: 10; fill: none; fill-rule: nonzero; opacity: 1;"  transform=" translate(-368.5, -89.24)" d="M 230.475 90.75 Q 230.5 90.75 232.5 90.75 Q 234.5 90.75 237 90.75 Q 239.5 90.75 243.5 91.25 Q 247.5 91.75 250.5 92.75 Q 253.5 93.75 257.5 94.25 Q 261.5 94.75 266 95.25 Q 270.5 95.75 274 96.25 Q 277.5 96.75 281 97.25 Q 284.5 97.75 287.5 97.75 Q 290.5 97.75 292.5 97.75 Q 294.5 97.75 298 97.75 Q 301.5 97.75 307 98.25 Q 312.5 98.75 316.5 99.75 Q 320.5 100.75 324.5 100.75 Q 328.5 100.75 334 100.75 Q 339.5 100.75 341.5 100.75 Q 343.5 100.75 352 100.75 Q 360.5 100.75 364 100.75 Q 367.5 100.75 372 100.25 Q 376.5 99.75 380 99.75 Q 383.5 99.75 388 99.25 Q 392.5 98.75 397.5 98.75 Q 402.5 98.75 410.5 98.75 Q 418.5 98.75 423.5 98.75 Q 428.5 98.75 434 98.25 Q 439.5 97.75 443.5 97.75 Q 447.5 97.75 451 97.25 Q 454.5 96.75 456.5 96.25 Q 458.5 95.75 460.5 95.25 Q 462.5 94.75 465.5 93.75 Q 468.5 92.75 469.5 92.25 Q 470.5 91.75 472 91.75 Q 473.5 91.75 475.5 91.25 Q 477.5 90.75 480 90.25 Q 482.5 89.75 484.5 89.25 Q 486.5 88.75 489 88.25 Q 491.5 87.75 494 86.75 Q 496.5 85.75 497.5 85.25 Q 498.5 84.75 499.5 84.75 Q 500.5 84.75 501 84.25 Q 501.5 83.75 501.5 83.25 Q 501.5 82.75 502 82.75 Q 502.5 82.75 502.5 82.25 Q 502.5 81.75 503 81.25 Q 503.5 80.75 504 80.25 Q 504.5 79.75 505 79.25 Q 505.5 78.75 506 78.25 L 506.525 77.725" stroke-linecap="round" />
</g>
<g transform="matrix(1 0 0 1 534 201.75)"  >
<path style="stroke: rgb(0,0,0); stroke-width: 25; stroke-dasharray: none; stroke-linecap: round; stroke-dashoffset: 0; stroke-linejoin: round; stroke-miterlimit: 10; fill: none; fill-rule: nonzero; opacity: 1;"  transform=" translate(-534, -201.75)" d="M 485.5 110.725 Q 485.5 110.75 486 110.75 Q 486.5 110.75 486.5 111.25 Q 486.5 111.75 486.5 112.25 Q 486.5 112.75 486.5 113.75 Q 486.5 114.75 486.5 116.75 Q 486.5 118.75 487 120.75 Q 487.5 122.75 488 125.75 Q 488.5 128.75 489 131.25 Q 489.5 133.75 490.5 135.75 Q 491.5 137.75 492.5 141.25 Q 493.5 144.75 495 147.75 Q 496.5 150.75 497.5 154.25 Q 498.5 157.75 499.5 161.75 Q 500.5 165.75 501.5 169.75 Q 502.5 173.75 503.5 177.25 Q 504.5 180.75 505.5 183.75 Q 506.5 186.75 508.5 190.75 Q 510.5 194.75 511.5 197.25 Q 512.5 199.75 514 202.25 Q 515.5 204.75 517 207.75 Q 518.5 210.75 520 213.25 Q 521.5 215.75 522.5 217.25 Q 523.5 218.75 526.5 223.75 Q 529.5 228.75 530.5 231.25 Q 531.5 233.75 532.5 235.75 Q 533.5 237.75 534.5 239.75 Q 535.5 241.75 536.5 243.75 Q 537.5 245.75 539.5 248.25 Q 541.5 250.75 542 251.75 Q 542.5 252.75 543.5 253.75 Q 544.5 254.75 545 255.75 Q 545.5 256.75 547.5 258.75 Q 549.5 260.75 550 261.25 Q 550.5 261.75 551 263.25 Q 551.5 264.75 553 265.25 Q 554.5 265.75 556.5 267.25 Q 558.5 268.75 559.5 269.75 Q 560.5 270.75 562.5 271.75 Q 564.5 272.75 565 273.25 Q 565.5 273.75 566.5 274.25 Q 567.5 274.75 567.5 275.25 Q 567.5 275.75 568.5 276.75 Q 569.5 277.75 570 278.25 Q 570.5 278.75 571.5 279.25 Q 572.5 279.75 573 280.25 Q 573.5 280.75 573.5 281.25 Q 573.5 281.75 574 281.75 Q 574.5 281.75 574.5 282.25 Q 574.5 282.75 575.5 283.25 Q 576.5 283.75 577 285.25 Q 577.5 286.75 578 287.25 Q 578.5 287.75 579 288.25 Q 579.5 288.75 579.5 289.25 Q 579.5 289.75 580 289.75 Q 580.5 289.75 580.5 290.25 Q 580.5 290.75 581 291.25 Q 581.5 291.75 582 291.75 Q 582.5 291.75 582.5 292.25 L 582.5 292.775" stroke-linecap="round" />
</g>
<g transform="matrix(1 0 0 1 198.99 198.75)"  >
<path style="stroke: rgb(0,0,0); stroke-width: 25; stroke-dasharray: none; stroke-linecap: round; stroke-dashoffset: 0; stroke-linejoin: round; stroke-miterlimit: 10; fill: none; fill-rule: nonzero; opacity: 1;"  transform=" translate(-198.99, -198.75)" d="M 248.5 106.725 Q 248.5 106.75 248.5 107.25 Q 248.5 107.75 248.5 108.25 Q 248.5 108.75 248.5 109.25 Q 248.5 109.75 247.5 110.75 Q 246.5 111.75 245 117.25 Q 243.5 122.75 242 126.25 Q 240.5 129.75 240 134.25 Q 239.5 138.75 238.5 143.25 Q 237.5 147.75 236.5 151.25 Q 235.5 154.75 235 157.75 Q 234.5 160.75 234 164.25 Q 233.5 167.75 232 171.25 Q 230.5 174.75 229.5 176.75 Q 228.5 178.75 228 180.75 Q 227.5 182.75 226.5 184.75 Q 225.5 186.75 224.5 189.25 Q 223.5 191.75 222.5 195.25 Q 221.5 198.75 220 200.75 Q 218.5 202.75 217.5 205.25 Q 216.5 207.75 216 209.75 Q 215.5 211.75 215 213.25 Q 214.5 214.75 213.5 216.75 Q 212.5 218.75 211.5 220.75 Q 210.5 222.75 209.5 224.75 Q 208.5 226.75 208 227.75 Q 207.5 228.75 206.5 230.25 Q 205.5 231.75 203.5 234.25 Q 201.5 236.75 200.5 239.25 Q 199.5 241.75 197.5 244.25 Q 195.5 246.75 194 249.75 Q 192.5 252.75 191 254.75 Q 189.5 256.75 188.5 258.25 Q 187.5 259.75 185.5 261.75 Q 183.5 263.75 182.5 265.75 Q 181.5 267.75 180 268.75 Q 178.5 269.75 176.5 272.25 Q 174.5 274.75 172.5 275.75 Q 170.5 276.75 168 278.25 Q 165.5 279.75 163 281.25 Q 160.5 282.75 158.5 284.25 Q 156.5 285.75 155 286.75 Q 153.5 287.75 152.5 288.75 Q 151.5 289.75 151 289.75 Q 150.5 289.75 150 290.25 L 149.475 290.775" stroke-linecap="round" />
</g>
</svg>