<svg width="800" height="600" xmlns="http://www.w3.org/2000/svg">
 <g id="Layer_1">
  <title>Layer 1</title>
  <path stroke-width="20" d="m328,201.5c0,0 -0.83981,1.01291 -1,2c-0.50653,3.12144 -1.89835,5.29185 -4,11c-2.01465,5.47185 -6.40894,12.77637 -9,18c-4.78595,9.64856 -7.13702,16.93343 -10,23c-4.20337,8.90683 -8.60416,18.18658 -13,27c-4.59528,9.21323 -10.07632,20.47021 -15,29c-6.79968,11.77982 -11.38828,20.33002 -17,30c-1.80972,3.11847 -7.14388,10.90656 -11,17c-3.1181,4.92722 -8.15533,9.8739 -13,16c-3.10149,3.92184 -5.4588,5.69345 -6,7c-0.38269,0.92389 0,1 0,1c0,0 0,1 0,1c0,2 0.4888,3.2222 2,6c3.05995,5.62463 9,9 17,17c6,6 13.3443,14.72382 21,21c8.36496,6.85764 17.66724,12.47144 26,18c11.57626,7.68051 16.96393,11.08557 24,14c4.97525,2.06082 11.06601,4.87766 13,6c3.11847,1.80972 5.88531,3.12967 7,4c4.59598,3.58844 7.86829,4.28857 12,6c2.92157,1.21014 6,3 10,5c2,1 4,2 5,3c0,0 0,0 1,0c2,0 3,1 4,1c0,0 1,0 3,0c1,0 2,1 3,1c1,0 1,0 2,0c0,0 0,0 0,0c0,-3 1.08398,-6.96017 2,-9c2.20605,-4.91257 5,-10 6,-13c1,-3 5.67947,-8.57111 8,-13c1.46762,-2.80109 4.56287,-6.63034 9,-14c1.15338,-1.91565 2.72961,-4.22885 7,-9c2.8295,-3.16132 5.21005,-6.85077 8,-11c3.2536,-4.83881 7.19028,-9.88153 9,-13c2.24469,-3.86798 1.56952,-5.133 3,-9c1.55161,-4.19434 2.4588,-3.69345 3,-5c0.38269,-0.92389 0,-1 1,-3c0,0 1,0 1,1c0,0 0.31073,1.08026 1,4c0.51373,2.17624 2.79861,6.04453 4,11c1.71527,7.07516 3.44839,10.80566 5,15c1.43048,3.867 1.79395,9.08743 4,14c0.91602,2.03983 3.44839,6.80566 5,11c1.43048,3.867 1.83981,5.01291 2,6c0.50653,3.12143 1.61731,4.07611 2,5c0.5412,1.30655 1.31073,4.08026 2,7c1.0275,4.35251 2.23462,6.15225 3,8c0.5412,1.30655 1.4588,0.69345 2,2c0.76538,1.84775 1,4 1,5c0,1 1,1 1,2c0,0 0,1 0,2c0,0 0,0 0,1c0,0 0,0 1,1c0,0 0,0 0,0c0,0 1,-1 2,-2c2,-2 6.92035,-5.16797 11,-7c4.91257,-2.20605 10.66415,-4.75751 19,-8c6.78488,-2.63922 14.32141,-4.10236 21,-7c5.34918,-2.32086 9.26208,-4.57275 16,-9c4.17871,-2.74567 8.22888,-5.72961 13,-10c4.21509,-3.77267 9.22888,-7.72961 14,-12c3.16132,-2.8295 6.87689,-8.87689 11,-13c4.12311,-4.12311 8.07819,-5.89853 12,-9c6.1261,-4.84467 9.13202,-7.75531 13,-10c3.11847,-1.80972 5.74286,-4.34457 11,-8c4.78741,-3.3288 8.21167,-3.71411 11,-6c1.09369,-0.89661 2,-1 2,-1c0,-1 -2,-7 -5,-13c-4,-8 -9.79724,-18.09442 -15,-29c-4.81403,-10.09082 -10.9574,-21.02335 -17,-32c-4.96509,-9.01932 -9.31696,-15.30109 -14,-25c-3.50555,-7.26025 -6.10236,-18.32141 -9,-25c-2.32086,-5.34918 -4.78986,-10.07843 -6,-13c-0.85571,-2.06586 -2.46552,-6.83809 -4,-12c-1.45294,-4.88763 -2.08075,-10.98453 -3,-16c-1.09662,-5.98309 -1.69122,-10.07179 -3,-15c-0.81165,-3.05634 -1.48627,-5.82375 -2,-8c-0.68927,-2.91975 0,-3 0,-5c0,-2 0,-2 0,-3c0,0 -1,0 0,0c0,0 0,-1 0,-4c0,-3 -0.49829,-8.93796 -1,-15c-0.24744,-2.98978 0,-7 0,-10c0,-3 0,-4 0,-5c0,0 0,0 0,0c-1,1 -2,1 -3,1c-1,0 -2,0 -4,0c-3,0 -9,0 -20,0c-4,0 -13.983,-0.12286 -28,-2c-7.99094,-1.07013 -17.92484,-1.28473 -25,-3c-9.91095,-2.40277 -17.76999,-3.91502 -28,-6c-8.87299,-1.80841 -19.9538,-3.2074 -24,-4c-6.93918,-1.3593 -17,-1 -22,-1c-5,0 -9,0 -12,0c-4,0 -7.90778,0.49623 -12,1c-1.98502,0.24437 -4.86829,0.28859 -9,2c-5.84314,2.4203 -9.21167,3.71413 -12,6c-1.09366,0.89659 -4,2 -4,2c-1,0 -1,1 -2,1c0,0 0.30655,-0.4588 -1,-1c-1.84775,-0.76537 -8.04468,-0.76137 -14,-2c-8.07343,-1.67917 -9,-2 -12,-3c0,0 0,0 0,0c0,1 0,1 0,2c0,3 0,4 0,6c0,3 0,3 0,5c0,1 0,3 0,4c0,1 -0.22977,2.02675 0,3c0.51373,2.17625 1,4 1,6c0,2 1,3 1,3c0,2 0.23462,2.15224 1,4c0.5412,1.30656 1.14935,2.47427 2,3c1.9021,1.17557 1.4588,1.69344 2,3c0.38269,0.92387 1,2 1,2c0,1 0.9176,1.38687 2,4c0.38269,0.92387 0,2 0,5c0,1 0,2 0,3c0,0 0,1 1,2c0,0 0,0 0,1c0,0 0,0 1,0l0,1l0,0" id="svg_1" stroke="#000" fill="none"/>
  <path stroke="#000" d="m337,198.5c0,-1 2.09894,-1.4124 7.28426,-1c6.30822,0.50171 15.62012,1.89006 27.05584,3c9.37542,0.90996 19.71613,1.49873 27.05584,2c9.34192,0.638 14.56853,0 18.73096,0c4.16244,0 8.30131,-0.09544 12.48731,-1c5.17681,-1.11867 11.22844,-1.99023 18.73096,-3c7.21386,-0.9709 15.62746,-0.50378 22.8934,-1c7.33971,-0.50127 15.35638,-1.98692 21.85279,-3c5.13585,-0.80092 11.47506,-0.65985 19.77157,0c6.30818,0.50171 11.4467,1 14.56853,1c2.08122,0 3.12183,0 4.16244,0c0,0 0,0 1.04061,1c0,0 1.04061,0 2.08122,0c1.04061,0 2.08122,0 3.12183,0c0,0 0.72158,0.4588 2.08122,1c0.96141,0.38269 1.04061,0 2.08122,0l0,0l0,0" id="svg_2" stroke-width="20" fill="none"/>
 </g>
</svg>