<?xml version="1.0" encoding="UTF-8" standalone="no" ?>
<!DOCTYPE svg PUBLIC "-//W3C//DTD SVG 1.1//EN" "http://www.w3.org/Graphics/SVG/1.1/DTD/svg11.dtd">
<svg xmlns="http://www.w3.org/2000/svg" xmlns:xlink="http://www.w3.org/1999/xlink" version="1.1" width="640" height="480" viewBox="0 0 640 480" xml:space="preserve">
<desc>Created with Fabric.js 3.6.6</desc>
<defs>
</defs>
<g transform="matrix(1 0 0 1 312.5 239.75)"  >
<path style="stroke: rgb(0,0,0); stroke-width: 25; stroke-dasharray: none; stroke-linecap: round; stroke-dashoffset: 0; stroke-linejoin: round; stroke-miterlimit: 10; fill: none; fill-rule: nonzero; opacity: 1;"  transform=" translate(-312.5, -239.75)" d="M 232.5 41.725 Q 232.5 41.75 232.5 41.25 Q 232.5 40.75 232.5 41.25 Q 232.5 41.75 232.5 42.25 Q 232.5 42.75 232.5 43.25 Q 232.5 43.75 232.5 44.25 Q 232.5 44.75 232.5 45.25 Q 232.5 45.75 232.5 46.75 Q 232.5 47.75 233 48.75 Q 233.5 49.75 233.5 50.25 Q 233.5 50.75 233.5 51.75 Q 233.5 52.75 234 53.25 Q 234.5 53.75 234.5 54.75 Q 234.5 55.75 234.5 56.75 Q 234.5 57.75 235 58.75 Q 235.5 59.75 235.5 60.25 Q 235.5 60.75 236 62.25 Q 236.5 63.75 236.5 64.75 Q 236.5 65.75 237 67.75 Q 237.5 69.75 237.5 71.25 Q 237.5 72.75 238 74.25 Q 238.5 75.75 238.5 77.75 Q 238.5 79.75 238.5 80.75 Q 238.5 81.75 238.5 83.25 Q 238.5 84.75 238.5 86.75 Q 238.5 88.75 238.5 90.25 Q 238.5 91.75 238.5 92.75 Q 238.5 93.75 237 95.75 Q 235.5 97.75 234.5 100.25 Q 233.5 102.75 233 104.75 Q 232.5 106.75 232 107.75 Q 231.5 108.75 230.5 111.25 Q 229.5 113.75 229 114.25 Q 228.5 114.75 227.5 116.75 Q 226.5 118.75 226 119.25 Q 225.5 119.75 224 121.25 Q 222.5 122.75 221.5 123.75 Q 220.5 124.75 219.5 125.25 Q 218.5 125.75 217.5 126.75 Q 216.5 127.75 216 128.25 Q 215.5 128.75 214 129.75 Q 212.5 130.75 211.5 131.75 Q 210.5 132.75 209.5 133.25 Q 208.5 133.75 207.5 134.25 Q 206.5 134.75 205 135.75 Q 203.5 136.75 202.5 137.25 Q 201.5 137.75 200.5 138.25 Q 199.5 138.75 198.5 139.25 Q 197.5 139.75 196 141.25 Q 194.5 142.75 193.5 142.75 Q 192.5 142.75 190 144.25 Q 187.5 145.75 186 146.75 Q 184.5 147.75 184 148.25 Q 183.5 148.75 183 149.25 Q 182.5 149.75 181.5 150.25 Q 180.5 150.75 180 150.75 Q 179.5 150.75 178.5 151.75 Q 177.5 152.75 176.5 153.25 Q 175.5 153.75 175 153.75 Q 174.5 153.75 174 154.25 Q 173.5 154.75 173 155.25 Q 172.5 155.75 171 156.25 Q 169.5 156.75 168.5 157.25 Q 167.5 157.75 166.5 158.25 Q 165.5 158.75 165 158.75 Q 164.5 158.75 164 159.25 Q 163.5 159.75 162.5 159.75 Q 161.5 159.75 161.5 160.25 Q 161.5 160.75 161 160.75 Q 160.5 160.75 160 160.75 Q 159.5 160.75 159 161.25 Q 158.5 161.75 158 161.75 Q 157.5 161.75 157.5 162.25 Q 157.5 162.75 157.5 163.75 Q 157.5 164.75 158 165.75 Q 158.5 166.75 158.5 167.75 Q 158.5 168.75 159 170.25 Q 159.5 171.75 159.5 173.25 Q 159.5 174.75 159.5 177.25 Q 159.5 179.75 160 182.25 Q 160.5 184.75 161 188.25 Q 161.5 191.75 161.5 196.25 Q 161.5 200.75 162 203.75 Q 162.5 206.75 162.5 208.75 Q 162.5 210.75 163 214.25 Q 163.5 217.75 164 221.25 Q 164.5 224.75 165 228.25 Q 165.5 231.75 166.5 235.25 Q 167.5 238.75 168.5 242.75 Q 169.5 246.75 170 250.25 Q 170.5 253.75 171.5 256.75 Q 172.5 259.75 172.5 262.25 Q 172.5 264.75 173 267.25 Q 173.5 269.75 173.5 271.75 Q 173.5 273.75 174 277.75 Q 174.5 281.75 175 284.75 Q 175.5 287.75 176 290.75 Q 176.5 293.75 177 296.75 Q 177.5 299.75 178 302.25 Q 178.5 304.75 179 307.25 Q 179.5 309.75 179.5 311.25 Q 179.5 312.75 179.5 315.25 Q 179.5 317.75 179.5 320.25 Q 179.5 322.75 179.5 325.25 Q 179.5 327.75 179.5 329.75 Q 179.5 331.75 179.5 334.25 Q 179.5 336.75 179.5 338.75 Q 179.5 340.75 179.5 341.75 Q 179.5 342.75 179.5 344.25 Q 179.5 345.75 179.5 347.75 Q 179.5 349.75 179.5 350.75 Q 179.5 351.75 179 353.25 Q 178.5 354.75 178.5 355.75 Q 178.5 356.75 178.5 357.75 Q 178.5 358.75 178 360.25 Q 177.5 361.75 177.5 363.25 Q 177.5 364.75 177.5 366.25 Q 177.5 367.75 177 369.75 Q 176.5 371.75 176.5 373.25 Q 176.5 374.75 176 376.75 Q 175.5 378.75 175.5 380.25 Q 175.5 381.75 175.5 383.75 Q 175.5 385.75 175.5 387.25 Q 175.5 388.75 175.5 389.75 Q 175.5 390.75 175.5 391.75 Q 175.5 392.75 175.5 394.25 Q 175.5 395.75 175.5 397.25 Q 175.5 398.75 175.5 400.75 Q 175.5 402.75 175.5 403.25 Q 175.5 403.75 175.5 404.75 Q 175.5 405.75 175.5 407.25 Q 175.5 408.75 175.5 409.25 Q 175.5 409.75 175.5 410.25 Q 175.5 410.75 175.5 411.25 Q 175.5 411.75 176 411.75 Q 176.5 411.75 178 412.25 Q 179.5 412.75 181.5 413.25 Q 183.5 413.75 185.5 414.25 Q 187.5 414.75 190 415.75 Q 192.5 416.75 194.5 417.75 Q 196.5 418.75 198 419.75 Q 199.5 420.75 202 421.25 Q 204.5 421.75 206.5 423.25 Q 208.5 424.75 213 426.25 Q 217.5 427.75 221 429.25 Q 224.5 430.75 227.5 431.25 Q 230.5 431.75 234.5 432.75 Q 238.5 433.75 242 435.25 Q 245.5 436.75 248.5 437.75 Q 251.5 438.75 255 439.25 Q 258.5 439.75 261.5 440.25 Q 264.5 440.75 267 441.75 Q 269.5 442.75 272.5 443.25 Q 275.5 443.75 278.5 444.75 Q 281.5 445.75 285 446.75 Q 288.5 447.75 292.5 447.75 Q 296.5 447.75 301 447.75 Q 305.5 447.75 309 447.75 Q 312.5 447.75 316 447.75 Q 319.5 447.75 323 447.75 Q 326.5 447.75 330 447.25 Q 333.5 446.75 336 445.75 Q 338.5 444.75 343 444.75 Q 347.5 444.75 350.5 443.75 Q 353.5 442.75 357.5 441.75 Q 361.5 440.75 364.5 439.75 Q 367.5 438.75 370.5 437.75 Q 373.5 436.75 377 435.25 Q 380.5 433.75 381.5 433.75 Q 382.5 433.75 384.5 433.25 Q 386.5 432.75 390 430.75 Q 393.5 428.75 396 427.75 Q 398.5 426.75 401 426.25 Q 403.5 425.75 405.5 425.25 Q 407.5 424.75 410 424.25 Q 412.5 423.75 415 423.25 Q 417.5 422.75 419 422.25 Q 420.5 421.75 421 421.75 Q 421.5 421.75 423.5 421.25 Q 425.5 420.75 427 420.25 Q 428.5 419.75 430 418.75 Q 431.5 417.75 432.5 417.25 Q 433.5 416.75 435 416.25 Q 436.5 415.75 437.5 415.25 Q 438.5 414.75 439 414.25 Q 439.5 413.75 441 412.75 Q 442.5 411.75 443.5 411.25 Q 444.5 410.75 446 410.25 Q 447.5 409.75 448.5 408.75 Q 449.5 407.75 450 407.25 Q 450.5 406.75 451.5 406.25 Q 452.5 405.75 453 405.25 Q 453.5 404.75 454 404.25 Q 454.5 403.75 455 403.25 Q 455.5 402.75 456 402.75 Q 456.5 402.75 457 402.75 Q 457.5 402.75 457.5 402.25 Q 457.5 401.75 458 401.75 Q 458.5 401.75 459 401.25 Q 459.5 400.75 460 399.75 Q 460.5 398.75 461 398.25 Q 461.5 397.75 462 396.75 Q 462.5 395.75 463.5 394.25 Q 464.5 392.75 465.5 392.25 Q 466.5 391.75 467 391.75 Q 467.5 391.75 467.5 391.25 Q 467.5 390.75 467 388.75 Q 466.5 386.75 466 385.25 Q 465.5 383.75 464 380.75 Q 462.5 377.75 462 374.75 Q 461.5 371.75 460 368.75 Q 458.5 365.75 457.5 361.75 Q 456.5 357.75 455.5 352.75 Q 454.5 347.75 453.5 343.25 Q 452.5 338.75 452 332.75 Q 451.5 326.75 451 322.25 Q 450.5 317.75 450 312.25 Q 449.5 306.75 448 300.25 Q 446.5 293.75 446 289.25 Q 445.5 284.75 445 281.25 Q 444.5 277.75 444 272.75 Q 443.5 267.75 443 262.25 Q 442.5 256.75 442 250.75 Q 441.5 244.75 441.5 240.25 Q 441.5 235.75 441 232.75 Q 440.5 229.75 440.5 226.75 Q 440.5 223.75 440.5 222.25 Q 440.5 220.75 440.5 217.75 Q 440.5 214.75 440.5 212.75 Q 440.5 210.75 440.5 208.25 Q 440.5 205.75 440.5 202.75 Q 440.5 199.75 440.5 198.75 Q 440.5 197.75 440.5 195.75 Q 440.5 193.75 440.5 191.75 Q 440.5 189.75 441 187.25 Q 441.5 184.75 441.5 182.75 Q 441.5 180.75 442 179.25 Q 442.5 177.75 442.5 176.25 Q 442.5 174.75 443 173.75 Q 443.5 172.75 443.5 171.25 Q 443.5 169.75 443.5 168.75 Q 443.5 167.75 444 166.75 Q 444.5 165.75 445 163.75 Q 445.5 161.75 445.5 160.25 Q 445.5 158.75 446.5 156.25 Q 447.5 153.75 447.5 150.75 Q 447.5 147.75 447.5 145.75 Q 447.5 143.75 447.5 142.75 Q 447.5 141.75 448 140.75 Q 448.5 139.75 448.5 138.75 Q 448.5 137.75 448.5 137.25 Q 448.5 136.75 448.5 136.25 Q 448.5 135.75 449 135.25 Q 449.5 134.75 449.5 134.25 Q 449.5 133.75 449 133.75 Q 448.5 133.75 448.5 134.25 Q 448.5 134.75 448 134.75 Q 447.5 134.75 446.5 135.25 Q 445.5 135.75 443.5 136.25 Q 441.5 136.75 441 136.75 Q 440.5 136.75 440 136.75 Q 439.5 136.75 439 136.75 Q 438.5 136.75 437 136.75 Q 435.5 136.75 433 136.75 Q 430.5 136.75 428.5 136.75 Q 426.5 136.75 422.5 136.75 Q 418.5 136.75 417 136.75 Q 415.5 136.75 414.5 136.25 Q 413.5 135.75 412.5 135.75 Q 411.5 135.75 411 135.25 Q 410.5 134.75 410 134.75 Q 409.5 134.75 409.5 134.25 Q 409.5 133.75 408.5 133.25 Q 407.5 132.75 406 131.25 Q 404.5 129.75 402.5 127.25 Q 400.5 124.75 397 120.25 Q 393.5 115.75 392 113.25 Q 390.5 110.75 389.5 108.25 Q 388.5 105.75 387.5 103.25 Q 386.5 100.75 385 98.75 Q 383.5 96.75 383 95.25 Q 382.5 93.75 381.5 91.75 Q 380.5 89.75 379.5 87.75 Q 378.5 85.75 378 84.25 Q 377.5 82.75 377 80.75 Q 376.5 78.75 376.5 77.75 Q 376.5 76.75 376 75.75 Q 375.5 74.75 375 73.25 Q 374.5 71.75 374.5 70.75 Q 374.5 69.75 374.5 68.25 Q 374.5 66.75 374 66.25 Q 373.5 65.75 373.5 64.25 Q 373.5 62.75 373.5 61.75 Q 373.5 60.75 373.5 59.75 Q 373.5 58.75 373.5 57.25 Q 373.5 55.75 373.5 53.75 Q 373.5 51.75 373.5 51.25 Q 373.5 50.75 373.5 49.25 Q 373.5 47.75 373.5 46.25 Q 373.5 44.75 373.5 43.75 Q 373.5 42.75 373.5 42.25 Q 373.5 41.75 373.5 40.75 Q 373.5 39.75 373.5 38.75 Q 373.5 37.75 373 37.75 Q 372.5 37.75 371.5 37.75 Q 370.5 37.75 370 37.75 Q 369.5 37.75 367.5 37.75 Q 365.5 37.75 363 37.75 Q 360.5 37.75 358.5 37.75 Q 356.5 37.75 355 36.75 Q 353.5 35.75 351.5 35.75 Q 349.5 35.75 349 35.25 Q 348.5 34.75 348 34.75 Q 347.5 34.75 346.5 34.25 Q 345.5 33.75 345.5 33.25 Q 345.5 32.75 345 32.75 Q 344.5 32.75 344 32.75 Q 343.5 32.75 342.5 32.25 Q 341.5 31.75 341 31.75 Q 340.5 31.75 340 31.75 Q 339.5 31.75 339 31.75 Q 338.5 31.75 338 31.75 Q 337.5 31.75 337 31.75 Q 336.5 31.75 336 32.25 Q 335.5 32.75 335 33.25 Q 334.5 33.75 334 34.25 Q 333.5 34.75 333.5 35.25 Q 333.5 35.75 333 36.75 Q 332.5 37.75 332.5 38.25 Q 332.5 38.75 332.5 39.25 Q 332.5 39.75 332 40.25 Q 331.5 40.75 331.5 42.25 Q 331.5 43.75 331.5 44.25 Q 331.5 44.75 331.5 46.25 Q 331.5 47.75 331.5 48.75 Q 331.5 49.75 331.5 52.25 Q 331.5 54.75 331.5 56.25 Q 331.5 57.75 331.5 60.75 Q 331.5 63.75 331.5 65.75 Q 331.5 67.75 331 70.25 Q 330.5 72.75 330.5 74.75 Q 330.5 76.75 330.5 79.75 Q 330.5 82.75 330 88.75 Q 329.5 94.75 329.5 95.75 Q 329.5 96.75 328.5 100.75 Q 327.5 104.75 327 105.75 Q 326.5 106.75 326 108.25 Q 325.5 109.75 325 111.25 Q 324.5 112.75 323.5 113.75 Q 322.5 114.75 321 115.75 Q 319.5 116.75 319 117.25 Q 318.5 117.75 317 118.25 Q 315.5 118.75 315 118.75 Q 314.5 118.75 314.5 119.25 Q 314.5 119.75 313.5 119.75 Q 312.5 119.75 312 119.75 Q 311.5 119.75 311 119.75 Q 310.5 119.75 310 119.25 Q 309.5 118.75 308.5 118.25 Q 307.5 117.75 306.5 116.75 Q 305.5 115.75 305 115.75 Q 304.5 115.75 304.5 115.25 Q 304.5 114.75 304 113.75 Q 303.5 112.75 302 110.75 Q 300.5 108.75 300 107.75 Q 299.5 106.75 299 105.25 Q 298.5 103.75 297.5 102.25 Q 296.5 100.75 296.5 99.25 Q 296.5 97.75 295.5 97.25 Q 294.5 96.75 294 95.75 Q 293.5 94.75 293 94.25 Q 292.5 93.75 292.5 92.75 Q 292.5 91.75 292 91.25 Q 291.5 90.75 291.5 89.75 Q 291.5 88.75 290.5 87.75 Q 289.5 86.75 289 85.25 Q 288.5 83.75 288 81.75 Q 287.5 79.75 287 77.75 Q 286.5 75.75 286 73.25 Q 285.5 70.75 285 69.25 Q 284.5 67.75 284.5 65.75 Q 284.5 63.75 284 62.25 Q 283.5 60.75 283.5 58.75 Q 283.5 56.75 283 55.75 Q 282.5 54.75 282 52.25 Q 281.5 49.75 281.5 48.25 Q 281.5 46.75 281.5 45.25 Q 281.5 43.75 281.5 42.75 Q 281.5 41.75 281.5 40.25 Q 281.5 38.75 281.5 38.25 Q 281.5 37.75 281.5 37.25 Q 281.5 36.75 281.5 36.25 Q 281.5 35.75 281.5 35.25 Q 281.5 34.75 281 34.25 Q 280.5 33.75 280 33.75 Q 279.5 33.75 279 33.75 Q 278.5 33.75 278 33.75 Q 277.5 33.75 277 34.25 Q 276.5 34.75 275.5 34.75 Q 274.5 34.75 274 34.75 Q 273.5 34.75 271.5 35.25 Q 269.5 35.75 268 35.75 Q 266.5 35.75 265 36.25 Q 263.5 36.75 262 36.75 Q 260.5 36.75 259 37.25 Q 257.5 37.75 256 37.75 Q 254.5 37.75 254 37.75 Q 253.5 37.75 252.5 38.25 Q 251.5 38.75 251 38.75 Q 250.5 38.75 250 38.75 Q 249.5 38.75 249 38.75 Q 248.5 38.75 248 38.75 L 247.475 38.75" stroke-linecap="round" />
</g>
</svg>