<?xml version="1.0" encoding="UTF-8" standalone="no" ?>
<!DOCTYPE svg PUBLIC "-//W3C//DTD SVG 1.1//EN" "http://www.w3.org/Graphics/SVG/1.1/DTD/svg11.dtd">
<svg xmlns="http://www.w3.org/2000/svg" xmlns:xlink="http://www.w3.org/1999/xlink" version="1.1" width="640" height="480" viewBox="0 0 640 480" xml:space="preserve">
<desc>Created with Fabric.js 3.6.6</desc>
<defs>
</defs>
<g transform="matrix(1 0 0 1 332.5 234.82)"  >
<path style="stroke: rgb(0,0,0); stroke-width: 25; stroke-dasharray: none; stroke-linecap: round; stroke-dashoffset: 0; stroke-linejoin: round; stroke-miterlimit: 10; fill: none; fill-rule: nonzero; opacity: 1;"  transform=" translate(-332.5, -234.81)" d="M 219.5 46.725 Q 219.5 46.75 219.5 47.25 Q 219.5 47.75 219.5 48.25 Q 219.5 48.75 219.5 49.75 Q 219.5 50.75 219.5 52.75 Q 219.5 54.75 219.5 58.25 Q 219.5 61.75 218.5 65.75 Q 217.5 69.75 216.5 76.75 Q 215.5 83.75 214.5 89.25 Q 213.5 94.75 213 100.75 Q 212.5 106.75 212.5 110.25 Q 212.5 113.75 211.5 120.25 Q 210.5 126.75 209.5 136.75 Q 208.5 146.75 208.5 150.25 Q 208.5 153.75 208.5 162.75 Q 208.5 171.75 208 177.75 Q 207.5 183.75 207.5 188.75 Q 207.5 193.75 207.5 198.75 Q 207.5 203.75 207.5 208.25 Q 207.5 212.75 207.5 217.25 Q 207.5 221.75 207.5 229.25 Q 207.5 236.75 207.5 241.75 Q 207.5 246.75 207.5 252.25 Q 207.5 257.75 208 261.75 Q 208.5 265.75 208.5 270.75 Q 208.5 275.75 209 280.25 Q 209.5 284.75 210.5 288.25 Q 211.5 291.75 211.5 295.75 Q 211.5 299.75 212 303.75 Q 212.5 307.75 213 312.25 Q 213.5 316.75 214 320.25 Q 214.5 323.75 214.5 328.75 Q 214.5 333.75 215.5 336.25 Q 216.5 338.75 216.5 342.25 Q 216.5 345.75 217.5 350.25 Q 218.5 354.75 218.5 356.25 Q 218.5 357.75 219.5 362.75 Q 220.5 367.75 220.5 369.75 Q 220.5 371.75 221 375.25 Q 221.5 378.75 222 383.75 Q 222.5 388.75 223 391.25 Q 223.5 393.75 224 396.25 Q 224.5 398.75 224.5 401.25 Q 224.5 403.75 225 405.75 Q 225.5 407.75 225.5 409.75 Q 225.5 411.75 225.5 415.25 Q 225.5 418.75 226 420.25 Q 226.5 421.75 226.5 422.75 Q 226.5 423.75 226.5 425.75 Q 226.5 427.75 227 428.75 Q 227.5 429.75 227.5 430.75 Q 227.5 431.75 227.5 432.25 Q 227.5 432.75 227.5 433.25 Q 227.5 433.75 227.5 434.25 Q 227.5 434.75 228 434.75 Q 228.5 434.75 230 435.25 Q 231.5 435.75 234 435.75 Q 236.5 435.75 237.5 435.75 Q 238.5 435.75 240 436.25 Q 241.5 436.75 244 437.75 Q 246.5 438.75 248 438.75 Q 249.5 438.75 251 439.25 Q 252.5 439.75 254 439.75 Q 255.5 439.75 257 439.75 Q 258.5 439.75 259.5 439.75 Q 260.5 439.75 261.5 439.75 Q 262.5 439.75 263 439.75 Q 263.5 439.75 264 439.75 Q 264.5 439.75 265 439.75 Q 265.5 439.75 266 439.75 Q 266.5 439.75 266.5 439.25 Q 266.5 438.75 267 437.75 Q 267.5 436.75 268.5 435.25 Q 269.5 433.75 271 430.75 Q 272.5 427.75 274 425.25 Q 275.5 422.75 277 419.25 Q 278.5 415.75 281 411.75 Q 283.5 407.75 285.5 402.75 Q 287.5 397.75 290.5 391.75 Q 293.5 385.75 294.5 380.75 Q 295.5 375.75 297.5 370.25 Q 299.5 364.75 301 358.75 Q 302.5 352.75 304 346.25 Q 305.5 339.75 306 334.75 Q 306.5 329.75 308 325.25 Q 309.5 320.75 310 316.75 Q 310.5 312.75 311.5 308.25 Q 312.5 303.75 313 298.75 Q 313.5 293.75 314 289.75 Q 314.5 285.75 314.5 280.25 Q 314.5 274.75 315 271.25 Q 315.5 267.75 316.5 264.75 Q 317.5 261.75 318 259.25 Q 318.5 256.75 319.5 253.25 Q 320.5 249.75 321 246.25 Q 321.5 242.75 322 239.25 Q 322.5 235.75 323.5 232.75 Q 324.5 229.75 325.5 226.25 Q 326.5 222.75 327 218.75 Q 327.5 214.75 328.5 211.25 Q 329.5 207.75 330.5 205.25 Q 331.5 202.75 332.5 200.25 Q 333.5 197.75 335.5 193.75 Q 337.5 189.75 338 188.75 Q 338.5 187.75 339 185.75 Q 339.5 183.75 340 181.75 Q 340.5 179.75 340.5 179.25 Q 340.5 178.75 341 178.25 Q 341.5 177.75 341.5 178.75 Q 341.5 179.75 342 180.75 Q 342.5 181.75 342.5 185.25 Q 342.5 188.75 343.5 193.25 Q 344.5 197.75 345.5 201.25 Q 346.5 204.75 347.5 210.25 Q 348.5 215.75 349.5 220.75 Q 350.5 225.75 352.5 231.25 Q 354.5 236.75 356.5 241.75 Q 358.5 246.75 360 254.75 Q 361.5 262.75 362.5 265.25 Q 363.5 267.75 365.5 274.25 Q 367.5 280.75 369 285.25 Q 370.5 289.75 372 294.25 Q 373.5 298.75 375 304.25 Q 376.5 309.75 377.5 314.75 Q 378.5 319.75 379 324.25 Q 379.5 328.75 380.5 333.25 Q 381.5 337.75 382.5 342.25 Q 383.5 346.75 383.5 351.25 Q 383.5 355.75 384 359.25 Q 384.5 362.75 385 367.75 Q 385.5 372.75 386 380.75 Q 386.5 388.75 387 392.75 Q 387.5 396.75 388 401.25 Q 388.5 405.75 388.5 408.75 Q 388.5 411.75 389 414.25 Q 389.5 416.75 389.5 417.75 Q 389.5 418.75 389.5 419.75 Q 389.5 420.75 389.5 421.25 Q 389.5 421.75 389.5 422.25 Q 389.5 422.75 390 422.75 Q 390.5 422.75 390.5 424.25 Q 390.5 425.75 390.5 427.25 Q 390.5 428.75 390.5 430.75 Q 390.5 432.75 390.5 434.25 Q 390.5 435.75 390.5 438.75 Q 390.5 441.75 390.5 442.25 Q 390.5 442.75 391 443.75 Q 391.5 444.75 392 444.75 Q 392.5 444.75 393 444.75 Q 393.5 444.75 395 444.75 Q 396.5 444.75 398.5 444.75 Q 400.5 444.75 403.5 444.75 Q 406.5 444.75 409.5 444.75 Q 412.5 444.75 415.5 444.75 Q 418.5 444.75 422.5 444.75 Q 426.5 444.75 430 444.75 Q 433.5 444.75 436 444.75 Q 438.5 444.75 439.5 444.75 Q 440.5 444.75 441.5 444.75 Q 442.5 444.75 442.5 444.25 Q 442.5 443.75 442.5 443.25 Q 442.5 442.75 443 441.25 Q 443.5 439.75 443.5 439.25 Q 443.5 438.75 445 435.75 Q 446.5 432.75 447.5 428.75 Q 448.5 424.75 450.5 417.75 Q 452.5 410.75 453.5 405.25 Q 454.5 399.75 454.5 392.75 Q 454.5 385.75 455 378.75 Q 455.5 371.75 455.5 365.25 Q 455.5 358.75 456.5 352.25 Q 457.5 345.75 457.5 339.25 Q 457.5 332.75 457.5 326.25 Q 457.5 319.75 457.5 312.25 Q 457.5 304.75 457.5 296.25 Q 457.5 287.75 457.5 279.25 Q 457.5 270.75 456.5 262.75 Q 455.5 254.75 454.5 242.75 Q 453.5 230.75 452 222.75 Q 450.5 214.75 449 206.75 Q 447.5 198.75 446 191.25 Q 444.5 183.75 443 177.25 Q 441.5 170.75 440.5 164.25 Q 439.5 157.75 439 151.25 Q 438.5 144.75 437.5 138.75 Q 436.5 132.75 436.5 126.25 Q 436.5 119.75 436 113.75 Q 435.5 107.75 434.5 102.75 Q 433.5 97.75 433.5 91.25 Q 433.5 84.75 433.5 80.75 Q 433.5 76.75 433.5 72.75 Q 433.5 68.75 433 64.75 Q 432.5 60.75 432.5 57.75 Q 432.5 54.75 432.5 51.25 Q 432.5 47.75 432.5 43.25 Q 432.5 38.75 432.5 35.75 Q 432.5 32.75 432.5 30.25 Q 432.5 27.75 432.5 26.75 Q 432.5 25.75 432.5 25.25 Q 432.5 24.75 431.5 25.25 Q 430.5 25.75 430 26.25 Q 429.5 26.75 428.5 27.25 Q 427.5 27.75 426.5 28.25 Q 425.5 28.75 424 29.25 Q 422.5 29.75 420 30.75 Q 417.5 31.75 416 31.75 Q 414.5 31.75 410.5 33.25 Q 406.5 34.75 404 35.75 Q 401.5 36.75 399.5 37.25 Q 397.5 37.75 394 38.75 Q 390.5 39.75 387 40.75 Q 383.5 41.75 380.5 42.25 Q 377.5 42.75 374 43.25 Q 370.5 43.75 365 44.25 Q 359.5 44.75 357.5 45.75 Q 355.5 46.75 351.5 46.75 Q 347.5 46.75 342.5 47.25 Q 337.5 47.75 333.5 48.25 Q 329.5 48.75 327 48.75 Q 324.5 48.75 318.5 48.75 Q 312.5 48.75 308 48.75 Q 303.5 48.75 300 48.75 Q 296.5 48.75 293 48.75 Q 289.5 48.75 286.5 48.75 Q 283.5 48.75 282 48.75 Q 280.5 48.75 279 48.75 Q 277.5 48.75 276.5 48.75 Q 275.5 48.75 273.5 48.75 Q 271.5 48.75 269.5 48.75 Q 267.5 48.75 264 48.75 Q 260.5 48.75 258 48.25 Q 255.5 47.75 251 47.75 Q 246.5 47.75 244.5 47.75 Q 242.5 47.75 241 47.75 Q 239.5 47.75 238 47.75 Q 236.5 47.75 234.5 47.75 Q 232.5 47.75 231.5 47.75 Q 230.5 47.75 229 47.25 L 227.475 46.725" stroke-linecap="round" />
</g>
<g transform="matrix(1 0 0 1 428.5 221.75)"  >
<path style="stroke: rgb(0,0,0); stroke-width: 25; stroke-dasharray: none; stroke-linecap: round; stroke-dashoffset: 0; stroke-linejoin: round; stroke-miterlimit: 10; fill: none; fill-rule: nonzero; opacity: 1;"  transform=" translate(-428.5, -221.75)" d="M 440.525 181.725 Q 440.5 181.75 440 182.75 Q 439.5 183.75 439 185.25 Q 438.5 186.75 438.5 187.25 Q 438.5 187.75 438 191.25 Q 437.5 194.75 437 197.75 Q 436.5 200.75 435.5 202.75 Q 434.5 204.75 434.5 207.75 Q 434.5 210.75 434 212.25 Q 433.5 213.75 433.5 215.25 Q 433.5 216.75 433 218.75 Q 432.5 220.75 432 222.25 Q 431.5 223.75 431 226.25 Q 430.5 228.75 430.5 229.75 Q 430.5 230.75 429 232.75 Q 427.5 234.75 427 238.25 Q 426.5 241.75 426 241.75 Q 425.5 241.75 425.5 242.75 Q 425.5 243.75 425 244.25 Q 424.5 244.75 424.5 245.25 Q 424.5 245.75 424.5 246.25 Q 424.5 246.75 424 247.25 Q 423.5 247.75 423 248.75 Q 422.5 249.75 422.5 250.25 Q 422.5 250.75 422 251.25 Q 421.5 251.75 421.5 252.25 Q 421.5 252.75 421 253.75 Q 420.5 254.75 420 255.25 Q 419.5 255.75 419.5 256.25 Q 419.5 256.75 419 257.25 Q 418.5 257.75 418 258.25 Q 417.5 258.75 417 260.25 L 416.475 261.775" stroke-linecap="round" />
</g>
<g transform="matrix(1 0 0 1 228.5 225.75)"  >
<path style="stroke: rgb(0,0,0); stroke-width: 25; stroke-dasharray: none; stroke-linecap: round; stroke-dashoffset: 0; stroke-linejoin: round; stroke-miterlimit: 10; fill: none; fill-rule: nonzero; opacity: 1;"  transform=" translate(-228.5, -225.75)" d="M 214.5 184.725 Q 214.5 184.75 214.5 185.75 Q 214.5 186.75 214.5 187.75 Q 214.5 188.75 215 190.75 Q 215.5 192.75 215.5 194.75 Q 215.5 196.75 216 198.75 Q 216.5 200.75 217.5 203.25 Q 218.5 205.75 219.5 208.75 Q 220.5 211.75 222 216.25 Q 223.5 220.75 224 223.75 Q 224.5 226.75 225.5 228.25 Q 226.5 229.75 229 234.75 Q 231.5 239.75 232.5 241.75 Q 233.5 243.75 235 245.75 Q 236.5 247.75 237 249.75 Q 237.5 251.75 238 252.75 Q 238.5 253.75 239 254.25 Q 239.5 254.75 240 256.25 Q 240.5 257.75 240.5 259.25 Q 240.5 260.75 241 261.75 Q 241.5 262.75 242 263.75 Q 242.5 264.75 242.5 265.25 Q 242.5 265.75 242.5 266.25 L 242.5 266.775" stroke-linecap="round" />
</g>
</svg>